<?xml version="1.0" encoding="utf-8" standalone="no"?>
<!DOCTYPE svg PUBLIC "-//W3C//DTD SVG 1.1//EN"
  "http://www.w3.org/Graphics/SVG/1.1/DTD/svg11.dtd">
<!-- Created with matplotlib (https://matplotlib.org/) -->
<svg height="345.6pt" version="1.1" viewBox="0 0 460.8 345.6" width="460.8pt" xmlns="http://www.w3.org/2000/svg" xmlns:xlink="http://www.w3.org/1999/xlink">
 <defs>
  <style type="text/css">
*{stroke-linecap:butt;stroke-linejoin:round;}
  </style>
 </defs>
 <g id="figure_1">
  <g id="patch_1">
   <path d="M 0 345.6 
L 460.8 345.6 
L 460.8 0 
L 0 0 
z
" style="fill:#ffffff;"/>
  </g>
  <g id="axes_1">
   <g id="patch_2">
    <path d="M 86.93425 132.1504 
L 177.22865 132.1504 
L 177.22865 41.856 
L 86.93425 41.856 
z
" style="fill:#ffffff;"/>
   </g>
   <g id="PathCollection_1">
    <defs>
     <path d="M 0 1.581139 
C 0.419323 1.581139 0.821528 1.41454 1.118034 1.118034 
C 1.41454 0.821528 1.581139 0.419323 1.581139 0 
C 1.581139 -0.419323 1.41454 -0.821528 1.118034 -1.118034 
C 0.821528 -1.41454 0.419323 -1.581139 0 -1.581139 
C -0.419323 -1.581139 -0.821528 -1.41454 -1.118034 -1.118034 
C -1.41454 -0.821528 -1.581139 -0.419323 -1.581139 0 
C -1.581139 0.419323 -1.41454 0.821528 -1.118034 1.118034 
C -0.821528 1.41454 -0.419323 1.581139 0 1.581139 
z
" id="m6e98a2c131" style="stroke:#6495ed;"/>
    </defs>
    <g clip-path="url(#p0664a5ef12)">
     <use style="fill:#6495ed;stroke:#6495ed;" x="115.890836" xlink:href="#m6e98a2c131" y="65.885439"/>
     <use style="fill:#6495ed;stroke:#6495ed;" x="138.787016" xlink:href="#m6e98a2c131" y="62.066379"/>
     <use style="fill:#6495ed;stroke:#6495ed;" x="130.259919" xlink:href="#m6e98a2c131" y="86.41386"/>
     <use style="fill:#6495ed;stroke:#6495ed;" x="173.008582" xlink:href="#m6e98a2c131" y="102.470126"/>
     <use style="fill:#6495ed;stroke:#6495ed;" x="155.408115" xlink:href="#m6e98a2c131" y="82.896396"/>
     <use style="fill:#6495ed;stroke:#6495ed;" x="120.647438" xlink:href="#m6e98a2c131" y="77.792329"/>
     <use style="fill:#6495ed;stroke:#6495ed;" x="118.866329" xlink:href="#m6e98a2c131" y="101.359785"/>
     <use style="fill:#6495ed;stroke:#6495ed;" x="91.154318" xlink:href="#m6e98a2c131" y="51.759301"/>
     <use style="fill:#6495ed;stroke:#6495ed;" x="123.601446" xlink:href="#m6e98a2c131" y="46.131618"/>
     <use style="fill:#6495ed;stroke:#6495ed;" x="137.41093" xlink:href="#m6e98a2c131" y="56.889772"/>
     <use style="fill:#6495ed;stroke:#6495ed;" x="124.690506" xlink:href="#m6e98a2c131" y="55.510862"/>
     <use style="fill:#6495ed;stroke:#6495ed;" x="110.057363" xlink:href="#m6e98a2c131" y="70.305216"/>
     <use style="fill:#6495ed;stroke:#6495ed;" x="121.626228" xlink:href="#m6e98a2c131" y="63.271905"/>
     <use style="fill:#6495ed;stroke:#6495ed;" x="117.233337" xlink:href="#m6e98a2c131" y="75.51204"/>
     <use style="fill:#6495ed;stroke:#6495ed;" x="132.528153" xlink:href="#m6e98a2c131" y="64.596283"/>
     <use style="fill:#6495ed;stroke:#6495ed;" x="113.327193" xlink:href="#m6e98a2c131" y="78.60641"/>
     <use style="fill:#6495ed;stroke:#6495ed;" x="127.825488" xlink:href="#m6e98a2c131" y="127.874782"/>
     <use style="fill:#6495ed;stroke:#6495ed;" x="104.95052" xlink:href="#m6e98a2c131" y="83.497996"/>
     <use style="fill:#6495ed;stroke:#6495ed;" x="141.893631" xlink:href="#m6e98a2c131" y="83.385784"/>
     <use style="fill:#6495ed;stroke:#6495ed;" x="119.698859" xlink:href="#m6e98a2c131" y="65.661558"/>
     <use style="fill:#6495ed;stroke:#6495ed;" x="102.237079" xlink:href="#m6e98a2c131" y="86.05583"/>
     <use style="fill:#6495ed;stroke:#6495ed;" x="145.961138" xlink:href="#m6e98a2c131" y="64.596283"/>
     <use style="fill:#6495ed;stroke:#6495ed;" x="147.659233" xlink:href="#m6e98a2c131" y="110.929927"/>
     <use style="fill:#6495ed;stroke:#6495ed;" x="134.559531" xlink:href="#m6e98a2c131" y="79.358051"/>
     <use style="fill:#6495ed;stroke:#6495ed;" x="120.954823" xlink:href="#m6e98a2c131" y="72.56132"/>
     <use style="fill:#6495ed;stroke:#6495ed;" x="131.963032" xlink:href="#m6e98a2c131" y="97.464142"/>
     <use style="fill:#6495ed;stroke:#6495ed;" x="116.257732" xlink:href="#m6e98a2c131" y="69.502772"/>
     <use style="fill:#6495ed;stroke:#6495ed;" x="123.42769" xlink:href="#m6e98a2c131" y="57.016523"/>
     <use style="fill:#6495ed;stroke:#6495ed;" x="115.547562" xlink:href="#m6e98a2c131" y="70.338333"/>
     <use style="fill:#6495ed;stroke:#6495ed;" x="147.4563" xlink:href="#m6e98a2c131" y="109.538963"/>
     <use style="fill:#6495ed;stroke:#6495ed;" x="118.401919" xlink:href="#m6e98a2c131" y="78.944133"/>
     <use style="fill:#6495ed;stroke:#6495ed;" x="163.439071" xlink:href="#m6e98a2c131" y="78.696059"/>
     <use style="fill:#6495ed;stroke:#6495ed;" x="117.274288" xlink:href="#m6e98a2c131" y="90.09324"/>
     <use style="fill:#6495ed;stroke:#6495ed;" x="148.939237" xlink:href="#m6e98a2c131" y="113.084154"/>
     <use style="fill:#6495ed;stroke:#6495ed;" x="127.568098" xlink:href="#m6e98a2c131" y="69.502772"/>
     <use style="fill:#6495ed;stroke:#6495ed;" x="135.577785" xlink:href="#m6e98a2c131" y="92.651434"/>
     <use style="fill:#6495ed;stroke:#6495ed;" x="154.675022" xlink:href="#m6e98a2c131" y="84.555126"/>
     <use style="fill:#6495ed;stroke:#6495ed;" x="136.826871" xlink:href="#m6e98a2c131" y="62.416324"/>
     <use style="fill:#6495ed;stroke:#6495ed;" x="122.016854" xlink:href="#m6e98a2c131" y="81.020454"/>
     <use style="fill:#6495ed;stroke:#6495ed;" x="132.22067" xlink:href="#m6e98a2c131" y="60.552691"/>
     <use style="fill:#6495ed;stroke:#6495ed;" x="136.615263" xlink:href="#m6e98a2c131" y="66.966721"/>
     <use style="fill:#6495ed;stroke:#6495ed;" x="132.082932" xlink:href="#m6e98a2c131" y="105.974438"/>
     <use style="fill:#6495ed;stroke:#6495ed;" x="157.949231" xlink:href="#m6e98a2c131" y="55.278398"/>
     <use style="fill:#6495ed;stroke:#6495ed;" x="124.67505" xlink:href="#m6e98a2c131" y="66.400514"/>
    </g>
   </g>
   <g id="matplotlib.axis_1">
    <g id="xtick_1">
     <g id="line2d_1">
      <defs>
       <path d="M 0 0 
L 0 3.5 
" id="mf32974e1e2" style="stroke:#000000;stroke-width:0.8;"/>
      </defs>
      <g>
       <use style="stroke:#000000;stroke-width:0.8;" x="96.827019" xlink:href="#mf32974e1e2" y="133.053344"/>
      </g>
     </g>
     <g id="text_1">
      <!-- -2.0 -->
      <defs>
       <path d="M 4.890625 31.390625 
L 31.203125 31.390625 
L 31.203125 23.390625 
L 4.890625 23.390625 
z
" id="DejaVuSans-45"/>
       <path d="M 19.1875 8.296875 
L 53.609375 8.296875 
L 53.609375 0 
L 7.328125 0 
L 7.328125 8.296875 
Q 12.9375 14.109375 22.625 23.890625 
Q 32.328125 33.6875 34.8125 36.53125 
Q 39.546875 41.84375 41.421875 45.53125 
Q 43.3125 49.21875 43.3125 52.78125 
Q 43.3125 58.59375 39.234375 62.25 
Q 35.15625 65.921875 28.609375 65.921875 
Q 23.96875 65.921875 18.8125 64.3125 
Q 13.671875 62.703125 7.8125 59.421875 
L 7.8125 69.390625 
Q 13.765625 71.78125 18.9375 73 
Q 24.125 74.21875 28.421875 74.21875 
Q 39.75 74.21875 46.484375 68.546875 
Q 53.21875 62.890625 53.21875 53.421875 
Q 53.21875 48.921875 51.53125 44.890625 
Q 49.859375 40.875 45.40625 35.40625 
Q 44.1875 33.984375 37.640625 27.21875 
Q 31.109375 20.453125 19.1875 8.296875 
z
" id="DejaVuSans-50"/>
       <path d="M 10.6875 12.40625 
L 21 12.40625 
L 21 0 
L 10.6875 0 
z
" id="DejaVuSans-46"/>
       <path d="M 31.78125 66.40625 
Q 24.171875 66.40625 20.328125 58.90625 
Q 16.5 51.421875 16.5 36.375 
Q 16.5 21.390625 20.328125 13.890625 
Q 24.171875 6.390625 31.78125 6.390625 
Q 39.453125 6.390625 43.28125 13.890625 
Q 47.125 21.390625 47.125 36.375 
Q 47.125 51.421875 43.28125 58.90625 
Q 39.453125 66.40625 31.78125 66.40625 
z
M 31.78125 74.21875 
Q 44.046875 74.21875 50.515625 64.515625 
Q 56.984375 54.828125 56.984375 36.375 
Q 56.984375 17.96875 50.515625 8.265625 
Q 44.046875 -1.421875 31.78125 -1.421875 
Q 19.53125 -1.421875 13.0625 8.265625 
Q 6.59375 17.96875 6.59375 36.375 
Q 6.59375 54.828125 13.0625 64.515625 
Q 19.53125 74.21875 31.78125 74.21875 
z
" id="DejaVuSans-48"/>
      </defs>
      <g style="fill:#808080;" transform="translate(87.07155 147.651781)scale(0.1 -0.1)">
       <use xlink:href="#DejaVuSans-45"/>
       <use x="36.083984" xlink:href="#DejaVuSans-50"/>
       <use x="99.707031" xlink:href="#DejaVuSans-46"/>
       <use x="131.494141" xlink:href="#DejaVuSans-48"/>
      </g>
     </g>
    </g>
    <g id="xtick_2">
     <g id="line2d_2">
      <g>
       <use style="stroke:#000000;stroke-width:0.8;" x="129.844378" xlink:href="#mf32974e1e2" y="133.053344"/>
      </g>
     </g>
     <g id="text_2">
      <!-- 0.0 -->
      <g style="fill:#808080;" transform="translate(121.892815 147.651781)scale(0.1 -0.1)">
       <use xlink:href="#DejaVuSans-48"/>
       <use x="63.623047" xlink:href="#DejaVuSans-46"/>
       <use x="95.410156" xlink:href="#DejaVuSans-48"/>
      </g>
     </g>
    </g>
    <g id="xtick_3">
     <g id="line2d_3">
      <g>
       <use style="stroke:#000000;stroke-width:0.8;" x="162.861737" xlink:href="#mf32974e1e2" y="133.053344"/>
      </g>
     </g>
     <g id="text_3">
      <!-- 2.0 -->
      <g style="fill:#808080;" transform="translate(154.910174 147.651781)scale(0.1 -0.1)">
       <use xlink:href="#DejaVuSans-50"/>
       <use x="63.623047" xlink:href="#DejaVuSans-46"/>
       <use x="95.410156" xlink:href="#DejaVuSans-48"/>
      </g>
     </g>
    </g>
    <g id="text_4">
     <!-- Displacement PC-within (z) -->
     <defs>
      <path d="M 19.671875 64.796875 
L 19.671875 8.109375 
L 31.59375 8.109375 
Q 46.6875 8.109375 53.6875 14.9375 
Q 60.6875 21.78125 60.6875 36.53125 
Q 60.6875 51.171875 53.6875 57.984375 
Q 46.6875 64.796875 31.59375 64.796875 
z
M 9.8125 72.90625 
L 30.078125 72.90625 
Q 51.265625 72.90625 61.171875 64.09375 
Q 71.09375 55.28125 71.09375 36.53125 
Q 71.09375 17.671875 61.125 8.828125 
Q 51.171875 0 30.078125 0 
L 9.8125 0 
z
" id="DejaVuSans-68"/>
      <path d="M 9.421875 54.6875 
L 18.40625 54.6875 
L 18.40625 0 
L 9.421875 0 
z
M 9.421875 75.984375 
L 18.40625 75.984375 
L 18.40625 64.59375 
L 9.421875 64.59375 
z
" id="DejaVuSans-105"/>
      <path d="M 44.28125 53.078125 
L 44.28125 44.578125 
Q 40.484375 46.53125 36.375 47.5 
Q 32.28125 48.484375 27.875 48.484375 
Q 21.1875 48.484375 17.84375 46.4375 
Q 14.5 44.390625 14.5 40.28125 
Q 14.5 37.15625 16.890625 35.375 
Q 19.28125 33.59375 26.515625 31.984375 
L 29.59375 31.296875 
Q 39.15625 29.25 43.1875 25.515625 
Q 47.21875 21.78125 47.21875 15.09375 
Q 47.21875 7.46875 41.1875 3.015625 
Q 35.15625 -1.421875 24.609375 -1.421875 
Q 20.21875 -1.421875 15.453125 -0.5625 
Q 10.6875 0.296875 5.421875 2 
L 5.421875 11.28125 
Q 10.40625 8.6875 15.234375 7.390625 
Q 20.0625 6.109375 24.8125 6.109375 
Q 31.15625 6.109375 34.5625 8.28125 
Q 37.984375 10.453125 37.984375 14.40625 
Q 37.984375 18.0625 35.515625 20.015625 
Q 33.0625 21.96875 24.703125 23.78125 
L 21.578125 24.515625 
Q 13.234375 26.265625 9.515625 29.90625 
Q 5.8125 33.546875 5.8125 39.890625 
Q 5.8125 47.609375 11.28125 51.796875 
Q 16.75 56 26.8125 56 
Q 31.78125 56 36.171875 55.265625 
Q 40.578125 54.546875 44.28125 53.078125 
z
" id="DejaVuSans-115"/>
      <path d="M 18.109375 8.203125 
L 18.109375 -20.796875 
L 9.078125 -20.796875 
L 9.078125 54.6875 
L 18.109375 54.6875 
L 18.109375 46.390625 
Q 20.953125 51.265625 25.265625 53.625 
Q 29.59375 56 35.59375 56 
Q 45.5625 56 51.78125 48.09375 
Q 58.015625 40.1875 58.015625 27.296875 
Q 58.015625 14.40625 51.78125 6.484375 
Q 45.5625 -1.421875 35.59375 -1.421875 
Q 29.59375 -1.421875 25.265625 0.953125 
Q 20.953125 3.328125 18.109375 8.203125 
z
M 48.6875 27.296875 
Q 48.6875 37.203125 44.609375 42.84375 
Q 40.53125 48.484375 33.40625 48.484375 
Q 26.265625 48.484375 22.1875 42.84375 
Q 18.109375 37.203125 18.109375 27.296875 
Q 18.109375 17.390625 22.1875 11.75 
Q 26.265625 6.109375 33.40625 6.109375 
Q 40.53125 6.109375 44.609375 11.75 
Q 48.6875 17.390625 48.6875 27.296875 
z
" id="DejaVuSans-112"/>
      <path d="M 9.421875 75.984375 
L 18.40625 75.984375 
L 18.40625 0 
L 9.421875 0 
z
" id="DejaVuSans-108"/>
      <path d="M 34.28125 27.484375 
Q 23.390625 27.484375 19.1875 25 
Q 14.984375 22.515625 14.984375 16.5 
Q 14.984375 11.71875 18.140625 8.90625 
Q 21.296875 6.109375 26.703125 6.109375 
Q 34.1875 6.109375 38.703125 11.40625 
Q 43.21875 16.703125 43.21875 25.484375 
L 43.21875 27.484375 
z
M 52.203125 31.203125 
L 52.203125 0 
L 43.21875 0 
L 43.21875 8.296875 
Q 40.140625 3.328125 35.546875 0.953125 
Q 30.953125 -1.421875 24.3125 -1.421875 
Q 15.921875 -1.421875 10.953125 3.296875 
Q 6 8.015625 6 15.921875 
Q 6 25.140625 12.171875 29.828125 
Q 18.359375 34.515625 30.609375 34.515625 
L 43.21875 34.515625 
L 43.21875 35.40625 
Q 43.21875 41.609375 39.140625 45 
Q 35.0625 48.390625 27.6875 48.390625 
Q 23 48.390625 18.546875 47.265625 
Q 14.109375 46.140625 10.015625 43.890625 
L 10.015625 52.203125 
Q 14.9375 54.109375 19.578125 55.046875 
Q 24.21875 56 28.609375 56 
Q 40.484375 56 46.34375 49.84375 
Q 52.203125 43.703125 52.203125 31.203125 
z
" id="DejaVuSans-97"/>
      <path d="M 48.78125 52.59375 
L 48.78125 44.1875 
Q 44.96875 46.296875 41.140625 47.34375 
Q 37.3125 48.390625 33.40625 48.390625 
Q 24.65625 48.390625 19.8125 42.84375 
Q 14.984375 37.3125 14.984375 27.296875 
Q 14.984375 17.28125 19.8125 11.734375 
Q 24.65625 6.203125 33.40625 6.203125 
Q 37.3125 6.203125 41.140625 7.25 
Q 44.96875 8.296875 48.78125 10.40625 
L 48.78125 2.09375 
Q 45.015625 0.34375 40.984375 -0.53125 
Q 36.96875 -1.421875 32.421875 -1.421875 
Q 20.0625 -1.421875 12.78125 6.34375 
Q 5.515625 14.109375 5.515625 27.296875 
Q 5.515625 40.671875 12.859375 48.328125 
Q 20.21875 56 33.015625 56 
Q 37.15625 56 41.109375 55.140625 
Q 45.0625 54.296875 48.78125 52.59375 
z
" id="DejaVuSans-99"/>
      <path d="M 56.203125 29.59375 
L 56.203125 25.203125 
L 14.890625 25.203125 
Q 15.484375 15.921875 20.484375 11.0625 
Q 25.484375 6.203125 34.421875 6.203125 
Q 39.59375 6.203125 44.453125 7.46875 
Q 49.3125 8.734375 54.109375 11.28125 
L 54.109375 2.78125 
Q 49.265625 0.734375 44.1875 -0.34375 
Q 39.109375 -1.421875 33.890625 -1.421875 
Q 20.796875 -1.421875 13.15625 6.1875 
Q 5.515625 13.8125 5.515625 26.8125 
Q 5.515625 40.234375 12.765625 48.109375 
Q 20.015625 56 32.328125 56 
Q 43.359375 56 49.78125 48.890625 
Q 56.203125 41.796875 56.203125 29.59375 
z
M 47.21875 32.234375 
Q 47.125 39.59375 43.09375 43.984375 
Q 39.0625 48.390625 32.421875 48.390625 
Q 24.90625 48.390625 20.390625 44.140625 
Q 15.875 39.890625 15.1875 32.171875 
z
" id="DejaVuSans-101"/>
      <path d="M 52 44.1875 
Q 55.375 50.25 60.0625 53.125 
Q 64.75 56 71.09375 56 
Q 79.640625 56 84.28125 50.015625 
Q 88.921875 44.046875 88.921875 33.015625 
L 88.921875 0 
L 79.890625 0 
L 79.890625 32.71875 
Q 79.890625 40.578125 77.09375 44.375 
Q 74.3125 48.1875 68.609375 48.1875 
Q 61.625 48.1875 57.5625 43.546875 
Q 53.515625 38.921875 53.515625 30.90625 
L 53.515625 0 
L 44.484375 0 
L 44.484375 32.71875 
Q 44.484375 40.625 41.703125 44.40625 
Q 38.921875 48.1875 33.109375 48.1875 
Q 26.21875 48.1875 22.15625 43.53125 
Q 18.109375 38.875 18.109375 30.90625 
L 18.109375 0 
L 9.078125 0 
L 9.078125 54.6875 
L 18.109375 54.6875 
L 18.109375 46.1875 
Q 21.1875 51.21875 25.484375 53.609375 
Q 29.78125 56 35.6875 56 
Q 41.65625 56 45.828125 52.96875 
Q 50 49.953125 52 44.1875 
z
" id="DejaVuSans-109"/>
      <path d="M 54.890625 33.015625 
L 54.890625 0 
L 45.90625 0 
L 45.90625 32.71875 
Q 45.90625 40.484375 42.875 44.328125 
Q 39.84375 48.1875 33.796875 48.1875 
Q 26.515625 48.1875 22.3125 43.546875 
Q 18.109375 38.921875 18.109375 30.90625 
L 18.109375 0 
L 9.078125 0 
L 9.078125 54.6875 
L 18.109375 54.6875 
L 18.109375 46.1875 
Q 21.34375 51.125 25.703125 53.5625 
Q 30.078125 56 35.796875 56 
Q 45.21875 56 50.046875 50.171875 
Q 54.890625 44.34375 54.890625 33.015625 
z
" id="DejaVuSans-110"/>
      <path d="M 18.3125 70.21875 
L 18.3125 54.6875 
L 36.8125 54.6875 
L 36.8125 47.703125 
L 18.3125 47.703125 
L 18.3125 18.015625 
Q 18.3125 11.328125 20.140625 9.421875 
Q 21.96875 7.515625 27.59375 7.515625 
L 36.8125 7.515625 
L 36.8125 0 
L 27.59375 0 
Q 17.1875 0 13.234375 3.875 
Q 9.28125 7.765625 9.28125 18.015625 
L 9.28125 47.703125 
L 2.6875 47.703125 
L 2.6875 54.6875 
L 9.28125 54.6875 
L 9.28125 70.21875 
z
" id="DejaVuSans-116"/>
      <path id="DejaVuSans-32"/>
      <path d="M 19.671875 64.796875 
L 19.671875 37.40625 
L 32.078125 37.40625 
Q 38.96875 37.40625 42.71875 40.96875 
Q 46.484375 44.53125 46.484375 51.125 
Q 46.484375 57.671875 42.71875 61.234375 
Q 38.96875 64.796875 32.078125 64.796875 
z
M 9.8125 72.90625 
L 32.078125 72.90625 
Q 44.34375 72.90625 50.609375 67.359375 
Q 56.890625 61.8125 56.890625 51.125 
Q 56.890625 40.328125 50.609375 34.8125 
Q 44.34375 29.296875 32.078125 29.296875 
L 19.671875 29.296875 
L 19.671875 0 
L 9.8125 0 
z
" id="DejaVuSans-80"/>
      <path d="M 64.40625 67.28125 
L 64.40625 56.890625 
Q 59.421875 61.53125 53.78125 63.8125 
Q 48.140625 66.109375 41.796875 66.109375 
Q 29.296875 66.109375 22.65625 58.46875 
Q 16.015625 50.828125 16.015625 36.375 
Q 16.015625 21.96875 22.65625 14.328125 
Q 29.296875 6.6875 41.796875 6.6875 
Q 48.140625 6.6875 53.78125 8.984375 
Q 59.421875 11.28125 64.40625 15.921875 
L 64.40625 5.609375 
Q 59.234375 2.09375 53.4375 0.328125 
Q 47.65625 -1.421875 41.21875 -1.421875 
Q 24.65625 -1.421875 15.125 8.703125 
Q 5.609375 18.84375 5.609375 36.375 
Q 5.609375 53.953125 15.125 64.078125 
Q 24.65625 74.21875 41.21875 74.21875 
Q 47.75 74.21875 53.53125 72.484375 
Q 59.328125 70.75 64.40625 67.28125 
z
" id="DejaVuSans-67"/>
      <path d="M 4.203125 54.6875 
L 13.1875 54.6875 
L 24.421875 12.015625 
L 35.59375 54.6875 
L 46.1875 54.6875 
L 57.421875 12.015625 
L 68.609375 54.6875 
L 77.59375 54.6875 
L 63.28125 0 
L 52.6875 0 
L 40.921875 44.828125 
L 29.109375 0 
L 18.5 0 
z
" id="DejaVuSans-119"/>
      <path d="M 54.890625 33.015625 
L 54.890625 0 
L 45.90625 0 
L 45.90625 32.71875 
Q 45.90625 40.484375 42.875 44.328125 
Q 39.84375 48.1875 33.796875 48.1875 
Q 26.515625 48.1875 22.3125 43.546875 
Q 18.109375 38.921875 18.109375 30.90625 
L 18.109375 0 
L 9.078125 0 
L 9.078125 75.984375 
L 18.109375 75.984375 
L 18.109375 46.1875 
Q 21.34375 51.125 25.703125 53.5625 
Q 30.078125 56 35.796875 56 
Q 45.21875 56 50.046875 50.171875 
Q 54.890625 44.34375 54.890625 33.015625 
z
" id="DejaVuSans-104"/>
      <path d="M 31 75.875 
Q 24.46875 64.65625 21.28125 53.65625 
Q 18.109375 42.671875 18.109375 31.390625 
Q 18.109375 20.125 21.3125 9.0625 
Q 24.515625 -2 31 -13.1875 
L 23.1875 -13.1875 
Q 15.875 -1.703125 12.234375 9.375 
Q 8.59375 20.453125 8.59375 31.390625 
Q 8.59375 42.28125 12.203125 53.3125 
Q 15.828125 64.359375 23.1875 75.875 
z
" id="DejaVuSans-40"/>
      <path d="M 5.515625 54.6875 
L 48.1875 54.6875 
L 48.1875 46.484375 
L 14.40625 7.171875 
L 48.1875 7.171875 
L 48.1875 0 
L 4.296875 0 
L 4.296875 8.203125 
L 38.09375 47.515625 
L 5.515625 47.515625 
z
" id="DejaVuSans-122"/>
      <path d="M 8.015625 75.875 
L 15.828125 75.875 
Q 23.140625 64.359375 26.78125 53.3125 
Q 30.421875 42.28125 30.421875 31.390625 
Q 30.421875 20.453125 26.78125 9.375 
Q 23.140625 -1.703125 15.828125 -13.1875 
L 8.015625 -13.1875 
Q 14.5 -2 17.703125 9.0625 
Q 20.90625 20.125 20.90625 31.390625 
Q 20.90625 42.671875 17.703125 53.65625 
Q 14.5 64.65625 8.015625 75.875 
z
" id="DejaVuSans-41"/>
     </defs>
     <g style="fill:#808080;" transform="translate(64.529888 161.329906)scale(0.1 -0.1)">
      <use xlink:href="#DejaVuSans-68"/>
      <use x="77.001953" xlink:href="#DejaVuSans-105"/>
      <use x="104.785156" xlink:href="#DejaVuSans-115"/>
      <use x="156.884766" xlink:href="#DejaVuSans-112"/>
      <use x="220.361328" xlink:href="#DejaVuSans-108"/>
      <use x="248.144531" xlink:href="#DejaVuSans-97"/>
      <use x="309.423828" xlink:href="#DejaVuSans-99"/>
      <use x="364.404297" xlink:href="#DejaVuSans-101"/>
      <use x="425.927734" xlink:href="#DejaVuSans-109"/>
      <use x="523.339844" xlink:href="#DejaVuSans-101"/>
      <use x="584.863281" xlink:href="#DejaVuSans-110"/>
      <use x="648.242188" xlink:href="#DejaVuSans-116"/>
      <use x="687.451172" xlink:href="#DejaVuSans-32"/>
      <use x="719.238281" xlink:href="#DejaVuSans-80"/>
      <use x="779.541016" xlink:href="#DejaVuSans-67"/>
      <use x="849.365234" xlink:href="#DejaVuSans-45"/>
      <use x="885.449219" xlink:href="#DejaVuSans-119"/>
      <use x="967.236328" xlink:href="#DejaVuSans-105"/>
      <use x="995.019531" xlink:href="#DejaVuSans-116"/>
      <use x="1034.228516" xlink:href="#DejaVuSans-104"/>
      <use x="1097.607422" xlink:href="#DejaVuSans-105"/>
      <use x="1125.390625" xlink:href="#DejaVuSans-110"/>
      <use x="1188.769531" xlink:href="#DejaVuSans-32"/>
      <use x="1220.556641" xlink:href="#DejaVuSans-40"/>
      <use x="1259.570312" xlink:href="#DejaVuSans-122"/>
      <use x="1312.060547" xlink:href="#DejaVuSans-41"/>
     </g>
    </g>
   </g>
   <g id="matplotlib.axis_2">
    <g id="ytick_1">
     <g id="line2d_4">
      <defs>
       <path d="M 0 0 
L -3.5 0 
" id="mb0d5231146" style="stroke:#000000;stroke-width:0.8;"/>
      </defs>
      <g>
       <use style="stroke:#000000;stroke-width:0.8;" x="86.031306" xlink:href="#mb0d5231146" y="114.25748"/>
      </g>
     </g>
     <g id="text_5">
      <!-- -2.0 -->
      <g style="fill:#808080;" transform="translate(59.520369 118.056699)scale(0.1 -0.1)">
       <use xlink:href="#DejaVuSans-45"/>
       <use x="36.083984" xlink:href="#DejaVuSans-50"/>
       <use x="99.707031" xlink:href="#DejaVuSans-46"/>
       <use x="131.494141" xlink:href="#DejaVuSans-48"/>
      </g>
     </g>
    </g>
    <g id="ytick_2">
     <g id="line2d_5">
      <g>
       <use style="stroke:#000000;stroke-width:0.8;" x="86.031306" xlink:href="#mb0d5231146" y="77.849692"/>
      </g>
     </g>
     <g id="text_6">
      <!-- -1.0 -->
      <defs>
       <path d="M 12.40625 8.296875 
L 28.515625 8.296875 
L 28.515625 63.921875 
L 10.984375 60.40625 
L 10.984375 69.390625 
L 28.421875 72.90625 
L 38.28125 72.90625 
L 38.28125 8.296875 
L 54.390625 8.296875 
L 54.390625 0 
L 12.40625 0 
z
" id="DejaVuSans-49"/>
      </defs>
      <g style="fill:#808080;" transform="translate(59.520369 81.648911)scale(0.1 -0.1)">
       <use xlink:href="#DejaVuSans-45"/>
       <use x="36.083984" xlink:href="#DejaVuSans-49"/>
       <use x="99.707031" xlink:href="#DejaVuSans-46"/>
       <use x="131.494141" xlink:href="#DejaVuSans-48"/>
      </g>
     </g>
    </g>
    <g id="text_7">
     <!-- PC stimulation site (z) -->
     <defs>
      <path d="M 8.5 21.578125 
L 8.5 54.6875 
L 17.484375 54.6875 
L 17.484375 21.921875 
Q 17.484375 14.15625 20.5 10.265625 
Q 23.53125 6.390625 29.59375 6.390625 
Q 36.859375 6.390625 41.078125 11.03125 
Q 45.3125 15.671875 45.3125 23.6875 
L 45.3125 54.6875 
L 54.296875 54.6875 
L 54.296875 0 
L 45.3125 0 
L 45.3125 8.40625 
Q 42.046875 3.421875 37.71875 1 
Q 33.40625 -1.421875 27.6875 -1.421875 
Q 18.265625 -1.421875 13.375 4.4375 
Q 8.5 10.296875 8.5 21.578125 
z
M 31.109375 56 
z
" id="DejaVuSans-117"/>
      <path d="M 30.609375 48.390625 
Q 23.390625 48.390625 19.1875 42.75 
Q 14.984375 37.109375 14.984375 27.296875 
Q 14.984375 17.484375 19.15625 11.84375 
Q 23.34375 6.203125 30.609375 6.203125 
Q 37.796875 6.203125 41.984375 11.859375 
Q 46.1875 17.53125 46.1875 27.296875 
Q 46.1875 37.015625 41.984375 42.703125 
Q 37.796875 48.390625 30.609375 48.390625 
z
M 30.609375 56 
Q 42.328125 56 49.015625 48.375 
Q 55.71875 40.765625 55.71875 27.296875 
Q 55.71875 13.875 49.015625 6.21875 
Q 42.328125 -1.421875 30.609375 -1.421875 
Q 18.84375 -1.421875 12.171875 6.21875 
Q 5.515625 13.875 5.515625 27.296875 
Q 5.515625 40.765625 12.171875 48.375 
Q 18.84375 56 30.609375 56 
z
" id="DejaVuSans-111"/>
     </defs>
     <g style="fill:#808080;" transform="translate(53.440681 141.856325)rotate(-90)scale(0.1 -0.1)">
      <use xlink:href="#DejaVuSans-80"/>
      <use x="60.302734" xlink:href="#DejaVuSans-67"/>
      <use x="130.126953" xlink:href="#DejaVuSans-32"/>
      <use x="161.914062" xlink:href="#DejaVuSans-115"/>
      <use x="214.013672" xlink:href="#DejaVuSans-116"/>
      <use x="253.222656" xlink:href="#DejaVuSans-105"/>
      <use x="281.005859" xlink:href="#DejaVuSans-109"/>
      <use x="378.417969" xlink:href="#DejaVuSans-117"/>
      <use x="441.796875" xlink:href="#DejaVuSans-108"/>
      <use x="469.580078" xlink:href="#DejaVuSans-97"/>
      <use x="530.859375" xlink:href="#DejaVuSans-116"/>
      <use x="570.068359" xlink:href="#DejaVuSans-105"/>
      <use x="597.851562" xlink:href="#DejaVuSans-111"/>
      <use x="659.033203" xlink:href="#DejaVuSans-110"/>
      <use x="722.412109" xlink:href="#DejaVuSans-32"/>
      <use x="754.199219" xlink:href="#DejaVuSans-115"/>
      <use x="806.298828" xlink:href="#DejaVuSans-105"/>
      <use x="834.082031" xlink:href="#DejaVuSans-116"/>
      <use x="873.291016" xlink:href="#DejaVuSans-101"/>
      <use x="934.814453" xlink:href="#DejaVuSans-32"/>
      <use x="966.601562" xlink:href="#DejaVuSans-40"/>
      <use x="1005.615234" xlink:href="#DejaVuSans-122"/>
      <use x="1058.105469" xlink:href="#DejaVuSans-41"/>
     </g>
    </g>
   </g>
   <g id="patch_3">
    <path d="M 86.031306 132.1504 
L 86.031306 41.856 
" style="fill:none;stroke:#808080;stroke-linecap:square;stroke-linejoin:miter;stroke-width:0.8;"/>
   </g>
   <g id="patch_4">
    <path d="M 177.22865 132.1504 
L 177.22865 41.856 
" style="fill:none;"/>
   </g>
   <g id="patch_5">
    <path d="M 86.93425 133.053344 
L 177.22865 133.053344 
" style="fill:none;stroke:#808080;stroke-linecap:square;stroke-linejoin:miter;stroke-width:0.8;"/>
   </g>
   <g id="patch_6">
    <path d="M 86.93425 41.856 
L 177.22865 41.856 
" style="fill:none;"/>
   </g>
  </g>
  <g id="axes_2">
   <g id="patch_7">
    <path d="M 297.56295 132.1504 
L 387.85735 132.1504 
L 387.85735 41.856 
L 297.56295 41.856 
z
" style="fill:#ffffff;"/>
   </g>
   <g id="matplotlib.axis_3">
    <g id="xtick_4">
     <g id="line2d_6">
      <g>
       <use style="stroke:#000000;stroke-width:0.8;" x="297.56295" xlink:href="#mf32974e1e2" y="133.053344"/>
      </g>
     </g>
     <g id="text_8">
      <!-- -1 -->
      <g style="fill:#808080;" transform="translate(292.577794 147.651781)scale(0.1 -0.1)">
       <use xlink:href="#DejaVuSans-45"/>
       <use x="36.083984" xlink:href="#DejaVuSans-49"/>
      </g>
     </g>
    </g>
    <g id="xtick_5">
     <g id="line2d_7">
      <g>
       <use style="stroke:#000000;stroke-width:0.8;" x="342.71015" xlink:href="#mf32974e1e2" y="133.053344"/>
      </g>
     </g>
     <g id="text_9">
      <!-- 0 -->
      <g style="fill:#808080;" transform="translate(339.5289 147.651781)scale(0.1 -0.1)">
       <use xlink:href="#DejaVuSans-48"/>
      </g>
     </g>
    </g>
    <g id="xtick_6">
     <g id="line2d_8">
      <g>
       <use style="stroke:#000000;stroke-width:0.8;" x="387.85735" xlink:href="#mf32974e1e2" y="133.053344"/>
      </g>
     </g>
     <g id="text_10">
      <!-- 1 -->
      <g style="fill:#808080;" transform="translate(384.6761 147.651781)scale(0.1 -0.1)">
       <use xlink:href="#DejaVuSans-49"/>
      </g>
     </g>
    </g>
    <g id="text_11">
     <!-- $\beta$ -->
     <defs>
      <path d="M 13.625 3.375 
L 8.9375 -20.796875 
L -0.09375 -20.796875 
L 14.5 54.34375 
Q 18.84375 76.609375 39.65625 76.609375 
Q 60.75 76.609375 57.171875 57.8125 
Q 54.734375 44.4375 45.21875 39.546875 
Q 58.015625 35.15625 55.515625 22.125 
Q 51.125 -1.078125 27.484375 -1.03125 
Q 17.140625 -0.984375 13.625 3.375 
z
M 15.921875 15.09375 
Q 19.671875 6.59375 29.296875 6.640625 
Q 43.359375 6.640625 46.34375 21.96875 
Q 49.03125 35.75 26.171875 34.671875 
L 27.78125 42.96875 
Q 45.453125 42.671875 48.53125 58.59375 
Q 50.640625 69.34375 39.203125 69.28125 
Q 26.421875 69.28125 23.484375 54.046875 
z
" id="DejaVuSans-Oblique-946"/>
     </defs>
     <g style="fill:#808080;" transform="translate(339.51015 161.431469)scale(0.1 -0.1)">
      <use transform="translate(0 0.390625)" xlink:href="#DejaVuSans-Oblique-946"/>
     </g>
    </g>
   </g>
   <g id="matplotlib.axis_4"/>
   <g id="line2d_9">
    <path clip-path="url(#p92d4602fd7)" d="M 259.856019 128.046109 
L 295.435928 127.93777 
L 298.805237 127.725944 
L 300.287734 127.364403 
L 302.578864 126.550032 
L 303.791816 125.881501 
L 304.60045 125.225486 
L 305.543857 124.145966 
L 306.89158 122.220133 
L 308.643621 119.338314 
L 309.317483 117.853112 
L 309.991345 115.837921 
L 311.069524 111.686171 
L 312.686793 104.558905 
L 314.573606 94.773443 
L 316.325647 85.112932 
L 320.907908 58.400386 
L 321.851315 54.272289 
L 322.929494 50.569476 
L 324.142445 47.091682 
L 324.681535 46.135748 
L 324.95108 45.960291 
L 325.220625 46.044407 
L 325.490169 46.405542 
L 325.894486 47.424979 
L 326.837893 50.87931 
L 327.646527 53.422716 
L 328.724706 56.713402 
L 329.533341 60.129117 
L 330.746292 66.293657 
L 332.363561 75.785147 
L 333.711285 84.903882 
L 335.598098 97.978599 
L 336.541505 102.92 
L 337.484911 106.637149 
L 340.988993 118.523652 
L 341.9324 120.593694 
L 343.145351 122.657187 
L 344.223531 124.124781 
L 345.166937 125.038864 
L 347.188523 126.495419 
L 348.13193 126.920191 
L 349.614426 127.250522 
L 352.040329 127.649289 
L 355.948728 127.98124 
L 394.493629 128.046109 
L 394.493629 128.046109 
" style="fill:none;stroke:#6495ed;stroke-linecap:square;stroke-width:1.5;"/>
   </g>
   <g id="patch_8">
    <path d="M 297.56295 132.1504 
L 297.56295 41.856 
" style="fill:none;"/>
   </g>
   <g id="patch_9">
    <path d="M 387.85735 132.1504 
L 387.85735 41.856 
" style="fill:none;"/>
   </g>
   <g id="patch_10">
    <path d="M 297.56295 133.053344 
L 387.85735 133.053344 
" style="fill:none;stroke:#808080;stroke-linecap:square;stroke-linejoin:miter;stroke-width:0.8;"/>
   </g>
   <g id="patch_11">
    <path d="M 297.56295 41.856 
L 387.85735 41.856 
" style="fill:none;"/>
   </g>
   <g id="text_12">
    <!-- Median: -0.39 -->
    <defs>
     <path d="M 9.8125 72.90625 
L 24.515625 72.90625 
L 43.109375 23.296875 
L 61.8125 72.90625 
L 76.515625 72.90625 
L 76.515625 0 
L 66.890625 0 
L 66.890625 64.015625 
L 48.09375 14.015625 
L 38.1875 14.015625 
L 19.390625 64.015625 
L 19.390625 0 
L 9.8125 0 
z
" id="DejaVuSans-77"/>
     <path d="M 45.40625 46.390625 
L 45.40625 75.984375 
L 54.390625 75.984375 
L 54.390625 0 
L 45.40625 0 
L 45.40625 8.203125 
Q 42.578125 3.328125 38.25 0.953125 
Q 33.9375 -1.421875 27.875 -1.421875 
Q 17.96875 -1.421875 11.734375 6.484375 
Q 5.515625 14.40625 5.515625 27.296875 
Q 5.515625 40.1875 11.734375 48.09375 
Q 17.96875 56 27.875 56 
Q 33.9375 56 38.25 53.625 
Q 42.578125 51.265625 45.40625 46.390625 
z
M 14.796875 27.296875 
Q 14.796875 17.390625 18.875 11.75 
Q 22.953125 6.109375 30.078125 6.109375 
Q 37.203125 6.109375 41.296875 11.75 
Q 45.40625 17.390625 45.40625 27.296875 
Q 45.40625 37.203125 41.296875 42.84375 
Q 37.203125 48.484375 30.078125 48.484375 
Q 22.953125 48.484375 18.875 42.84375 
Q 14.796875 37.203125 14.796875 27.296875 
z
" id="DejaVuSans-100"/>
     <path d="M 11.71875 12.40625 
L 22.015625 12.40625 
L 22.015625 0 
L 11.71875 0 
z
M 11.71875 51.703125 
L 22.015625 51.703125 
L 22.015625 39.3125 
L 11.71875 39.3125 
z
" id="DejaVuSans-58"/>
     <path d="M 40.578125 39.3125 
Q 47.65625 37.796875 51.625 33 
Q 55.609375 28.21875 55.609375 21.1875 
Q 55.609375 10.40625 48.1875 4.484375 
Q 40.765625 -1.421875 27.09375 -1.421875 
Q 22.515625 -1.421875 17.65625 -0.515625 
Q 12.796875 0.390625 7.625 2.203125 
L 7.625 11.71875 
Q 11.71875 9.328125 16.59375 8.109375 
Q 21.484375 6.890625 26.8125 6.890625 
Q 36.078125 6.890625 40.9375 10.546875 
Q 45.796875 14.203125 45.796875 21.1875 
Q 45.796875 27.640625 41.28125 31.265625 
Q 36.765625 34.90625 28.71875 34.90625 
L 20.21875 34.90625 
L 20.21875 43.015625 
L 29.109375 43.015625 
Q 36.375 43.015625 40.234375 45.921875 
Q 44.09375 48.828125 44.09375 54.296875 
Q 44.09375 59.90625 40.109375 62.90625 
Q 36.140625 65.921875 28.71875 65.921875 
Q 24.65625 65.921875 20.015625 65.03125 
Q 15.375 64.15625 9.8125 62.3125 
L 9.8125 71.09375 
Q 15.4375 72.65625 20.34375 73.4375 
Q 25.25 74.21875 29.59375 74.21875 
Q 40.828125 74.21875 47.359375 69.109375 
Q 53.90625 64.015625 53.90625 55.328125 
Q 53.90625 49.265625 50.4375 45.09375 
Q 46.96875 40.921875 40.578125 39.3125 
z
" id="DejaVuSans-51"/>
     <path d="M 10.984375 1.515625 
L 10.984375 10.5 
Q 14.703125 8.734375 18.5 7.8125 
Q 22.3125 6.890625 25.984375 6.890625 
Q 35.75 6.890625 40.890625 13.453125 
Q 46.046875 20.015625 46.78125 33.40625 
Q 43.953125 29.203125 39.59375 26.953125 
Q 35.25 24.703125 29.984375 24.703125 
Q 19.046875 24.703125 12.671875 31.3125 
Q 6.296875 37.9375 6.296875 49.421875 
Q 6.296875 60.640625 12.9375 67.421875 
Q 19.578125 74.21875 30.609375 74.21875 
Q 43.265625 74.21875 49.921875 64.515625 
Q 56.59375 54.828125 56.59375 36.375 
Q 56.59375 19.140625 48.40625 8.859375 
Q 40.234375 -1.421875 26.421875 -1.421875 
Q 22.703125 -1.421875 18.890625 -0.6875 
Q 15.09375 0.046875 10.984375 1.515625 
z
M 30.609375 32.421875 
Q 37.25 32.421875 41.125 36.953125 
Q 45.015625 41.5 45.015625 49.421875 
Q 45.015625 57.28125 41.125 61.84375 
Q 37.25 66.40625 30.609375 66.40625 
Q 23.96875 66.40625 20.09375 61.84375 
Q 16.21875 57.28125 16.21875 49.421875 
Q 16.21875 41.5 20.09375 36.953125 
Q 23.96875 32.421875 30.609375 32.421875 
z
" id="DejaVuSans-57"/>
    </defs>
    <g style="fill:#808080;" transform="translate(347.22487 58.485898)scale(0.1 -0.1)">
     <use xlink:href="#DejaVuSans-77"/>
     <use x="86.279297" xlink:href="#DejaVuSans-101"/>
     <use x="147.802734" xlink:href="#DejaVuSans-100"/>
     <use x="211.279297" xlink:href="#DejaVuSans-105"/>
     <use x="239.0625" xlink:href="#DejaVuSans-97"/>
     <use x="300.341797" xlink:href="#DejaVuSans-110"/>
     <use x="363.720703" xlink:href="#DejaVuSans-58"/>
     <use x="397.412109" xlink:href="#DejaVuSans-32"/>
     <use x="429.199219" xlink:href="#DejaVuSans-45"/>
     <use x="465.283203" xlink:href="#DejaVuSans-48"/>
     <use x="528.90625" xlink:href="#DejaVuSans-46"/>
     <use x="560.693359" xlink:href="#DejaVuSans-51"/>
     <use x="624.316406" xlink:href="#DejaVuSans-57"/>
    </g>
   </g>
   <g id="text_13">
    <!-- CI: [-0.68, -0.11] -->
    <defs>
     <path d="M 9.8125 72.90625 
L 19.671875 72.90625 
L 19.671875 0 
L 9.8125 0 
z
" id="DejaVuSans-73"/>
     <path d="M 8.59375 75.984375 
L 29.296875 75.984375 
L 29.296875 69 
L 17.578125 69 
L 17.578125 -6.203125 
L 29.296875 -6.203125 
L 29.296875 -13.1875 
L 8.59375 -13.1875 
z
" id="DejaVuSans-91"/>
     <path d="M 33.015625 40.375 
Q 26.375 40.375 22.484375 35.828125 
Q 18.609375 31.296875 18.609375 23.390625 
Q 18.609375 15.53125 22.484375 10.953125 
Q 26.375 6.390625 33.015625 6.390625 
Q 39.65625 6.390625 43.53125 10.953125 
Q 47.40625 15.53125 47.40625 23.390625 
Q 47.40625 31.296875 43.53125 35.828125 
Q 39.65625 40.375 33.015625 40.375 
z
M 52.59375 71.296875 
L 52.59375 62.3125 
Q 48.875 64.0625 45.09375 64.984375 
Q 41.3125 65.921875 37.59375 65.921875 
Q 27.828125 65.921875 22.671875 59.328125 
Q 17.53125 52.734375 16.796875 39.40625 
Q 19.671875 43.65625 24.015625 45.921875 
Q 28.375 48.1875 33.59375 48.1875 
Q 44.578125 48.1875 50.953125 41.515625 
Q 57.328125 34.859375 57.328125 23.390625 
Q 57.328125 12.15625 50.6875 5.359375 
Q 44.046875 -1.421875 33.015625 -1.421875 
Q 20.359375 -1.421875 13.671875 8.265625 
Q 6.984375 17.96875 6.984375 36.375 
Q 6.984375 53.65625 15.1875 63.9375 
Q 23.390625 74.21875 37.203125 74.21875 
Q 40.921875 74.21875 44.703125 73.484375 
Q 48.484375 72.75 52.59375 71.296875 
z
" id="DejaVuSans-54"/>
     <path d="M 31.78125 34.625 
Q 24.75 34.625 20.71875 30.859375 
Q 16.703125 27.09375 16.703125 20.515625 
Q 16.703125 13.921875 20.71875 10.15625 
Q 24.75 6.390625 31.78125 6.390625 
Q 38.8125 6.390625 42.859375 10.171875 
Q 46.921875 13.96875 46.921875 20.515625 
Q 46.921875 27.09375 42.890625 30.859375 
Q 38.875 34.625 31.78125 34.625 
z
M 21.921875 38.8125 
Q 15.578125 40.375 12.03125 44.71875 
Q 8.5 49.078125 8.5 55.328125 
Q 8.5 64.0625 14.71875 69.140625 
Q 20.953125 74.21875 31.78125 74.21875 
Q 42.671875 74.21875 48.875 69.140625 
Q 55.078125 64.0625 55.078125 55.328125 
Q 55.078125 49.078125 51.53125 44.71875 
Q 48 40.375 41.703125 38.8125 
Q 48.828125 37.15625 52.796875 32.3125 
Q 56.78125 27.484375 56.78125 20.515625 
Q 56.78125 9.90625 50.3125 4.234375 
Q 43.84375 -1.421875 31.78125 -1.421875 
Q 19.734375 -1.421875 13.25 4.234375 
Q 6.78125 9.90625 6.78125 20.515625 
Q 6.78125 27.484375 10.78125 32.3125 
Q 14.796875 37.15625 21.921875 38.8125 
z
M 18.3125 54.390625 
Q 18.3125 48.734375 21.84375 45.5625 
Q 25.390625 42.390625 31.78125 42.390625 
Q 38.140625 42.390625 41.71875 45.5625 
Q 45.3125 48.734375 45.3125 54.390625 
Q 45.3125 60.0625 41.71875 63.234375 
Q 38.140625 66.40625 31.78125 66.40625 
Q 25.390625 66.40625 21.84375 63.234375 
Q 18.3125 60.0625 18.3125 54.390625 
z
" id="DejaVuSans-56"/>
     <path d="M 11.71875 12.40625 
L 22.015625 12.40625 
L 22.015625 4 
L 14.015625 -11.625 
L 7.71875 -11.625 
L 11.71875 4 
z
" id="DejaVuSans-44"/>
     <path d="M 30.421875 75.984375 
L 30.421875 -13.1875 
L 9.71875 -13.1875 
L 9.71875 -6.203125 
L 21.390625 -6.203125 
L 21.390625 69 
L 9.71875 69 
L 9.71875 75.984375 
z
" id="DejaVuSans-93"/>
    </defs>
    <g style="fill:#808080;" transform="translate(347.22487 79.353962)scale(0.1 -0.1)">
     <use xlink:href="#DejaVuSans-67"/>
     <use x="69.824219" xlink:href="#DejaVuSans-73"/>
     <use x="99.316406" xlink:href="#DejaVuSans-58"/>
     <use x="133.007812" xlink:href="#DejaVuSans-32"/>
     <use x="164.794922" xlink:href="#DejaVuSans-91"/>
     <use x="203.808594" xlink:href="#DejaVuSans-45"/>
     <use x="239.892578" xlink:href="#DejaVuSans-48"/>
     <use x="303.515625" xlink:href="#DejaVuSans-46"/>
     <use x="335.302734" xlink:href="#DejaVuSans-54"/>
     <use x="398.925781" xlink:href="#DejaVuSans-56"/>
     <use x="462.548828" xlink:href="#DejaVuSans-44"/>
     <use x="494.335938" xlink:href="#DejaVuSans-32"/>
     <use x="526.123047" xlink:href="#DejaVuSans-45"/>
     <use x="562.207031" xlink:href="#DejaVuSans-48"/>
     <use x="625.830078" xlink:href="#DejaVuSans-46"/>
     <use x="657.617188" xlink:href="#DejaVuSans-49"/>
     <use x="721.240234" xlink:href="#DejaVuSans-49"/>
     <use x="784.863281" xlink:href="#DejaVuSans-93"/>
    </g>
   </g>
   <g id="text_14">
    <!-- 98.8% &lt; 0 -->
    <defs>
     <path d="M 72.703125 32.078125 
Q 68.453125 32.078125 66.03125 28.46875 
Q 63.625 24.859375 63.625 18.40625 
Q 63.625 12.0625 66.03125 8.421875 
Q 68.453125 4.78125 72.703125 4.78125 
Q 76.859375 4.78125 79.265625 8.421875 
Q 81.6875 12.0625 81.6875 18.40625 
Q 81.6875 24.8125 79.265625 28.4375 
Q 76.859375 32.078125 72.703125 32.078125 
z
M 72.703125 38.28125 
Q 80.421875 38.28125 84.953125 32.90625 
Q 89.5 27.546875 89.5 18.40625 
Q 89.5 9.28125 84.9375 3.921875 
Q 80.375 -1.421875 72.703125 -1.421875 
Q 64.890625 -1.421875 60.34375 3.921875 
Q 55.8125 9.28125 55.8125 18.40625 
Q 55.8125 27.59375 60.375 32.9375 
Q 64.9375 38.28125 72.703125 38.28125 
z
M 22.3125 68.015625 
Q 18.109375 68.015625 15.6875 64.375 
Q 13.28125 60.75 13.28125 54.390625 
Q 13.28125 47.953125 15.671875 44.328125 
Q 18.0625 40.71875 22.3125 40.71875 
Q 26.5625 40.71875 28.96875 44.328125 
Q 31.390625 47.953125 31.390625 54.390625 
Q 31.390625 60.6875 28.953125 64.34375 
Q 26.515625 68.015625 22.3125 68.015625 
z
M 66.40625 74.21875 
L 74.21875 74.21875 
L 28.609375 -1.421875 
L 20.796875 -1.421875 
z
M 22.3125 74.21875 
Q 30.03125 74.21875 34.609375 68.875 
Q 39.203125 63.53125 39.203125 54.390625 
Q 39.203125 45.171875 34.640625 39.84375 
Q 30.078125 34.515625 22.3125 34.515625 
Q 14.546875 34.515625 10.03125 39.859375 
Q 5.515625 45.21875 5.515625 54.390625 
Q 5.515625 63.484375 10.046875 68.84375 
Q 14.59375 74.21875 22.3125 74.21875 
z
" id="DejaVuSans-37"/>
     <path d="M 73.1875 49.21875 
L 22.796875 31.296875 
L 73.1875 13.484375 
L 73.1875 4.59375 
L 10.59375 27.296875 
L 10.59375 35.40625 
L 73.1875 58.109375 
z
" id="DejaVuSans-60"/>
    </defs>
    <g style="fill:#808080;" transform="translate(347.22487 68.91993)scale(0.1 -0.1)">
     <use xlink:href="#DejaVuSans-57"/>
     <use x="63.623047" xlink:href="#DejaVuSans-56"/>
     <use x="127.246094" xlink:href="#DejaVuSans-46"/>
     <use x="159.033203" xlink:href="#DejaVuSans-56"/>
     <use x="222.65625" xlink:href="#DejaVuSans-37"/>
     <use x="317.675781" xlink:href="#DejaVuSans-32"/>
     <use x="349.462891" xlink:href="#DejaVuSans-60"/>
     <use x="433.251953" xlink:href="#DejaVuSans-32"/>
     <use x="465.039062" xlink:href="#DejaVuSans-48"/>
    </g>
   </g>
   <g id="text_15">
    <!-- Posterior -->
    <defs>
     <path d="M 41.109375 46.296875 
Q 39.59375 47.171875 37.8125 47.578125 
Q 36.03125 48 33.890625 48 
Q 26.265625 48 22.1875 43.046875 
Q 18.109375 38.09375 18.109375 28.8125 
L 18.109375 0 
L 9.078125 0 
L 9.078125 54.6875 
L 18.109375 54.6875 
L 18.109375 46.1875 
Q 20.953125 51.171875 25.484375 53.578125 
Q 30.03125 56 36.53125 56 
Q 37.453125 56 38.578125 55.875 
Q 39.703125 55.765625 41.0625 55.515625 
z
" id="DejaVuSans-114"/>
    </defs>
    <g style="fill:#808080;" transform="translate(315.982962 22.418625)scale(0.12 -0.12)">
     <use xlink:href="#DejaVuSans-80"/>
     <use x="60.255859" xlink:href="#DejaVuSans-111"/>
     <use x="121.4375" xlink:href="#DejaVuSans-115"/>
     <use x="173.537109" xlink:href="#DejaVuSans-116"/>
     <use x="212.746094" xlink:href="#DejaVuSans-101"/>
     <use x="274.269531" xlink:href="#DejaVuSans-114"/>
     <use x="315.382812" xlink:href="#DejaVuSans-105"/>
     <use x="343.166016" xlink:href="#DejaVuSans-111"/>
     <use x="404.347656" xlink:href="#DejaVuSans-114"/>
    </g>
    <!-- (Disp PC-within) -->
    <g style="fill:#808080;" transform="translate(294.729838 35.856)scale(0.12 -0.12)">
     <use xlink:href="#DejaVuSans-40"/>
     <use x="39.013672" xlink:href="#DejaVuSans-68"/>
     <use x="116.015625" xlink:href="#DejaVuSans-105"/>
     <use x="143.798828" xlink:href="#DejaVuSans-115"/>
     <use x="195.898438" xlink:href="#DejaVuSans-112"/>
     <use x="259.375" xlink:href="#DejaVuSans-32"/>
     <use x="291.162109" xlink:href="#DejaVuSans-80"/>
     <use x="351.464844" xlink:href="#DejaVuSans-67"/>
     <use x="421.289062" xlink:href="#DejaVuSans-45"/>
     <use x="457.373047" xlink:href="#DejaVuSans-119"/>
     <use x="539.160156" xlink:href="#DejaVuSans-105"/>
     <use x="566.943359" xlink:href="#DejaVuSans-116"/>
     <use x="606.152344" xlink:href="#DejaVuSans-104"/>
     <use x="669.53125" xlink:href="#DejaVuSans-105"/>
     <use x="697.314453" xlink:href="#DejaVuSans-110"/>
     <use x="760.693359" xlink:href="#DejaVuSans-41"/>
    </g>
   </g>
  </g>
  <g id="axes_3">
   <g id="patch_12">
    <path d="M 86.93425 299.5504 
L 177.22865 299.5504 
L 177.22865 209.256 
L 86.93425 209.256 
z
" style="fill:#ffffff;"/>
   </g>
   <g id="PathCollection_2">
    <g clip-path="url(#pd153fe40d1)">
     <use style="fill:#6495ed;stroke:#6495ed;" x="118.548153" xlink:href="#m6e98a2c131" y="233.285439"/>
     <use style="fill:#6495ed;stroke:#6495ed;" x="145.937414" xlink:href="#m6e98a2c131" y="229.466379"/>
     <use style="fill:#6495ed;stroke:#6495ed;" x="128.135713" xlink:href="#m6e98a2c131" y="253.81386"/>
     <use style="fill:#6495ed;stroke:#6495ed;" x="150.461075" xlink:href="#m6e98a2c131" y="269.870126"/>
     <use style="fill:#6495ed;stroke:#6495ed;" x="154.800052" xlink:href="#m6e98a2c131" y="250.296396"/>
     <use style="fill:#6495ed;stroke:#6495ed;" x="132.005179" xlink:href="#m6e98a2c131" y="245.192329"/>
     <use style="fill:#6495ed;stroke:#6495ed;" x="137.072984" xlink:href="#m6e98a2c131" y="268.759785"/>
     <use style="fill:#6495ed;stroke:#6495ed;" x="101.094443" xlink:href="#m6e98a2c131" y="219.159301"/>
     <use style="fill:#6495ed;stroke:#6495ed;" x="147.604049" xlink:href="#m6e98a2c131" y="213.531618"/>
     <use style="fill:#6495ed;stroke:#6495ed;" x="141.905512" xlink:href="#m6e98a2c131" y="224.289772"/>
     <use style="fill:#6495ed;stroke:#6495ed;" x="150.876607" xlink:href="#m6e98a2c131" y="222.910862"/>
     <use style="fill:#6495ed;stroke:#6495ed;" x="138.825875" xlink:href="#m6e98a2c131" y="237.705216"/>
     <use style="fill:#6495ed;stroke:#6495ed;" x="134.290372" xlink:href="#m6e98a2c131" y="230.671905"/>
     <use style="fill:#6495ed;stroke:#6495ed;" x="131.920988" xlink:href="#m6e98a2c131" y="242.91204"/>
     <use style="fill:#6495ed;stroke:#6495ed;" x="143.406116" xlink:href="#m6e98a2c131" y="231.996283"/>
     <use style="fill:#6495ed;stroke:#6495ed;" x="133.966348" xlink:href="#m6e98a2c131" y="246.00641"/>
     <use style="fill:#6495ed;stroke:#6495ed;" x="136.010544" xlink:href="#m6e98a2c131" y="295.274782"/>
     <use style="fill:#6495ed;stroke:#6495ed;" x="143.51759" xlink:href="#m6e98a2c131" y="250.897996"/>
     <use style="fill:#6495ed;stroke:#6495ed;" x="142.259016" xlink:href="#m6e98a2c131" y="250.785784"/>
     <use style="fill:#6495ed;stroke:#6495ed;" x="120.713322" xlink:href="#m6e98a2c131" y="233.061558"/>
     <use style="fill:#6495ed;stroke:#6495ed;" x="91.153975" xlink:href="#m6e98a2c131" y="253.45583"/>
     <use style="fill:#6495ed;stroke:#6495ed;" x="173.008925" xlink:href="#m6e98a2c131" y="231.996283"/>
     <use style="fill:#6495ed;stroke:#6495ed;" x="146.664313" xlink:href="#m6e98a2c131" y="278.329927"/>
     <use style="fill:#6495ed;stroke:#6495ed;" x="153.791984" xlink:href="#m6e98a2c131" y="246.758051"/>
     <use style="fill:#6495ed;stroke:#6495ed;" x="146.497625" xlink:href="#m6e98a2c131" y="239.96132"/>
     <use style="fill:#6495ed;stroke:#6495ed;" x="133.456274" xlink:href="#m6e98a2c131" y="264.864142"/>
     <use style="fill:#6495ed;stroke:#6495ed;" x="171.277936" xlink:href="#m6e98a2c131" y="236.902772"/>
     <use style="fill:#6495ed;stroke:#6495ed;" x="122.385585" xlink:href="#m6e98a2c131" y="224.416523"/>
     <use style="fill:#6495ed;stroke:#6495ed;" x="137.697259" xlink:href="#m6e98a2c131" y="237.738333"/>
     <use style="fill:#6495ed;stroke:#6495ed;" x="117.36344" xlink:href="#m6e98a2c131" y="276.938963"/>
     <use style="fill:#6495ed;stroke:#6495ed;" x="146.130051" xlink:href="#m6e98a2c131" y="246.344133"/>
     <use style="fill:#6495ed;stroke:#6495ed;" x="150.690667" xlink:href="#m6e98a2c131" y="246.096059"/>
     <use style="fill:#6495ed;stroke:#6495ed;" x="127.691359" xlink:href="#m6e98a2c131" y="257.49324"/>
     <use style="fill:#6495ed;stroke:#6495ed;" x="171.716033" xlink:href="#m6e98a2c131" y="280.484154"/>
     <use style="fill:#6495ed;stroke:#6495ed;" x="154.167444" xlink:href="#m6e98a2c131" y="236.902772"/>
     <use style="fill:#6495ed;stroke:#6495ed;" x="137.23732" xlink:href="#m6e98a2c131" y="260.051434"/>
     <use style="fill:#6495ed;stroke:#6495ed;" x="136.083882" xlink:href="#m6e98a2c131" y="251.955126"/>
     <use style="fill:#6495ed;stroke:#6495ed;" x="151.973211" xlink:href="#m6e98a2c131" y="229.816324"/>
     <use style="fill:#6495ed;stroke:#6495ed;" x="134.901098" xlink:href="#m6e98a2c131" y="248.420454"/>
     <use style="fill:#6495ed;stroke:#6495ed;" x="136.951503" xlink:href="#m6e98a2c131" y="227.952691"/>
     <use style="fill:#6495ed;stroke:#6495ed;" x="148.400933" xlink:href="#m6e98a2c131" y="234.366721"/>
     <use style="fill:#6495ed;stroke:#6495ed;" x="130.705236" xlink:href="#m6e98a2c131" y="273.374438"/>
     <use style="fill:#6495ed;stroke:#6495ed;" x="169.735805" xlink:href="#m6e98a2c131" y="222.678398"/>
     <use style="fill:#6495ed;stroke:#6495ed;" x="157.096445" xlink:href="#m6e98a2c131" y="233.800514"/>
    </g>
   </g>
   <g id="matplotlib.axis_5">
    <g id="xtick_7">
     <g id="line2d_10">
      <g>
       <use style="stroke:#000000;stroke-width:0.8;" x="107.538112" xlink:href="#mf32974e1e2" y="300.453344"/>
      </g>
     </g>
     <g id="text_16">
      <!-- -2.0 -->
      <g style="fill:#808080;" transform="translate(97.782644 315.051781)scale(0.1 -0.1)">
       <use xlink:href="#DejaVuSans-45"/>
       <use x="36.083984" xlink:href="#DejaVuSans-50"/>
       <use x="99.707031" xlink:href="#DejaVuSans-46"/>
       <use x="131.494141" xlink:href="#DejaVuSans-48"/>
      </g>
     </g>
    </g>
    <g id="xtick_8">
     <g id="line2d_11">
      <g>
       <use style="stroke:#000000;stroke-width:0.8;" x="140.457492" xlink:href="#mf32974e1e2" y="300.453344"/>
      </g>
     </g>
     <g id="text_17">
      <!-- 0.0 -->
      <g style="fill:#808080;" transform="translate(132.50593 315.051781)scale(0.1 -0.1)">
       <use xlink:href="#DejaVuSans-48"/>
       <use x="63.623047" xlink:href="#DejaVuSans-46"/>
       <use x="95.410156" xlink:href="#DejaVuSans-48"/>
      </g>
     </g>
    </g>
    <g id="xtick_9">
     <g id="line2d_12">
      <g>
       <use style="stroke:#000000;stroke-width:0.8;" x="173.376872" xlink:href="#mf32974e1e2" y="300.453344"/>
      </g>
     </g>
     <g id="text_18">
      <!-- 2.0 -->
      <g style="fill:#808080;" transform="translate(165.425309 315.051781)scale(0.1 -0.1)">
       <use xlink:href="#DejaVuSans-50"/>
       <use x="63.623047" xlink:href="#DejaVuSans-46"/>
       <use x="95.410156" xlink:href="#DejaVuSans-48"/>
      </g>
     </g>
    </g>
    <g id="text_19">
     <!-- Displacement PC-outside (z) -->
     <g style="fill:#808080;" transform="translate(61.261138 328.729906)scale(0.1 -0.1)">
      <use xlink:href="#DejaVuSans-68"/>
      <use x="77.001953" xlink:href="#DejaVuSans-105"/>
      <use x="104.785156" xlink:href="#DejaVuSans-115"/>
      <use x="156.884766" xlink:href="#DejaVuSans-112"/>
      <use x="220.361328" xlink:href="#DejaVuSans-108"/>
      <use x="248.144531" xlink:href="#DejaVuSans-97"/>
      <use x="309.423828" xlink:href="#DejaVuSans-99"/>
      <use x="364.404297" xlink:href="#DejaVuSans-101"/>
      <use x="425.927734" xlink:href="#DejaVuSans-109"/>
      <use x="523.339844" xlink:href="#DejaVuSans-101"/>
      <use x="584.863281" xlink:href="#DejaVuSans-110"/>
      <use x="648.242188" xlink:href="#DejaVuSans-116"/>
      <use x="687.451172" xlink:href="#DejaVuSans-32"/>
      <use x="719.238281" xlink:href="#DejaVuSans-80"/>
      <use x="779.541016" xlink:href="#DejaVuSans-67"/>
      <use x="849.365234" xlink:href="#DejaVuSans-45"/>
      <use x="885.464844" xlink:href="#DejaVuSans-111"/>
      <use x="946.646484" xlink:href="#DejaVuSans-117"/>
      <use x="1010.025391" xlink:href="#DejaVuSans-116"/>
      <use x="1049.234375" xlink:href="#DejaVuSans-115"/>
      <use x="1101.333984" xlink:href="#DejaVuSans-105"/>
      <use x="1129.117188" xlink:href="#DejaVuSans-100"/>
      <use x="1192.59375" xlink:href="#DejaVuSans-101"/>
      <use x="1254.117188" xlink:href="#DejaVuSans-32"/>
      <use x="1285.904297" xlink:href="#DejaVuSans-40"/>
      <use x="1324.917969" xlink:href="#DejaVuSans-122"/>
      <use x="1377.408203" xlink:href="#DejaVuSans-41"/>
     </g>
    </g>
   </g>
   <g id="matplotlib.axis_6">
    <g id="ytick_3">
     <g id="line2d_13">
      <g>
       <use style="stroke:#000000;stroke-width:0.8;" x="86.031306" xlink:href="#mb0d5231146" y="281.65748"/>
      </g>
     </g>
     <g id="text_20">
      <!-- -2.0 -->
      <g style="fill:#808080;" transform="translate(59.520369 285.456699)scale(0.1 -0.1)">
       <use xlink:href="#DejaVuSans-45"/>
       <use x="36.083984" xlink:href="#DejaVuSans-50"/>
       <use x="99.707031" xlink:href="#DejaVuSans-46"/>
       <use x="131.494141" xlink:href="#DejaVuSans-48"/>
      </g>
     </g>
    </g>
    <g id="ytick_4">
     <g id="line2d_14">
      <g>
       <use style="stroke:#000000;stroke-width:0.8;" x="86.031306" xlink:href="#mb0d5231146" y="245.249692"/>
      </g>
     </g>
     <g id="text_21">
      <!-- -1.0 -->
      <g style="fill:#808080;" transform="translate(59.520369 249.048911)scale(0.1 -0.1)">
       <use xlink:href="#DejaVuSans-45"/>
       <use x="36.083984" xlink:href="#DejaVuSans-49"/>
       <use x="99.707031" xlink:href="#DejaVuSans-46"/>
       <use x="131.494141" xlink:href="#DejaVuSans-48"/>
      </g>
     </g>
    </g>
    <g id="text_22">
     <!-- PC stimulation site (z) -->
     <g style="fill:#808080;" transform="translate(53.440681 309.256325)rotate(-90)scale(0.1 -0.1)">
      <use xlink:href="#DejaVuSans-80"/>
      <use x="60.302734" xlink:href="#DejaVuSans-67"/>
      <use x="130.126953" xlink:href="#DejaVuSans-32"/>
      <use x="161.914062" xlink:href="#DejaVuSans-115"/>
      <use x="214.013672" xlink:href="#DejaVuSans-116"/>
      <use x="253.222656" xlink:href="#DejaVuSans-105"/>
      <use x="281.005859" xlink:href="#DejaVuSans-109"/>
      <use x="378.417969" xlink:href="#DejaVuSans-117"/>
      <use x="441.796875" xlink:href="#DejaVuSans-108"/>
      <use x="469.580078" xlink:href="#DejaVuSans-97"/>
      <use x="530.859375" xlink:href="#DejaVuSans-116"/>
      <use x="570.068359" xlink:href="#DejaVuSans-105"/>
      <use x="597.851562" xlink:href="#DejaVuSans-111"/>
      <use x="659.033203" xlink:href="#DejaVuSans-110"/>
      <use x="722.412109" xlink:href="#DejaVuSans-32"/>
      <use x="754.199219" xlink:href="#DejaVuSans-115"/>
      <use x="806.298828" xlink:href="#DejaVuSans-105"/>
      <use x="834.082031" xlink:href="#DejaVuSans-116"/>
      <use x="873.291016" xlink:href="#DejaVuSans-101"/>
      <use x="934.814453" xlink:href="#DejaVuSans-32"/>
      <use x="966.601562" xlink:href="#DejaVuSans-40"/>
      <use x="1005.615234" xlink:href="#DejaVuSans-122"/>
      <use x="1058.105469" xlink:href="#DejaVuSans-41"/>
     </g>
    </g>
   </g>
   <g id="patch_13">
    <path d="M 86.031306 299.5504 
L 86.031306 209.256 
" style="fill:none;stroke:#808080;stroke-linecap:square;stroke-linejoin:miter;stroke-width:0.8;"/>
   </g>
   <g id="patch_14">
    <path d="M 177.22865 299.5504 
L 177.22865 209.256 
" style="fill:none;"/>
   </g>
   <g id="patch_15">
    <path d="M 86.93425 300.453344 
L 177.22865 300.453344 
" style="fill:none;stroke:#808080;stroke-linecap:square;stroke-linejoin:miter;stroke-width:0.8;"/>
   </g>
   <g id="patch_16">
    <path d="M 86.93425 209.256 
L 177.22865 209.256 
" style="fill:none;"/>
   </g>
  </g>
  <g id="axes_4">
   <g id="patch_17">
    <path d="M 297.56295 299.5504 
L 387.85735 299.5504 
L 387.85735 209.256 
L 297.56295 209.256 
z
" style="fill:#ffffff;"/>
   </g>
   <g id="matplotlib.axis_7">
    <g id="xtick_10">
     <g id="line2d_15">
      <g>
       <use style="stroke:#000000;stroke-width:0.8;" x="297.56295" xlink:href="#mf32974e1e2" y="300.453344"/>
      </g>
     </g>
     <g id="text_23">
      <!-- -1 -->
      <g style="fill:#808080;" transform="translate(292.577794 315.051781)scale(0.1 -0.1)">
       <use xlink:href="#DejaVuSans-45"/>
       <use x="36.083984" xlink:href="#DejaVuSans-49"/>
      </g>
     </g>
    </g>
    <g id="xtick_11">
     <g id="line2d_16">
      <g>
       <use style="stroke:#000000;stroke-width:0.8;" x="342.71015" xlink:href="#mf32974e1e2" y="300.453344"/>
      </g>
     </g>
     <g id="text_24">
      <!-- 0 -->
      <g style="fill:#808080;" transform="translate(339.5289 315.051781)scale(0.1 -0.1)">
       <use xlink:href="#DejaVuSans-48"/>
      </g>
     </g>
    </g>
    <g id="xtick_12">
     <g id="line2d_17">
      <g>
       <use style="stroke:#000000;stroke-width:0.8;" x="387.85735" xlink:href="#mf32974e1e2" y="300.453344"/>
      </g>
     </g>
     <g id="text_25">
      <!-- 1 -->
      <g style="fill:#808080;" transform="translate(384.6761 315.051781)scale(0.1 -0.1)">
       <use xlink:href="#DejaVuSans-49"/>
      </g>
     </g>
    </g>
    <g id="text_26">
     <!-- $\beta$ -->
     <g style="fill:#808080;" transform="translate(339.51015 328.831469)scale(0.1 -0.1)">
      <use transform="translate(0 0.390625)" xlink:href="#DejaVuSans-Oblique-946"/>
     </g>
    </g>
   </g>
   <g id="matplotlib.axis_8"/>
   <g id="line2d_18">
    <path clip-path="url(#p089adb7709)" d="M 282.454481 295.446109 
L 324.446484 295.33765 
L 329.237518 295.085517 
L 330.505733 294.798685 
L 332.055773 294.198591 
L 333.464901 293.427601 
L 334.310377 292.712162 
L 335.155854 291.694404 
L 336.424069 289.751614 
L 337.833196 287.190848 
L 338.960498 284.659716 
L 340.369626 280.843211 
L 341.215103 278.03354 
L 342.060579 274.307835 
L 345.019747 259.141428 
L 347.69709 243.525824 
L 350.233519 229.929517 
L 351.501734 223.804934 
L 353.051775 215.659092 
L 353.615426 214.020705 
L 354.038164 213.463544 
L 354.319989 213.360291 
L 354.742728 213.484036 
L 355.447291 214.050341 
L 356.151855 214.853166 
L 356.715506 215.79646 
L 357.42007 217.499176 
L 358.124634 219.821488 
L 358.829198 222.870876 
L 359.674674 227.652431 
L 360.942889 236.550337 
L 363.620232 255.637481 
L 364.606621 260.823031 
L 367.143051 271.974063 
L 369.115829 279.321889 
L 370.384044 283.334761 
L 371.934084 287.512354 
L 373.061387 289.921393 
L 373.906863 291.301656 
L 374.611427 292.106304 
L 375.456903 292.732444 
L 378.556984 294.498923 
L 379.966112 294.904963 
L 381.375239 295.09628 
L 389.407267 295.432568 
L 397.157469 295.446109 
L 423.226329 295.446109 
L 423.226329 295.446109 
" style="fill:none;stroke:#6495ed;stroke-linecap:square;stroke-width:1.5;"/>
   </g>
   <g id="patch_18">
    <path d="M 297.56295 299.5504 
L 297.56295 209.256 
" style="fill:none;"/>
   </g>
   <g id="patch_19">
    <path d="M 387.85735 299.5504 
L 387.85735 209.256 
" style="fill:none;"/>
   </g>
   <g id="patch_20">
    <path d="M 297.56295 300.453344 
L 387.85735 300.453344 
" style="fill:none;stroke:#808080;stroke-linecap:square;stroke-linejoin:miter;stroke-width:0.8;"/>
   </g>
   <g id="patch_21">
    <path d="M 297.56295 209.256 
L 387.85735 209.256 
" style="fill:none;"/>
   </g>
   <g id="text_27">
    <!-- Median: 0.27 -->
    <defs>
     <path d="M 8.203125 72.90625 
L 55.078125 72.90625 
L 55.078125 68.703125 
L 28.609375 0 
L 18.3125 0 
L 43.21875 64.59375 
L 8.203125 64.59375 
z
" id="DejaVuSans-55"/>
    </defs>
    <g style="fill:#808080;" transform="translate(274.98935 225.465594)scale(0.1 -0.1)">
     <use xlink:href="#DejaVuSans-77"/>
     <use x="86.279297" xlink:href="#DejaVuSans-101"/>
     <use x="147.802734" xlink:href="#DejaVuSans-100"/>
     <use x="211.279297" xlink:href="#DejaVuSans-105"/>
     <use x="239.0625" xlink:href="#DejaVuSans-97"/>
     <use x="300.341797" xlink:href="#DejaVuSans-110"/>
     <use x="363.720703" xlink:href="#DejaVuSans-58"/>
     <use x="397.412109" xlink:href="#DejaVuSans-32"/>
     <use x="429.199219" xlink:href="#DejaVuSans-48"/>
     <use x="492.822266" xlink:href="#DejaVuSans-46"/>
     <use x="524.609375" xlink:href="#DejaVuSans-50"/>
     <use x="588.232422" xlink:href="#DejaVuSans-55"/>
    </g>
   </g>
   <g id="text_28">
    <!-- CI: [-0.02, 0.56] -->
    <defs>
     <path d="M 10.796875 72.90625 
L 49.515625 72.90625 
L 49.515625 64.59375 
L 19.828125 64.59375 
L 19.828125 46.734375 
Q 21.96875 47.46875 24.109375 47.828125 
Q 26.265625 48.1875 28.421875 48.1875 
Q 40.625 48.1875 47.75 41.5 
Q 54.890625 34.8125 54.890625 23.390625 
Q 54.890625 11.625 47.5625 5.09375 
Q 40.234375 -1.421875 26.90625 -1.421875 
Q 22.3125 -1.421875 17.546875 -0.640625 
Q 12.796875 0.140625 7.71875 1.703125 
L 7.71875 11.625 
Q 12.109375 9.234375 16.796875 8.0625 
Q 21.484375 6.890625 26.703125 6.890625 
Q 35.15625 6.890625 40.078125 11.328125 
Q 45.015625 15.765625 45.015625 23.390625 
Q 45.015625 31 40.078125 35.4375 
Q 35.15625 39.890625 26.703125 39.890625 
Q 22.75 39.890625 18.8125 39.015625 
Q 14.890625 38.140625 10.796875 36.28125 
z
" id="DejaVuSans-53"/>
    </defs>
    <g style="fill:#808080;" transform="translate(274.98935 246.459748)scale(0.1 -0.1)">
     <use xlink:href="#DejaVuSans-67"/>
     <use x="69.824219" xlink:href="#DejaVuSans-73"/>
     <use x="99.316406" xlink:href="#DejaVuSans-58"/>
     <use x="133.007812" xlink:href="#DejaVuSans-32"/>
     <use x="164.794922" xlink:href="#DejaVuSans-91"/>
     <use x="203.808594" xlink:href="#DejaVuSans-45"/>
     <use x="239.892578" xlink:href="#DejaVuSans-48"/>
     <use x="303.515625" xlink:href="#DejaVuSans-46"/>
     <use x="335.302734" xlink:href="#DejaVuSans-48"/>
     <use x="398.925781" xlink:href="#DejaVuSans-50"/>
     <use x="462.548828" xlink:href="#DejaVuSans-44"/>
     <use x="494.335938" xlink:href="#DejaVuSans-32"/>
     <use x="526.123047" xlink:href="#DejaVuSans-48"/>
     <use x="589.746094" xlink:href="#DejaVuSans-46"/>
     <use x="621.533203" xlink:href="#DejaVuSans-53"/>
     <use x="685.15625" xlink:href="#DejaVuSans-54"/>
     <use x="748.779297" xlink:href="#DejaVuSans-93"/>
    </g>
   </g>
   <g id="text_29">
    <!-- 93.9% &gt; 0 -->
    <defs>
     <path d="M 10.59375 49.21875 
L 10.59375 58.109375 
L 73.1875 35.40625 
L 73.1875 27.296875 
L 10.59375 4.59375 
L 10.59375 13.484375 
L 60.890625 31.296875 
z
" id="DejaVuSans-62"/>
    </defs>
    <g style="fill:#808080;" transform="translate(274.98935 235.962671)scale(0.1 -0.1)">
     <use xlink:href="#DejaVuSans-57"/>
     <use x="63.623047" xlink:href="#DejaVuSans-51"/>
     <use x="127.246094" xlink:href="#DejaVuSans-46"/>
     <use x="159.033203" xlink:href="#DejaVuSans-57"/>
     <use x="222.65625" xlink:href="#DejaVuSans-37"/>
     <use x="317.675781" xlink:href="#DejaVuSans-32"/>
     <use x="349.462891" xlink:href="#DejaVuSans-62"/>
     <use x="433.251953" xlink:href="#DejaVuSans-32"/>
     <use x="465.039062" xlink:href="#DejaVuSans-48"/>
    </g>
   </g>
   <g id="text_30">
    <!-- Posterior -->
    <g style="fill:#808080;" transform="translate(315.982962 189.818625)scale(0.12 -0.12)">
     <use xlink:href="#DejaVuSans-80"/>
     <use x="60.255859" xlink:href="#DejaVuSans-111"/>
     <use x="121.4375" xlink:href="#DejaVuSans-115"/>
     <use x="173.537109" xlink:href="#DejaVuSans-116"/>
     <use x="212.746094" xlink:href="#DejaVuSans-101"/>
     <use x="274.269531" xlink:href="#DejaVuSans-114"/>
     <use x="315.382812" xlink:href="#DejaVuSans-105"/>
     <use x="343.166016" xlink:href="#DejaVuSans-111"/>
     <use x="404.347656" xlink:href="#DejaVuSans-114"/>
    </g>
    <!-- (Disp PC-outside) -->
    <g style="fill:#808080;" transform="translate(290.807338 203.256)scale(0.12 -0.12)">
     <use xlink:href="#DejaVuSans-40"/>
     <use x="39.013672" xlink:href="#DejaVuSans-68"/>
     <use x="116.015625" xlink:href="#DejaVuSans-105"/>
     <use x="143.798828" xlink:href="#DejaVuSans-115"/>
     <use x="195.898438" xlink:href="#DejaVuSans-112"/>
     <use x="259.375" xlink:href="#DejaVuSans-32"/>
     <use x="291.162109" xlink:href="#DejaVuSans-80"/>
     <use x="351.464844" xlink:href="#DejaVuSans-67"/>
     <use x="421.289062" xlink:href="#DejaVuSans-45"/>
     <use x="457.388672" xlink:href="#DejaVuSans-111"/>
     <use x="518.570312" xlink:href="#DejaVuSans-117"/>
     <use x="581.949219" xlink:href="#DejaVuSans-116"/>
     <use x="621.158203" xlink:href="#DejaVuSans-115"/>
     <use x="673.257812" xlink:href="#DejaVuSans-105"/>
     <use x="701.041016" xlink:href="#DejaVuSans-100"/>
     <use x="764.517578" xlink:href="#DejaVuSans-101"/>
     <use x="826.041016" xlink:href="#DejaVuSans-41"/>
    </g>
   </g>
  </g>
 </g>
 <defs>
  <clipPath id="p0664a5ef12">
   <rect height="90.2944" width="90.2944" x="86.93425" y="41.856"/>
  </clipPath>
  <clipPath id="p92d4602fd7">
   <rect height="90.2944" width="90.2944" x="297.56295" y="41.856"/>
  </clipPath>
  <clipPath id="pd153fe40d1">
   <rect height="90.2944" width="90.2944" x="86.93425" y="209.256"/>
  </clipPath>
  <clipPath id="p089adb7709">
   <rect height="90.2944" width="90.2944" x="297.56295" y="209.256"/>
  </clipPath>
 </defs>
</svg>
