<?xml version="1.0" encoding="utf-8" standalone="no"?>
<!DOCTYPE svg PUBLIC "-//W3C//DTD SVG 1.1//EN"
  "http://www.w3.org/Graphics/SVG/1.1/DTD/svg11.dtd">
<!-- Created with matplotlib (https://matplotlib.org/) -->
<svg height="576pt" version="1.1" viewBox="0 0 576 576" width="576pt" xmlns="http://www.w3.org/2000/svg" xmlns:xlink="http://www.w3.org/1999/xlink">
 <defs>
  <style type="text/css">
*{stroke-linecap:butt;stroke-linejoin:round;}
  </style>
 </defs>
 <g id="figure_1">
  <g id="patch_1">
   <path d="M 0 576 
L 576 576 
L 576 0 
L 0 0 
z
" style="fill:#ffffff;"/>
  </g>
  <g id="axes_1">
   <g id="patch_2">
    <path d="M 52.591455 231.993508 
L 258.80247 231.993508 
L 258.80247 25.782492 
L 52.591455 25.782492 
z
" style="fill:#ffffff;"/>
   </g>
   <g id="PathCollection_1">
    <defs>
     <path d="M 0 2.236068 
C 0.593012 2.236068 1.161816 2.000462 1.581139 1.581139 
C 2.000462 1.161816 2.236068 0.593012 2.236068 0 
C 2.236068 -0.593012 2.000462 -1.161816 1.581139 -1.581139 
C 1.161816 -2.000462 0.593012 -2.236068 0 -2.236068 
C -0.593012 -2.236068 -1.161816 -2.000462 -1.581139 -1.581139 
C -2.000462 -1.161816 -2.236068 -0.593012 -2.236068 0 
C -2.236068 0.593012 -2.000462 1.161816 -1.581139 1.581139 
C -1.161816 2.000462 -0.593012 2.236068 0 2.236068 
z
" id="m923cd8e45b" style="stroke:#808080;"/>
    </defs>
    <g clip-path="url(#pa1be005116)">
     <use style="fill:#808080;stroke:#808080;" x="128.920799" xlink:href="#m923cd8e45b" y="103.422707"/>
     <use style="fill:#808080;stroke:#808080;" x="173.31966" xlink:href="#m923cd8e45b" y="96.373571"/>
     <use style="fill:#808080;stroke:#808080;" x="156.784438" xlink:href="#m923cd8e45b" y="141.313613"/>
     <use style="fill:#808080;stroke:#808080;" x="239.680007" xlink:href="#m923cd8e45b" y="170.949912"/>
     <use style="fill:#808080;stroke:#808080;" x="205.550268" xlink:href="#m923cd8e45b" y="134.821156"/>
     <use style="fill:#808080;stroke:#808080;" x="138.144508" xlink:href="#m923cd8e45b" y="125.400181"/>
     <use style="fill:#808080;stroke:#808080;" x="134.690692" xlink:href="#m923cd8e45b" y="168.900471"/>
     <use style="fill:#808080;stroke:#808080;" x="80.953272" xlink:href="#m923cd8e45b" y="77.348995"/>
     <use style="fill:#808080;stroke:#808080;" x="170.651238" xlink:href="#m923cd8e45b" y="86.818704"/>
     <use style="fill:#808080;stroke:#808080;" x="145.984577" xlink:href="#m923cd8e45b" y="84.273543"/>
     <use style="fill:#808080;stroke:#808080;" x="117.60889" xlink:href="#m923cd8e45b" y="111.580635"/>
     <use style="fill:#808080;stroke:#808080;" x="140.042518" xlink:href="#m923cd8e45b" y="98.598704"/>
     <use style="fill:#808080;stroke:#808080;" x="131.524094" xlink:href="#m923cd8e45b" y="121.191275"/>
     <use style="fill:#808080;stroke:#808080;" x="161.182857" xlink:href="#m923cd8e45b" y="101.043211"/>
     <use style="fill:#808080;stroke:#808080;" x="123.949542" xlink:href="#m923cd8e45b" y="126.902794"/>
     <use style="fill:#808080;stroke:#808080;" x="152.06374" xlink:href="#m923cd8e45b" y="217.841266"/>
     <use style="fill:#808080;stroke:#808080;" x="107.706015" xlink:href="#m923cd8e45b" y="135.931576"/>
     <use style="fill:#808080;stroke:#808080;" x="179.343815" xlink:href="#m923cd8e45b" y="135.724457"/>
     <use style="fill:#808080;stroke:#808080;" x="136.305084" xlink:href="#m923cd8e45b" y="103.009472"/>
     <use style="fill:#808080;stroke:#808080;" x="102.444277" xlink:href="#m923cd8e45b" y="140.652769"/>
     <use style="fill:#808080;stroke:#808080;" x="187.231273" xlink:href="#m923cd8e45b" y="101.043211"/>
     <use style="fill:#808080;stroke:#808080;" x="190.524114" xlink:href="#m923cd8e45b" y="186.564828"/>
     <use style="fill:#808080;stroke:#808080;" x="165.121981" xlink:href="#m923cd8e45b" y="128.290156"/>
     <use style="fill:#808080;stroke:#808080;" x="138.740571" xlink:href="#m923cd8e45b" y="115.744901"/>
     <use style="fill:#808080;stroke:#808080;" x="160.087011" xlink:href="#m923cd8e45b" y="161.709979"/>
     <use style="fill:#808080;stroke:#808080;" x="129.632263" xlink:href="#m923cd8e45b" y="110.0995"/>
     <use style="fill:#808080;stroke:#808080;" x="128.255143" xlink:href="#m923cd8e45b" y="111.64176"/>
     <use style="fill:#808080;stroke:#808080;" x="190.130599" xlink:href="#m923cd8e45b" y="183.997416"/>
     <use style="fill:#808080;stroke:#808080;" x="133.790138" xlink:href="#m923cd8e45b" y="127.526156"/>
     <use style="fill:#808080;stroke:#808080;" x="221.123402" xlink:href="#m923cd8e45b" y="127.068266"/>
     <use style="fill:#808080;stroke:#808080;" x="131.603505" xlink:href="#m923cd8e45b" y="148.104931"/>
     <use style="fill:#808080;stroke:#808080;" x="193.00622" xlink:href="#m923cd8e45b" y="190.541051"/>
     <use style="fill:#808080;stroke:#808080;" x="151.564626" xlink:href="#m923cd8e45b" y="110.0995"/>
     <use style="fill:#808080;stroke:#808080;" x="185.4979" xlink:href="#m923cd8e45b" y="152.826788"/>
     <use style="fill:#808080;stroke:#808080;" x="204.128699" xlink:href="#m923cd8e45b" y="137.882803"/>
     <use style="fill:#808080;stroke:#808080;" x="169.518666" xlink:href="#m923cd8e45b" y="97.019491"/>
     <use style="fill:#808080;stroke:#808080;" x="140.799997" xlink:href="#m923cd8e45b" y="131.358584"/>
     <use style="fill:#808080;stroke:#808080;" x="160.586607" xlink:href="#m923cd8e45b" y="93.579639"/>
     <use style="fill:#808080;stroke:#808080;" x="169.108329" xlink:href="#m923cd8e45b" y="105.418513"/>
     <use style="fill:#808080;stroke:#808080;" x="160.319514" xlink:href="#m923cd8e45b" y="177.418095"/>
     <use style="fill:#808080;stroke:#808080;" x="145.954605" xlink:href="#m923cd8e45b" y="104.373421"/>
    </g>
   </g>
   <g id="matplotlib.axis_1">
    <g id="xtick_1">
     <g id="line2d_1">
      <defs>
       <path d="M 0 0 
L 0 3.5 
" id="m703a8dda53" style="stroke:#000000;stroke-width:0.8;"/>
      </defs>
      <g>
       <use style="stroke:#000000;stroke-width:0.8;" x="59.035549" xlink:href="#m703a8dda53" y="234.055618"/>
      </g>
     </g>
     <g id="text_1">
      <!-- -3.0 -->
      <defs>
       <path d="M 4.890625 31.390625 
L 31.203125 31.390625 
L 31.203125 23.390625 
L 4.890625 23.390625 
z
" id="DejaVuSans-45"/>
       <path d="M 40.578125 39.3125 
Q 47.65625 37.796875 51.625 33 
Q 55.609375 28.21875 55.609375 21.1875 
Q 55.609375 10.40625 48.1875 4.484375 
Q 40.765625 -1.421875 27.09375 -1.421875 
Q 22.515625 -1.421875 17.65625 -0.515625 
Q 12.796875 0.390625 7.625 2.203125 
L 7.625 11.71875 
Q 11.71875 9.328125 16.59375 8.109375 
Q 21.484375 6.890625 26.8125 6.890625 
Q 36.078125 6.890625 40.9375 10.546875 
Q 45.796875 14.203125 45.796875 21.1875 
Q 45.796875 27.640625 41.28125 31.265625 
Q 36.765625 34.90625 28.71875 34.90625 
L 20.21875 34.90625 
L 20.21875 43.015625 
L 29.109375 43.015625 
Q 36.375 43.015625 40.234375 45.921875 
Q 44.09375 48.828125 44.09375 54.296875 
Q 44.09375 59.90625 40.109375 62.90625 
Q 36.140625 65.921875 28.71875 65.921875 
Q 24.65625 65.921875 20.015625 65.03125 
Q 15.375 64.15625 9.8125 62.3125 
L 9.8125 71.09375 
Q 15.4375 72.65625 20.34375 73.4375 
Q 25.25 74.21875 29.59375 74.21875 
Q 40.828125 74.21875 47.359375 69.109375 
Q 53.90625 64.015625 53.90625 55.328125 
Q 53.90625 49.265625 50.4375 45.09375 
Q 46.96875 40.921875 40.578125 39.3125 
z
" id="DejaVuSans-51"/>
       <path d="M 10.6875 12.40625 
L 21 12.40625 
L 21 0 
L 10.6875 0 
z
" id="DejaVuSans-46"/>
       <path d="M 31.78125 66.40625 
Q 24.171875 66.40625 20.328125 58.90625 
Q 16.5 51.421875 16.5 36.375 
Q 16.5 21.390625 20.328125 13.890625 
Q 24.171875 6.390625 31.78125 6.390625 
Q 39.453125 6.390625 43.28125 13.890625 
Q 47.125 21.390625 47.125 36.375 
Q 47.125 51.421875 43.28125 58.90625 
Q 39.453125 66.40625 31.78125 66.40625 
z
M 31.78125 74.21875 
Q 44.046875 74.21875 50.515625 64.515625 
Q 56.984375 54.828125 56.984375 36.375 
Q 56.984375 17.96875 50.515625 8.265625 
Q 44.046875 -1.421875 31.78125 -1.421875 
Q 19.53125 -1.421875 13.0625 8.265625 
Q 6.59375 17.96875 6.59375 36.375 
Q 6.59375 54.828125 13.0625 64.515625 
Q 19.53125 74.21875 31.78125 74.21875 
z
" id="DejaVuSans-48"/>
      </defs>
      <g style="fill:#808080;" transform="translate(49.28008 248.654055)scale(0.1 -0.1)">
       <use xlink:href="#DejaVuSans-45"/>
       <use x="36.083984" xlink:href="#DejaVuSans-51"/>
       <use x="99.707031" xlink:href="#DejaVuSans-46"/>
       <use x="131.494141" xlink:href="#DejaVuSans-48"/>
      </g>
     </g>
    </g>
    <g id="xtick_2">
     <g id="line2d_2">
      <g>
       <use style="stroke:#000000;stroke-width:0.8;" x="91.25602" xlink:href="#m703a8dda53" y="234.055618"/>
      </g>
     </g>
     <g id="text_2">
      <!-- -2.0 -->
      <defs>
       <path d="M 19.1875 8.296875 
L 53.609375 8.296875 
L 53.609375 0 
L 7.328125 0 
L 7.328125 8.296875 
Q 12.9375 14.109375 22.625 23.890625 
Q 32.328125 33.6875 34.8125 36.53125 
Q 39.546875 41.84375 41.421875 45.53125 
Q 43.3125 49.21875 43.3125 52.78125 
Q 43.3125 58.59375 39.234375 62.25 
Q 35.15625 65.921875 28.609375 65.921875 
Q 23.96875 65.921875 18.8125 64.3125 
Q 13.671875 62.703125 7.8125 59.421875 
L 7.8125 69.390625 
Q 13.765625 71.78125 18.9375 73 
Q 24.125 74.21875 28.421875 74.21875 
Q 39.75 74.21875 46.484375 68.546875 
Q 53.21875 62.890625 53.21875 53.421875 
Q 53.21875 48.921875 51.53125 44.890625 
Q 49.859375 40.875 45.40625 35.40625 
Q 44.1875 33.984375 37.640625 27.21875 
Q 31.109375 20.453125 19.1875 8.296875 
z
" id="DejaVuSans-50"/>
      </defs>
      <g style="fill:#808080;" transform="translate(81.500551 248.654055)scale(0.1 -0.1)">
       <use xlink:href="#DejaVuSans-45"/>
       <use x="36.083984" xlink:href="#DejaVuSans-50"/>
       <use x="99.707031" xlink:href="#DejaVuSans-46"/>
       <use x="131.494141" xlink:href="#DejaVuSans-48"/>
      </g>
     </g>
    </g>
    <g id="xtick_3">
     <g id="line2d_3">
      <g>
       <use style="stroke:#000000;stroke-width:0.8;" x="123.476491" xlink:href="#m703a8dda53" y="234.055618"/>
      </g>
     </g>
     <g id="text_3">
      <!-- -1.0 -->
      <defs>
       <path d="M 12.40625 8.296875 
L 28.515625 8.296875 
L 28.515625 63.921875 
L 10.984375 60.40625 
L 10.984375 69.390625 
L 28.421875 72.90625 
L 38.28125 72.90625 
L 38.28125 8.296875 
L 54.390625 8.296875 
L 54.390625 0 
L 12.40625 0 
z
" id="DejaVuSans-49"/>
      </defs>
      <g style="fill:#808080;" transform="translate(113.721022 248.654055)scale(0.1 -0.1)">
       <use xlink:href="#DejaVuSans-45"/>
       <use x="36.083984" xlink:href="#DejaVuSans-49"/>
       <use x="99.707031" xlink:href="#DejaVuSans-46"/>
       <use x="131.494141" xlink:href="#DejaVuSans-48"/>
      </g>
     </g>
    </g>
    <g id="xtick_4">
     <g id="line2d_4">
      <g>
       <use style="stroke:#000000;stroke-width:0.8;" x="155.696962" xlink:href="#m703a8dda53" y="234.055618"/>
      </g>
     </g>
     <g id="text_4">
      <!-- 0.0 -->
      <g style="fill:#808080;" transform="translate(147.7454 248.654055)scale(0.1 -0.1)">
       <use xlink:href="#DejaVuSans-48"/>
       <use x="63.623047" xlink:href="#DejaVuSans-46"/>
       <use x="95.410156" xlink:href="#DejaVuSans-48"/>
      </g>
     </g>
    </g>
    <g id="xtick_5">
     <g id="line2d_5">
      <g>
       <use style="stroke:#000000;stroke-width:0.8;" x="187.917433" xlink:href="#m703a8dda53" y="234.055618"/>
      </g>
     </g>
     <g id="text_5">
      <!-- 1.0 -->
      <g style="fill:#808080;" transform="translate(179.965871 248.654055)scale(0.1 -0.1)">
       <use xlink:href="#DejaVuSans-49"/>
       <use x="63.623047" xlink:href="#DejaVuSans-46"/>
       <use x="95.410156" xlink:href="#DejaVuSans-48"/>
      </g>
     </g>
    </g>
    <g id="xtick_6">
     <g id="line2d_6">
      <g>
       <use style="stroke:#000000;stroke-width:0.8;" x="220.137905" xlink:href="#m703a8dda53" y="234.055618"/>
      </g>
     </g>
     <g id="text_6">
      <!-- 2.0 -->
      <g style="fill:#808080;" transform="translate(212.186342 248.654055)scale(0.1 -0.1)">
       <use xlink:href="#DejaVuSans-50"/>
       <use x="63.623047" xlink:href="#DejaVuSans-46"/>
       <use x="95.410156" xlink:href="#DejaVuSans-48"/>
      </g>
     </g>
    </g>
    <g id="xtick_7">
     <g id="line2d_7">
      <g>
       <use style="stroke:#000000;stroke-width:0.8;" x="252.358376" xlink:href="#m703a8dda53" y="234.055618"/>
      </g>
     </g>
     <g id="text_7">
      <!-- 3.0 -->
      <g style="fill:#808080;" transform="translate(244.406813 248.654055)scale(0.1 -0.1)">
       <use xlink:href="#DejaVuSans-51"/>
       <use x="63.623047" xlink:href="#DejaVuSans-46"/>
       <use x="95.410156" xlink:href="#DejaVuSans-48"/>
      </g>
     </g>
    </g>
    <g id="text_8">
     <!-- median $PC_{within}$ (z-scored) -->
     <defs>
      <path d="M 52 44.1875 
Q 55.375 50.25 60.0625 53.125 
Q 64.75 56 71.09375 56 
Q 79.640625 56 84.28125 50.015625 
Q 88.921875 44.046875 88.921875 33.015625 
L 88.921875 0 
L 79.890625 0 
L 79.890625 32.71875 
Q 79.890625 40.578125 77.09375 44.375 
Q 74.3125 48.1875 68.609375 48.1875 
Q 61.625 48.1875 57.5625 43.546875 
Q 53.515625 38.921875 53.515625 30.90625 
L 53.515625 0 
L 44.484375 0 
L 44.484375 32.71875 
Q 44.484375 40.625 41.703125 44.40625 
Q 38.921875 48.1875 33.109375 48.1875 
Q 26.21875 48.1875 22.15625 43.53125 
Q 18.109375 38.875 18.109375 30.90625 
L 18.109375 0 
L 9.078125 0 
L 9.078125 54.6875 
L 18.109375 54.6875 
L 18.109375 46.1875 
Q 21.1875 51.21875 25.484375 53.609375 
Q 29.78125 56 35.6875 56 
Q 41.65625 56 45.828125 52.96875 
Q 50 49.953125 52 44.1875 
z
" id="DejaVuSans-109"/>
      <path d="M 56.203125 29.59375 
L 56.203125 25.203125 
L 14.890625 25.203125 
Q 15.484375 15.921875 20.484375 11.0625 
Q 25.484375 6.203125 34.421875 6.203125 
Q 39.59375 6.203125 44.453125 7.46875 
Q 49.3125 8.734375 54.109375 11.28125 
L 54.109375 2.78125 
Q 49.265625 0.734375 44.1875 -0.34375 
Q 39.109375 -1.421875 33.890625 -1.421875 
Q 20.796875 -1.421875 13.15625 6.1875 
Q 5.515625 13.8125 5.515625 26.8125 
Q 5.515625 40.234375 12.765625 48.109375 
Q 20.015625 56 32.328125 56 
Q 43.359375 56 49.78125 48.890625 
Q 56.203125 41.796875 56.203125 29.59375 
z
M 47.21875 32.234375 
Q 47.125 39.59375 43.09375 43.984375 
Q 39.0625 48.390625 32.421875 48.390625 
Q 24.90625 48.390625 20.390625 44.140625 
Q 15.875 39.890625 15.1875 32.171875 
z
" id="DejaVuSans-101"/>
      <path d="M 45.40625 46.390625 
L 45.40625 75.984375 
L 54.390625 75.984375 
L 54.390625 0 
L 45.40625 0 
L 45.40625 8.203125 
Q 42.578125 3.328125 38.25 0.953125 
Q 33.9375 -1.421875 27.875 -1.421875 
Q 17.96875 -1.421875 11.734375 6.484375 
Q 5.515625 14.40625 5.515625 27.296875 
Q 5.515625 40.1875 11.734375 48.09375 
Q 17.96875 56 27.875 56 
Q 33.9375 56 38.25 53.625 
Q 42.578125 51.265625 45.40625 46.390625 
z
M 14.796875 27.296875 
Q 14.796875 17.390625 18.875 11.75 
Q 22.953125 6.109375 30.078125 6.109375 
Q 37.203125 6.109375 41.296875 11.75 
Q 45.40625 17.390625 45.40625 27.296875 
Q 45.40625 37.203125 41.296875 42.84375 
Q 37.203125 48.484375 30.078125 48.484375 
Q 22.953125 48.484375 18.875 42.84375 
Q 14.796875 37.203125 14.796875 27.296875 
z
" id="DejaVuSans-100"/>
      <path d="M 9.421875 54.6875 
L 18.40625 54.6875 
L 18.40625 0 
L 9.421875 0 
z
M 9.421875 75.984375 
L 18.40625 75.984375 
L 18.40625 64.59375 
L 9.421875 64.59375 
z
" id="DejaVuSans-105"/>
      <path d="M 34.28125 27.484375 
Q 23.390625 27.484375 19.1875 25 
Q 14.984375 22.515625 14.984375 16.5 
Q 14.984375 11.71875 18.140625 8.90625 
Q 21.296875 6.109375 26.703125 6.109375 
Q 34.1875 6.109375 38.703125 11.40625 
Q 43.21875 16.703125 43.21875 25.484375 
L 43.21875 27.484375 
z
M 52.203125 31.203125 
L 52.203125 0 
L 43.21875 0 
L 43.21875 8.296875 
Q 40.140625 3.328125 35.546875 0.953125 
Q 30.953125 -1.421875 24.3125 -1.421875 
Q 15.921875 -1.421875 10.953125 3.296875 
Q 6 8.015625 6 15.921875 
Q 6 25.140625 12.171875 29.828125 
Q 18.359375 34.515625 30.609375 34.515625 
L 43.21875 34.515625 
L 43.21875 35.40625 
Q 43.21875 41.609375 39.140625 45 
Q 35.0625 48.390625 27.6875 48.390625 
Q 23 48.390625 18.546875 47.265625 
Q 14.109375 46.140625 10.015625 43.890625 
L 10.015625 52.203125 
Q 14.9375 54.109375 19.578125 55.046875 
Q 24.21875 56 28.609375 56 
Q 40.484375 56 46.34375 49.84375 
Q 52.203125 43.703125 52.203125 31.203125 
z
" id="DejaVuSans-97"/>
      <path d="M 54.890625 33.015625 
L 54.890625 0 
L 45.90625 0 
L 45.90625 32.71875 
Q 45.90625 40.484375 42.875 44.328125 
Q 39.84375 48.1875 33.796875 48.1875 
Q 26.515625 48.1875 22.3125 43.546875 
Q 18.109375 38.921875 18.109375 30.90625 
L 18.109375 0 
L 9.078125 0 
L 9.078125 54.6875 
L 18.109375 54.6875 
L 18.109375 46.1875 
Q 21.34375 51.125 25.703125 53.5625 
Q 30.078125 56 35.796875 56 
Q 45.21875 56 50.046875 50.171875 
Q 54.890625 44.34375 54.890625 33.015625 
z
" id="DejaVuSans-110"/>
      <path id="DejaVuSans-32"/>
      <path d="M 16.890625 72.90625 
L 39.703125 72.90625 
Q 49.65625 72.90625 54.875 68.265625 
Q 60.109375 63.625 60.109375 54.6875 
Q 60.109375 42.671875 52.390625 35.984375 
Q 44.671875 29.296875 30.71875 29.296875 
L 18.3125 29.296875 
L 12.59375 0 
L 2.6875 0 
z
M 25.203125 64.796875 
L 19.921875 37.40625 
L 32.328125 37.40625 
Q 40.71875 37.40625 45.203125 41.703125 
Q 49.703125 46 49.703125 54 
Q 49.703125 59.125 46.65625 61.953125 
Q 43.609375 64.796875 38.09375 64.796875 
z
" id="DejaVuSans-Oblique-80"/>
      <path d="M 69.484375 67.28125 
L 67.484375 56.890625 
Q 62.796875 61.625 57.546875 63.921875 
Q 52.296875 66.21875 46.1875 66.21875 
Q 37.84375 66.21875 31.515625 62.203125 
Q 25.203125 58.203125 20.609375 50 
Q 17.671875 44.734375 16.125 38.84375 
Q 14.59375 32.953125 14.59375 27 
Q 14.59375 17.046875 19.75 11.8125 
Q 24.90625 6.59375 34.71875 6.59375 
Q 41.5 6.59375 47.75 8.765625 
Q 54 10.9375 59.90625 15.28125 
L 57.625 3.609375 
Q 51.8125 1.125 45.875 -0.140625 
Q 39.9375 -1.421875 33.984375 -1.421875 
Q 19.96875 -1.421875 12.078125 6.1875 
Q 4.203125 13.8125 4.203125 27.390625 
Q 4.203125 36.078125 7.203125 44.46875 
Q 10.203125 52.875 15.828125 59.8125 
Q 21.78125 67.1875 29.421875 70.703125 
Q 37.0625 74.21875 47.21875 74.21875 
Q 53.46875 74.21875 59.0625 72.484375 
Q 64.65625 70.75 69.484375 67.28125 
z
" id="DejaVuSans-Oblique-67"/>
      <path d="M 8.5 54.6875 
L 17.390625 54.6875 
L 19.671875 10.6875 
L 40.09375 54.6875 
L 50.484375 54.6875 
L 53.515625 10.6875 
L 72.90625 54.6875 
L 81.890625 54.6875 
L 56.890625 0 
L 46.390625 0 
L 43.703125 45.3125 
L 22.796875 0 
L 12.203125 0 
z
" id="DejaVuSans-Oblique-119"/>
      <path d="M 18.3125 75.984375 
L 27.296875 75.984375 
L 25.09375 64.59375 
L 16.109375 64.59375 
z
M 14.203125 54.6875 
L 23.1875 54.6875 
L 12.5 0 
L 3.515625 0 
z
" id="DejaVuSans-Oblique-105"/>
      <path d="M 42.28125 54.6875 
L 40.921875 47.703125 
L 23 47.703125 
L 17.1875 18.015625 
Q 16.890625 16.359375 16.75 15.234375 
Q 16.609375 14.109375 16.609375 13.484375 
Q 16.609375 10.359375 18.484375 8.9375 
Q 20.359375 7.515625 24.515625 7.515625 
L 33.59375 7.515625 
L 32.078125 0 
L 23.484375 0 
Q 15.484375 0 11.546875 3.125 
Q 7.625 6.25 7.625 12.59375 
Q 7.625 13.71875 7.765625 15.0625 
Q 7.90625 16.40625 8.203125 18.015625 
L 14.015625 47.703125 
L 6.390625 47.703125 
L 7.8125 54.6875 
L 15.28125 54.6875 
L 18.3125 70.21875 
L 27.296875 70.21875 
L 24.3125 54.6875 
z
" id="DejaVuSans-Oblique-116"/>
      <path d="M 55.71875 33.015625 
L 49.3125 0 
L 40.28125 0 
L 46.6875 32.671875 
Q 47.125 34.96875 47.359375 36.71875 
Q 47.609375 38.484375 47.609375 39.5 
Q 47.609375 43.609375 45.015625 45.890625 
Q 42.4375 48.1875 37.796875 48.1875 
Q 30.5625 48.1875 25.265625 43.296875 
Q 19.96875 38.421875 18.40625 30.328125 
L 12.5 0 
L 3.515625 0 
L 18.3125 75.984375 
L 27.296875 75.984375 
L 21.484375 46.09375 
Q 24.90625 50.6875 30.21875 53.34375 
Q 35.546875 56 41.40625 56 
Q 48.640625 56 52.609375 52.09375 
Q 56.59375 48.1875 56.59375 41.109375 
Q 56.59375 39.359375 56.375 37.359375 
Q 56.15625 35.359375 55.71875 33.015625 
z
" id="DejaVuSans-Oblique-104"/>
      <path d="M 55.71875 33.015625 
L 49.3125 0 
L 40.28125 0 
L 46.6875 32.671875 
Q 47.125 34.96875 47.359375 36.71875 
Q 47.609375 38.484375 47.609375 39.5 
Q 47.609375 43.609375 45.015625 45.890625 
Q 42.4375 48.1875 37.796875 48.1875 
Q 30.5625 48.1875 25.34375 43.375 
Q 20.125 38.578125 18.5 30.328125 
L 12.5 0 
L 3.515625 0 
L 14.109375 54.6875 
L 23.09375 54.6875 
L 21.296875 46.09375 
Q 25.046875 50.828125 30.3125 53.40625 
Q 35.59375 56 41.40625 56 
Q 48.640625 56 52.609375 52.09375 
Q 56.59375 48.1875 56.59375 41.109375 
Q 56.59375 39.359375 56.375 37.359375 
Q 56.15625 35.359375 55.71875 33.015625 
z
" id="DejaVuSans-Oblique-110"/>
      <path d="M 31 75.875 
Q 24.46875 64.65625 21.28125 53.65625 
Q 18.109375 42.671875 18.109375 31.390625 
Q 18.109375 20.125 21.3125 9.0625 
Q 24.515625 -2 31 -13.1875 
L 23.1875 -13.1875 
Q 15.875 -1.703125 12.234375 9.375 
Q 8.59375 20.453125 8.59375 31.390625 
Q 8.59375 42.28125 12.203125 53.3125 
Q 15.828125 64.359375 23.1875 75.875 
z
" id="DejaVuSans-40"/>
      <path d="M 5.515625 54.6875 
L 48.1875 54.6875 
L 48.1875 46.484375 
L 14.40625 7.171875 
L 48.1875 7.171875 
L 48.1875 0 
L 4.296875 0 
L 4.296875 8.203125 
L 38.09375 47.515625 
L 5.515625 47.515625 
z
" id="DejaVuSans-122"/>
      <path d="M 44.28125 53.078125 
L 44.28125 44.578125 
Q 40.484375 46.53125 36.375 47.5 
Q 32.28125 48.484375 27.875 48.484375 
Q 21.1875 48.484375 17.84375 46.4375 
Q 14.5 44.390625 14.5 40.28125 
Q 14.5 37.15625 16.890625 35.375 
Q 19.28125 33.59375 26.515625 31.984375 
L 29.59375 31.296875 
Q 39.15625 29.25 43.1875 25.515625 
Q 47.21875 21.78125 47.21875 15.09375 
Q 47.21875 7.46875 41.1875 3.015625 
Q 35.15625 -1.421875 24.609375 -1.421875 
Q 20.21875 -1.421875 15.453125 -0.5625 
Q 10.6875 0.296875 5.421875 2 
L 5.421875 11.28125 
Q 10.40625 8.6875 15.234375 7.390625 
Q 20.0625 6.109375 24.8125 6.109375 
Q 31.15625 6.109375 34.5625 8.28125 
Q 37.984375 10.453125 37.984375 14.40625 
Q 37.984375 18.0625 35.515625 20.015625 
Q 33.0625 21.96875 24.703125 23.78125 
L 21.578125 24.515625 
Q 13.234375 26.265625 9.515625 29.90625 
Q 5.8125 33.546875 5.8125 39.890625 
Q 5.8125 47.609375 11.28125 51.796875 
Q 16.75 56 26.8125 56 
Q 31.78125 56 36.171875 55.265625 
Q 40.578125 54.546875 44.28125 53.078125 
z
" id="DejaVuSans-115"/>
      <path d="M 48.78125 52.59375 
L 48.78125 44.1875 
Q 44.96875 46.296875 41.140625 47.34375 
Q 37.3125 48.390625 33.40625 48.390625 
Q 24.65625 48.390625 19.8125 42.84375 
Q 14.984375 37.3125 14.984375 27.296875 
Q 14.984375 17.28125 19.8125 11.734375 
Q 24.65625 6.203125 33.40625 6.203125 
Q 37.3125 6.203125 41.140625 7.25 
Q 44.96875 8.296875 48.78125 10.40625 
L 48.78125 2.09375 
Q 45.015625 0.34375 40.984375 -0.53125 
Q 36.96875 -1.421875 32.421875 -1.421875 
Q 20.0625 -1.421875 12.78125 6.34375 
Q 5.515625 14.109375 5.515625 27.296875 
Q 5.515625 40.671875 12.859375 48.328125 
Q 20.21875 56 33.015625 56 
Q 37.15625 56 41.109375 55.140625 
Q 45.0625 54.296875 48.78125 52.59375 
z
" id="DejaVuSans-99"/>
      <path d="M 30.609375 48.390625 
Q 23.390625 48.390625 19.1875 42.75 
Q 14.984375 37.109375 14.984375 27.296875 
Q 14.984375 17.484375 19.15625 11.84375 
Q 23.34375 6.203125 30.609375 6.203125 
Q 37.796875 6.203125 41.984375 11.859375 
Q 46.1875 17.53125 46.1875 27.296875 
Q 46.1875 37.015625 41.984375 42.703125 
Q 37.796875 48.390625 30.609375 48.390625 
z
M 30.609375 56 
Q 42.328125 56 49.015625 48.375 
Q 55.71875 40.765625 55.71875 27.296875 
Q 55.71875 13.875 49.015625 6.21875 
Q 42.328125 -1.421875 30.609375 -1.421875 
Q 18.84375 -1.421875 12.171875 6.21875 
Q 5.515625 13.875 5.515625 27.296875 
Q 5.515625 40.765625 12.171875 48.375 
Q 18.84375 56 30.609375 56 
z
" id="DejaVuSans-111"/>
      <path d="M 41.109375 46.296875 
Q 39.59375 47.171875 37.8125 47.578125 
Q 36.03125 48 33.890625 48 
Q 26.265625 48 22.1875 43.046875 
Q 18.109375 38.09375 18.109375 28.8125 
L 18.109375 0 
L 9.078125 0 
L 9.078125 54.6875 
L 18.109375 54.6875 
L 18.109375 46.1875 
Q 20.953125 51.171875 25.484375 53.578125 
Q 30.03125 56 36.53125 56 
Q 37.453125 56 38.578125 55.875 
Q 39.703125 55.765625 41.0625 55.515625 
z
" id="DejaVuSans-114"/>
      <path d="M 8.015625 75.875 
L 15.828125 75.875 
Q 23.140625 64.359375 26.78125 53.3125 
Q 30.421875 42.28125 30.421875 31.390625 
Q 30.421875 20.453125 26.78125 9.375 
Q 23.140625 -1.703125 15.828125 -13.1875 
L 8.015625 -13.1875 
Q 14.5 -2 17.703125 9.0625 
Q 20.90625 20.125 20.90625 31.390625 
Q 20.90625 42.671875 17.703125 53.65625 
Q 14.5 64.65625 8.015625 75.875 
z
" id="DejaVuSans-41"/>
     </defs>
     <g style="fill:#808080;" transform="translate(91.446962 262.33218)scale(0.1 -0.1)">
      <use transform="translate(0 0.015625)" xlink:href="#DejaVuSans-109"/>
      <use transform="translate(97.412109 0.015625)" xlink:href="#DejaVuSans-101"/>
      <use transform="translate(158.935547 0.015625)" xlink:href="#DejaVuSans-100"/>
      <use transform="translate(222.412109 0.015625)" xlink:href="#DejaVuSans-105"/>
      <use transform="translate(250.195312 0.015625)" xlink:href="#DejaVuSans-97"/>
      <use transform="translate(311.474609 0.015625)" xlink:href="#DejaVuSans-110"/>
      <use transform="translate(374.853516 0.015625)" xlink:href="#DejaVuSans-32"/>
      <use transform="translate(406.640625 0.015625)" xlink:href="#DejaVuSans-Oblique-80"/>
      <use transform="translate(466.943359 0.015625)" xlink:href="#DejaVuSans-Oblique-67"/>
      <use transform="translate(536.767578 -16.390625)scale(0.7)" xlink:href="#DejaVuSans-Oblique-119"/>
      <use transform="translate(594.018555 -16.390625)scale(0.7)" xlink:href="#DejaVuSans-Oblique-105"/>
      <use transform="translate(613.466797 -16.390625)scale(0.7)" xlink:href="#DejaVuSans-Oblique-116"/>
      <use transform="translate(640.913086 -16.390625)scale(0.7)" xlink:href="#DejaVuSans-Oblique-104"/>
      <use transform="translate(685.27832 -16.390625)scale(0.7)" xlink:href="#DejaVuSans-Oblique-105"/>
      <use transform="translate(704.726562 -16.390625)scale(0.7)" xlink:href="#DejaVuSans-Oblique-110"/>
      <use transform="translate(751.826172 0.015625)" xlink:href="#DejaVuSans-32"/>
      <use transform="translate(783.613281 0.015625)" xlink:href="#DejaVuSans-40"/>
      <use transform="translate(822.626953 0.015625)" xlink:href="#DejaVuSans-122"/>
      <use transform="translate(875.117188 0.015625)" xlink:href="#DejaVuSans-45"/>
      <use transform="translate(911.201172 0.015625)" xlink:href="#DejaVuSans-115"/>
      <use transform="translate(963.300781 0.015625)" xlink:href="#DejaVuSans-99"/>
      <use transform="translate(1018.28125 0.015625)" xlink:href="#DejaVuSans-111"/>
      <use transform="translate(1079.462891 0.015625)" xlink:href="#DejaVuSans-114"/>
      <use transform="translate(1120.576172 0.015625)" xlink:href="#DejaVuSans-101"/>
      <use transform="translate(1182.099609 0.015625)" xlink:href="#DejaVuSans-100"/>
      <use transform="translate(1245.576172 0.015625)" xlink:href="#DejaVuSans-41"/>
     </g>
    </g>
   </g>
   <g id="matplotlib.axis_2">
    <g id="ytick_1">
     <g id="line2d_8">
      <defs>
       <path d="M 0 0 
L -3.5 0 
" id="mc253d11c63" style="stroke:#000000;stroke-width:0.8;"/>
      </defs>
      <g>
       <use style="stroke:#000000;stroke-width:0.8;" x="50.529344" xlink:href="#mc253d11c63" y="225.549413"/>
      </g>
     </g>
     <g id="text_9">
      <!-- -3.0 -->
      <g style="fill:#808080;" transform="translate(24.018407 229.348632)scale(0.1 -0.1)">
       <use xlink:href="#DejaVuSans-45"/>
       <use x="36.083984" xlink:href="#DejaVuSans-51"/>
       <use x="99.707031" xlink:href="#DejaVuSans-46"/>
       <use x="131.494141" xlink:href="#DejaVuSans-48"/>
      </g>
     </g>
    </g>
    <g id="ytick_2">
     <g id="line2d_9">
      <g>
       <use style="stroke:#000000;stroke-width:0.8;" x="50.529344" xlink:href="#mc253d11c63" y="193.328942"/>
      </g>
     </g>
     <g id="text_10">
      <!-- -2.0 -->
      <g style="fill:#808080;" transform="translate(24.018407 197.128161)scale(0.1 -0.1)">
       <use xlink:href="#DejaVuSans-45"/>
       <use x="36.083984" xlink:href="#DejaVuSans-50"/>
       <use x="99.707031" xlink:href="#DejaVuSans-46"/>
       <use x="131.494141" xlink:href="#DejaVuSans-48"/>
      </g>
     </g>
    </g>
    <g id="ytick_3">
     <g id="line2d_10">
      <g>
       <use style="stroke:#000000;stroke-width:0.8;" x="50.529344" xlink:href="#mc253d11c63" y="161.108471"/>
      </g>
     </g>
     <g id="text_11">
      <!-- -1.0 -->
      <g style="fill:#808080;" transform="translate(24.018407 164.90769)scale(0.1 -0.1)">
       <use xlink:href="#DejaVuSans-45"/>
       <use x="36.083984" xlink:href="#DejaVuSans-49"/>
       <use x="99.707031" xlink:href="#DejaVuSans-46"/>
       <use x="131.494141" xlink:href="#DejaVuSans-48"/>
      </g>
     </g>
    </g>
    <g id="ytick_4">
     <g id="line2d_11">
      <g>
       <use style="stroke:#000000;stroke-width:0.8;" x="50.529344" xlink:href="#mc253d11c63" y="128.888"/>
      </g>
     </g>
     <g id="text_12">
      <!-- 0.0 -->
      <g style="fill:#808080;" transform="translate(27.626219 132.687219)scale(0.1 -0.1)">
       <use xlink:href="#DejaVuSans-48"/>
       <use x="63.623047" xlink:href="#DejaVuSans-46"/>
       <use x="95.410156" xlink:href="#DejaVuSans-48"/>
      </g>
     </g>
    </g>
    <g id="ytick_5">
     <g id="line2d_12">
      <g>
       <use style="stroke:#000000;stroke-width:0.8;" x="50.529344" xlink:href="#mc253d11c63" y="96.667529"/>
      </g>
     </g>
     <g id="text_13">
      <!-- 1.0 -->
      <g style="fill:#808080;" transform="translate(27.626219 100.466748)scale(0.1 -0.1)">
       <use xlink:href="#DejaVuSans-49"/>
       <use x="63.623047" xlink:href="#DejaVuSans-46"/>
       <use x="95.410156" xlink:href="#DejaVuSans-48"/>
      </g>
     </g>
    </g>
    <g id="ytick_6">
     <g id="line2d_13">
      <g>
       <use style="stroke:#000000;stroke-width:0.8;" x="50.529344" xlink:href="#mc253d11c63" y="64.447058"/>
      </g>
     </g>
     <g id="text_14">
      <!-- 2.0 -->
      <g style="fill:#808080;" transform="translate(27.626219 68.246276)scale(0.1 -0.1)">
       <use xlink:href="#DejaVuSans-50"/>
       <use x="63.623047" xlink:href="#DejaVuSans-46"/>
       <use x="95.410156" xlink:href="#DejaVuSans-48"/>
      </g>
     </g>
    </g>
    <g id="ytick_7">
     <g id="line2d_14">
      <g>
       <use style="stroke:#000000;stroke-width:0.8;" x="50.529344" xlink:href="#mc253d11c63" y="32.226587"/>
      </g>
     </g>
     <g id="text_15">
      <!-- 3.0 -->
      <g style="fill:#808080;" transform="translate(27.626219 36.025805)scale(0.1 -0.1)">
       <use xlink:href="#DejaVuSans-51"/>
       <use x="63.623047" xlink:href="#DejaVuSans-46"/>
       <use x="95.410156" xlink:href="#DejaVuSans-48"/>
      </g>
     </g>
    </g>
    <g id="text_16">
     <!-- PC stimulation site (z-scored) -->
     <defs>
      <path d="M 19.671875 64.796875 
L 19.671875 37.40625 
L 32.078125 37.40625 
Q 38.96875 37.40625 42.71875 40.96875 
Q 46.484375 44.53125 46.484375 51.125 
Q 46.484375 57.671875 42.71875 61.234375 
Q 38.96875 64.796875 32.078125 64.796875 
z
M 9.8125 72.90625 
L 32.078125 72.90625 
Q 44.34375 72.90625 50.609375 67.359375 
Q 56.890625 61.8125 56.890625 51.125 
Q 56.890625 40.328125 50.609375 34.8125 
Q 44.34375 29.296875 32.078125 29.296875 
L 19.671875 29.296875 
L 19.671875 0 
L 9.8125 0 
z
" id="DejaVuSans-80"/>
      <path d="M 64.40625 67.28125 
L 64.40625 56.890625 
Q 59.421875 61.53125 53.78125 63.8125 
Q 48.140625 66.109375 41.796875 66.109375 
Q 29.296875 66.109375 22.65625 58.46875 
Q 16.015625 50.828125 16.015625 36.375 
Q 16.015625 21.96875 22.65625 14.328125 
Q 29.296875 6.6875 41.796875 6.6875 
Q 48.140625 6.6875 53.78125 8.984375 
Q 59.421875 11.28125 64.40625 15.921875 
L 64.40625 5.609375 
Q 59.234375 2.09375 53.4375 0.328125 
Q 47.65625 -1.421875 41.21875 -1.421875 
Q 24.65625 -1.421875 15.125 8.703125 
Q 5.609375 18.84375 5.609375 36.375 
Q 5.609375 53.953125 15.125 64.078125 
Q 24.65625 74.21875 41.21875 74.21875 
Q 47.75 74.21875 53.53125 72.484375 
Q 59.328125 70.75 64.40625 67.28125 
z
" id="DejaVuSans-67"/>
      <path d="M 18.3125 70.21875 
L 18.3125 54.6875 
L 36.8125 54.6875 
L 36.8125 47.703125 
L 18.3125 47.703125 
L 18.3125 18.015625 
Q 18.3125 11.328125 20.140625 9.421875 
Q 21.96875 7.515625 27.59375 7.515625 
L 36.8125 7.515625 
L 36.8125 0 
L 27.59375 0 
Q 17.1875 0 13.234375 3.875 
Q 9.28125 7.765625 9.28125 18.015625 
L 9.28125 47.703125 
L 2.6875 47.703125 
L 2.6875 54.6875 
L 9.28125 54.6875 
L 9.28125 70.21875 
z
" id="DejaVuSans-116"/>
      <path d="M 8.5 21.578125 
L 8.5 54.6875 
L 17.484375 54.6875 
L 17.484375 21.921875 
Q 17.484375 14.15625 20.5 10.265625 
Q 23.53125 6.390625 29.59375 6.390625 
Q 36.859375 6.390625 41.078125 11.03125 
Q 45.3125 15.671875 45.3125 23.6875 
L 45.3125 54.6875 
L 54.296875 54.6875 
L 54.296875 0 
L 45.3125 0 
L 45.3125 8.40625 
Q 42.046875 3.421875 37.71875 1 
Q 33.40625 -1.421875 27.6875 -1.421875 
Q 18.265625 -1.421875 13.375 4.4375 
Q 8.5 10.296875 8.5 21.578125 
z
M 31.109375 56 
z
" id="DejaVuSans-117"/>
      <path d="M 9.421875 75.984375 
L 18.40625 75.984375 
L 18.40625 0 
L 9.421875 0 
z
" id="DejaVuSans-108"/>
     </defs>
     <g style="fill:#808080;" transform="translate(17.938719 202.263)rotate(-90)scale(0.1 -0.1)">
      <use xlink:href="#DejaVuSans-80"/>
      <use x="60.302734" xlink:href="#DejaVuSans-67"/>
      <use x="130.126953" xlink:href="#DejaVuSans-32"/>
      <use x="161.914062" xlink:href="#DejaVuSans-115"/>
      <use x="214.013672" xlink:href="#DejaVuSans-116"/>
      <use x="253.222656" xlink:href="#DejaVuSans-105"/>
      <use x="281.005859" xlink:href="#DejaVuSans-109"/>
      <use x="378.417969" xlink:href="#DejaVuSans-117"/>
      <use x="441.796875" xlink:href="#DejaVuSans-108"/>
      <use x="469.580078" xlink:href="#DejaVuSans-97"/>
      <use x="530.859375" xlink:href="#DejaVuSans-116"/>
      <use x="570.068359" xlink:href="#DejaVuSans-105"/>
      <use x="597.851562" xlink:href="#DejaVuSans-111"/>
      <use x="659.033203" xlink:href="#DejaVuSans-110"/>
      <use x="722.412109" xlink:href="#DejaVuSans-32"/>
      <use x="754.199219" xlink:href="#DejaVuSans-115"/>
      <use x="806.298828" xlink:href="#DejaVuSans-105"/>
      <use x="834.082031" xlink:href="#DejaVuSans-116"/>
      <use x="873.291016" xlink:href="#DejaVuSans-101"/>
      <use x="934.814453" xlink:href="#DejaVuSans-32"/>
      <use x="966.601562" xlink:href="#DejaVuSans-40"/>
      <use x="1005.615234" xlink:href="#DejaVuSans-122"/>
      <use x="1058.105469" xlink:href="#DejaVuSans-45"/>
      <use x="1094.189453" xlink:href="#DejaVuSans-115"/>
      <use x="1146.289062" xlink:href="#DejaVuSans-99"/>
      <use x="1201.269531" xlink:href="#DejaVuSans-111"/>
      <use x="1262.451172" xlink:href="#DejaVuSans-114"/>
      <use x="1303.533203" xlink:href="#DejaVuSans-101"/>
      <use x="1365.056641" xlink:href="#DejaVuSans-100"/>
      <use x="1428.533203" xlink:href="#DejaVuSans-41"/>
     </g>
    </g>
   </g>
   <g id="line2d_15">
    <path clip-path="url(#pa1be005116)" d="M 59.035549 84.42375 
L 67.090667 88.129104 
L 75.145784 91.834458 
L 83.200902 95.539812 
L 91.25602 99.245167 
L 99.311138 102.950521 
L 107.366256 106.655875 
L 115.421373 110.361229 
L 123.476491 114.066583 
L 131.531609 117.771937 
L 139.586727 121.477292 
L 147.641844 125.182646 
L 155.696962 128.888 
L 163.75208 132.593354 
L 171.807198 136.298708 
L 179.862316 140.004063 
L 187.917433 143.709417 
L 195.972551 147.414771 
L 204.027669 151.120125 
L 212.082787 154.825479 
L 220.137905 158.530833 
L 228.193022 162.236188 
L 236.24814 165.941542 
L 244.303258 169.646896 
" style="fill:none;stroke:#000000;stroke-linecap:square;stroke-width:1.5;"/>
   </g>
   <g id="line2d_16">
    <path clip-path="url(#pa1be005116)" d="M 59.035549 57.358554 
L 67.090667 63.319341 
L 75.145784 69.280128 
L 83.200902 75.240916 
L 91.25602 81.201703 
L 99.311138 87.16249 
L 107.366256 93.123277 
L 115.421373 99.084064 
L 123.476491 105.044851 
L 131.531609 111.005639 
L 139.586727 116.966426 
L 147.641844 122.927213 
L 155.696962 128.888 
L 163.75208 134.848787 
L 171.807198 140.809574 
L 179.862316 146.770361 
L 187.917433 152.731149 
L 195.972551 158.691936 
L 204.027669 164.652723 
L 212.082787 170.61351 
L 220.137905 176.574297 
L 228.193022 182.535084 
L 236.24814 188.495872 
L 244.303258 194.456659 
" style="fill:none;stroke:#000000;stroke-dasharray:5.55,2.4;stroke-dashoffset:0;stroke-opacity:0.5;stroke-width:1.5;"/>
   </g>
   <g id="line2d_17">
    <path clip-path="url(#pa1be005116)" d="M 59.035549 111.488946 
L 67.090667 112.938867 
L 75.145784 114.388788 
L 83.200902 115.838709 
L 91.25602 117.28863 
L 99.311138 118.738552 
L 107.366256 120.188473 
L 115.421373 121.638394 
L 123.476491 123.088315 
L 131.531609 124.538236 
L 139.586727 125.988158 
L 147.641844 127.438079 
L 155.696962 128.888 
L 163.75208 130.337921 
L 171.807198 131.787842 
L 179.862316 133.237764 
L 187.917433 134.687685 
L 195.972551 136.137606 
L 204.027669 137.587527 
L 212.082787 139.037448 
L 220.137905 140.48737 
L 228.193022 141.937291 
L 236.24814 143.387212 
L 244.303258 144.837133 
" style="fill:none;stroke:#000000;stroke-dasharray:5.55,2.4;stroke-dashoffset:0;stroke-opacity:0.5;stroke-width:1.5;"/>
   </g>
   <g id="patch_3">
    <path d="M 50.529344 231.993508 
L 50.529344 25.782492 
" style="fill:none;stroke:#808080;stroke-linecap:square;stroke-linejoin:miter;stroke-width:0.8;"/>
   </g>
   <g id="patch_4">
    <path d="M 258.80247 231.993508 
L 258.80247 25.782492 
" style="fill:none;"/>
   </g>
   <g id="patch_5">
    <path d="M 52.591455 234.055618 
L 258.80247 234.055618 
" style="fill:none;stroke:#808080;stroke-linecap:square;stroke-linejoin:miter;stroke-width:0.8;"/>
   </g>
   <g id="patch_6">
    <path d="M 52.591455 25.782492 
L 258.80247 25.782492 
" style="fill:none;"/>
   </g>
  </g>
  <g id="axes_2">
   <g id="patch_7">
    <path d="M 358.06853 231.993508 
L 564.279545 231.993508 
L 564.279545 25.782492 
L 358.06853 25.782492 
z
" style="fill:#ffffff;"/>
   </g>
   <g id="PathCollection_2">
    <g clip-path="url(#p08c2fd51db)">
     <use style="fill:#808080;stroke:#808080;" x="417.870207" xlink:href="#m923cd8e45b" y="103.422707"/>
     <use style="fill:#808080;stroke:#808080;" x="472.24752" xlink:href="#m923cd8e45b" y="96.373571"/>
     <use style="fill:#808080;stroke:#808080;" x="436.904885" xlink:href="#m923cd8e45b" y="141.313613"/>
     <use style="fill:#808080;stroke:#808080;" x="481.228577" xlink:href="#m923cd8e45b" y="170.949912"/>
     <use style="fill:#808080;stroke:#808080;" x="489.842971" xlink:href="#m923cd8e45b" y="134.821156"/>
     <use style="fill:#808080;stroke:#808080;" x="444.587135" xlink:href="#m923cd8e45b" y="125.400181"/>
     <use style="fill:#808080;stroke:#808080;" x="454.64851" xlink:href="#m923cd8e45b" y="168.900471"/>
     <use style="fill:#808080;stroke:#808080;" x="383.218457" xlink:href="#m923cd8e45b" y="77.348995"/>
     <use style="fill:#808080;stroke:#808080;" x="464.242777" xlink:href="#m923cd8e45b" y="86.818704"/>
     <use style="fill:#808080;stroke:#808080;" x="482.053554" xlink:href="#m923cd8e45b" y="84.273543"/>
     <use style="fill:#808080;stroke:#808080;" x="458.128615" xlink:href="#m923cd8e45b" y="111.580635"/>
     <use style="fill:#808080;stroke:#808080;" x="449.124048" xlink:href="#m923cd8e45b" y="98.598704"/>
     <use style="fill:#808080;stroke:#808080;" x="444.419986" xlink:href="#m923cd8e45b" y="121.191275"/>
     <use style="fill:#808080;stroke:#808080;" x="467.222004" xlink:href="#m923cd8e45b" y="101.043211"/>
     <use style="fill:#808080;stroke:#808080;" x="448.480746" xlink:href="#m923cd8e45b" y="126.902794"/>
     <use style="fill:#808080;stroke:#808080;" x="452.539194" xlink:href="#m923cd8e45b" y="217.841266"/>
     <use style="fill:#808080;stroke:#808080;" x="467.443318" xlink:href="#m923cd8e45b" y="135.931576"/>
     <use style="fill:#808080;stroke:#808080;" x="464.944606" xlink:href="#m923cd8e45b" y="135.724457"/>
     <use style="fill:#808080;stroke:#808080;" x="422.16883" xlink:href="#m923cd8e45b" y="103.009472"/>
     <use style="fill:#808080;stroke:#808080;" x="363.483133" xlink:href="#m923cd8e45b" y="140.652769"/>
     <use style="fill:#808080;stroke:#808080;" x="525.993987" xlink:href="#m923cd8e45b" y="101.043211"/>
     <use style="fill:#808080;stroke:#808080;" x="473.690671" xlink:href="#m923cd8e45b" y="186.564828"/>
     <use style="fill:#808080;stroke:#808080;" x="487.841603" xlink:href="#m923cd8e45b" y="128.290156"/>
     <use style="fill:#808080;stroke:#808080;" x="473.359736" xlink:href="#m923cd8e45b" y="115.744901"/>
     <use style="fill:#808080;stroke:#808080;" x="447.468069" xlink:href="#m923cd8e45b" y="161.709979"/>
     <use style="fill:#808080;stroke:#808080;" x="522.557365" xlink:href="#m923cd8e45b" y="110.0995"/>
     <use style="fill:#808080;stroke:#808080;" x="455.887916" xlink:href="#m923cd8e45b" y="111.64176"/>
     <use style="fill:#808080;stroke:#808080;" x="415.518136" xlink:href="#m923cd8e45b" y="183.997416"/>
     <use style="fill:#808080;stroke:#808080;" x="472.629971" xlink:href="#m923cd8e45b" y="127.526156"/>
     <use style="fill:#808080;stroke:#808080;" x="481.684397" xlink:href="#m923cd8e45b" y="127.068266"/>
     <use style="fill:#808080;stroke:#808080;" x="436.022686" xlink:href="#m923cd8e45b" y="148.104931"/>
     <use style="fill:#808080;stroke:#808080;" x="523.427141" xlink:href="#m923cd8e45b" y="190.541051"/>
     <use style="fill:#808080;stroke:#808080;" x="488.587023" xlink:href="#m923cd8e45b" y="110.0995"/>
     <use style="fill:#808080;stroke:#808080;" x="483.461519" xlink:href="#m923cd8e45b" y="152.826788"/>
     <use style="fill:#808080;stroke:#808080;" x="452.684794" xlink:href="#m923cd8e45b" y="137.882803"/>
     <use style="fill:#808080;stroke:#808080;" x="484.230699" xlink:href="#m923cd8e45b" y="97.019491"/>
     <use style="fill:#808080;stroke:#808080;" x="450.336553" xlink:href="#m923cd8e45b" y="131.358584"/>
     <use style="fill:#808080;stroke:#808080;" x="454.407327" xlink:href="#m923cd8e45b" y="93.579639"/>
     <use style="fill:#808080;stroke:#808080;" x="477.138471" xlink:href="#m923cd8e45b" y="105.418513"/>
     <use style="fill:#808080;stroke:#808080;" x="442.006292" xlink:href="#m923cd8e45b" y="177.418095"/>
     <use style="fill:#808080;stroke:#808080;" x="494.402119" xlink:href="#m923cd8e45b" y="104.373421"/>
    </g>
   </g>
   <g id="matplotlib.axis_3">
    <g id="xtick_8">
     <g id="line2d_18">
      <g>
       <use style="stroke:#000000;stroke-width:0.8;" x="364.512624" xlink:href="#m703a8dda53" y="234.055618"/>
      </g>
     </g>
     <g id="text_17">
      <!-- -3.0 -->
      <g style="fill:#808080;" transform="translate(354.757155 248.654055)scale(0.1 -0.1)">
       <use xlink:href="#DejaVuSans-45"/>
       <use x="36.083984" xlink:href="#DejaVuSans-51"/>
       <use x="99.707031" xlink:href="#DejaVuSans-46"/>
       <use x="131.494141" xlink:href="#DejaVuSans-48"/>
      </g>
     </g>
    </g>
    <g id="xtick_9">
     <g id="line2d_19">
      <g>
       <use style="stroke:#000000;stroke-width:0.8;" x="396.733095" xlink:href="#m703a8dda53" y="234.055618"/>
      </g>
     </g>
     <g id="text_18">
      <!-- -2.0 -->
      <g style="fill:#808080;" transform="translate(386.977627 248.654055)scale(0.1 -0.1)">
       <use xlink:href="#DejaVuSans-45"/>
       <use x="36.083984" xlink:href="#DejaVuSans-50"/>
       <use x="99.707031" xlink:href="#DejaVuSans-46"/>
       <use x="131.494141" xlink:href="#DejaVuSans-48"/>
      </g>
     </g>
    </g>
    <g id="xtick_10">
     <g id="line2d_20">
      <g>
       <use style="stroke:#000000;stroke-width:0.8;" x="428.953567" xlink:href="#m703a8dda53" y="234.055618"/>
      </g>
     </g>
     <g id="text_19">
      <!-- -1.0 -->
      <g style="fill:#808080;" transform="translate(419.198098 248.654055)scale(0.1 -0.1)">
       <use xlink:href="#DejaVuSans-45"/>
       <use x="36.083984" xlink:href="#DejaVuSans-49"/>
       <use x="99.707031" xlink:href="#DejaVuSans-46"/>
       <use x="131.494141" xlink:href="#DejaVuSans-48"/>
      </g>
     </g>
    </g>
    <g id="xtick_11">
     <g id="line2d_21">
      <g>
       <use style="stroke:#000000;stroke-width:0.8;" x="461.174038" xlink:href="#m703a8dda53" y="234.055618"/>
      </g>
     </g>
     <g id="text_20">
      <!-- 0.0 -->
      <g style="fill:#808080;" transform="translate(453.222475 248.654055)scale(0.1 -0.1)">
       <use xlink:href="#DejaVuSans-48"/>
       <use x="63.623047" xlink:href="#DejaVuSans-46"/>
       <use x="95.410156" xlink:href="#DejaVuSans-48"/>
      </g>
     </g>
    </g>
    <g id="xtick_12">
     <g id="line2d_22">
      <g>
       <use style="stroke:#000000;stroke-width:0.8;" x="493.394509" xlink:href="#m703a8dda53" y="234.055618"/>
      </g>
     </g>
     <g id="text_21">
      <!-- 1.0 -->
      <g style="fill:#808080;" transform="translate(485.442946 248.654055)scale(0.1 -0.1)">
       <use xlink:href="#DejaVuSans-49"/>
       <use x="63.623047" xlink:href="#DejaVuSans-46"/>
       <use x="95.410156" xlink:href="#DejaVuSans-48"/>
      </g>
     </g>
    </g>
    <g id="xtick_13">
     <g id="line2d_23">
      <g>
       <use style="stroke:#000000;stroke-width:0.8;" x="525.61498" xlink:href="#m703a8dda53" y="234.055618"/>
      </g>
     </g>
     <g id="text_22">
      <!-- 2.0 -->
      <g style="fill:#808080;" transform="translate(517.663418 248.654055)scale(0.1 -0.1)">
       <use xlink:href="#DejaVuSans-50"/>
       <use x="63.623047" xlink:href="#DejaVuSans-46"/>
       <use x="95.410156" xlink:href="#DejaVuSans-48"/>
      </g>
     </g>
    </g>
    <g id="xtick_14">
     <g id="line2d_24">
      <g>
       <use style="stroke:#000000;stroke-width:0.8;" x="557.835451" xlink:href="#m703a8dda53" y="234.055618"/>
      </g>
     </g>
     <g id="text_23">
      <!-- 3.0 -->
      <g style="fill:#808080;" transform="translate(549.883889 248.654055)scale(0.1 -0.1)">
       <use xlink:href="#DejaVuSans-51"/>
       <use x="63.623047" xlink:href="#DejaVuSans-46"/>
       <use x="95.410156" xlink:href="#DejaVuSans-48"/>
      </g>
     </g>
    </g>
    <g id="text_24">
     <!-- median $PC_{outside}$ (z-scored) -->
     <defs>
      <path d="M 25.390625 -1.421875 
Q 15.765625 -1.421875 10.171875 4.515625 
Q 4.59375 10.453125 4.59375 20.703125 
Q 4.59375 26.65625 6.515625 32.828125 
Q 8.453125 39.015625 11.53125 43.21875 
Q 16.359375 49.75 22.3125 52.875 
Q 28.265625 56 35.796875 56 
Q 45.125 56 50.859375 50.1875 
Q 56.59375 44.390625 56.59375 35.015625 
Q 56.59375 28.515625 54.6875 22.0625 
Q 52.78125 15.625 49.703125 11.375 
Q 44.921875 4.828125 38.96875 1.703125 
Q 33.015625 -1.421875 25.390625 -1.421875 
z
M 13.921875 21 
Q 13.921875 13.578125 17.015625 9.890625 
Q 20.125 6.203125 26.421875 6.203125 
Q 35.453125 6.203125 41.375 14.078125 
Q 47.3125 21.96875 47.3125 34.078125 
Q 47.3125 41.15625 44.140625 44.765625 
Q 40.96875 48.390625 34.8125 48.390625 
Q 29.734375 48.390625 25.78125 46.015625 
Q 21.828125 43.65625 18.703125 38.8125 
Q 16.40625 35.203125 15.15625 30.5625 
Q 13.921875 25.921875 13.921875 21 
z
" id="DejaVuSans-Oblique-111"/>
      <path d="M 6.6875 21.6875 
L 13.09375 54.6875 
L 22.125 54.6875 
L 15.71875 22.015625 
Q 15.234375 19.625 15.015625 17.921875 
Q 14.796875 16.21875 14.796875 15.09375 
Q 14.796875 10.9375 17.328125 8.65625 
Q 19.875 6.390625 24.515625 6.390625 
Q 31.734375 6.390625 37 11.265625 
Q 42.28125 16.15625 43.890625 24.421875 
L 49.90625 54.6875 
L 58.890625 54.6875 
L 48.296875 0 
L 39.3125 0 
L 41.109375 8.59375 
Q 37.3125 3.8125 32.0625 1.1875 
Q 26.8125 -1.421875 20.90625 -1.421875 
Q 13.71875 -1.421875 9.71875 2.515625 
Q 5.71875 6.453125 5.71875 13.484375 
Q 5.71875 14.9375 5.953125 17.140625 
Q 6.203125 19.34375 6.6875 21.6875 
z
" id="DejaVuSans-Oblique-117"/>
      <path d="M 50 53.078125 
L 48.296875 44.578125 
Q 44.734375 46.53125 40.765625 47.5 
Q 36.8125 48.484375 32.625 48.484375 
Q 25.53125 48.484375 21.453125 46.0625 
Q 17.390625 43.65625 17.390625 39.5 
Q 17.390625 34.671875 26.859375 32.078125 
Q 27.59375 31.890625 27.9375 31.78125 
L 30.8125 30.90625 
Q 39.796875 28.421875 42.796875 25.6875 
Q 45.796875 22.953125 45.796875 18.21875 
Q 45.796875 9.515625 38.890625 4.046875 
Q 31.984375 -1.421875 20.796875 -1.421875 
Q 16.453125 -1.421875 11.671875 -0.578125 
Q 6.890625 0.25 1.125 2 
L 2.875 11.28125 
Q 7.8125 8.734375 12.59375 7.421875 
Q 17.390625 6.109375 21.78125 6.109375 
Q 28.375 6.109375 32.5 8.9375 
Q 36.625 11.765625 36.625 16.109375 
Q 36.625 20.796875 25.78125 23.6875 
L 24.859375 23.921875 
L 21.78125 24.703125 
Q 14.9375 26.515625 11.765625 29.46875 
Q 8.59375 32.421875 8.59375 37.015625 
Q 8.59375 45.75 15.15625 50.875 
Q 21.734375 56 33.015625 56 
Q 37.453125 56 41.671875 55.265625 
Q 45.90625 54.546875 50 53.078125 
z
" id="DejaVuSans-Oblique-115"/>
      <path d="M 41.796875 8.203125 
Q 38.1875 3.46875 33.25 1.015625 
Q 28.328125 -1.421875 22.3125 -1.421875 
Q 14.109375 -1.421875 9.34375 4.171875 
Q 4.59375 9.765625 4.59375 19.484375 
Q 4.59375 27.59375 7.46875 34.9375 
Q 10.359375 42.28125 15.828125 48.09375 
Q 19.4375 51.953125 23.96875 53.96875 
Q 28.515625 56 33.5 56 
Q 38.765625 56 42.796875 53.453125 
Q 46.828125 50.921875 49.03125 46.1875 
L 54.890625 75.984375 
L 63.921875 75.984375 
L 49.125 0 
L 40.09375 0 
z
M 13.921875 21.09375 
Q 13.921875 14.015625 17.109375 10.0625 
Q 20.3125 6.109375 25.984375 6.109375 
Q 30.171875 6.109375 33.765625 8.125 
Q 37.359375 10.15625 40.09375 14.109375 
Q 42.96875 18.21875 44.625 23.578125 
Q 46.296875 28.953125 46.296875 34.1875 
Q 46.296875 40.96875 43.09375 44.765625 
Q 39.890625 48.578125 34.28125 48.578125 
Q 30.03125 48.578125 26.359375 46.578125 
Q 22.703125 44.578125 20.125 40.828125 
Q 17.28125 36.765625 15.59375 31.390625 
Q 13.921875 26.03125 13.921875 21.09375 
z
" id="DejaVuSans-Oblique-100"/>
      <path d="M 48.09375 32.234375 
Q 48.25 33.015625 48.3125 33.84375 
Q 48.390625 34.671875 48.390625 35.5 
Q 48.390625 41.453125 44.890625 44.921875 
Q 41.40625 48.390625 35.40625 48.390625 
Q 28.71875 48.390625 23.578125 44.15625 
Q 18.453125 39.9375 15.828125 32.171875 
z
M 55.90625 25.203125 
L 14.109375 25.203125 
Q 13.8125 23.34375 13.71875 22.265625 
Q 13.625 21.1875 13.625 20.40625 
Q 13.625 13.625 17.796875 9.90625 
Q 21.96875 6.203125 29.59375 6.203125 
Q 35.453125 6.203125 40.671875 7.515625 
Q 45.90625 8.84375 50.390625 11.375 
L 48.6875 2.484375 
Q 43.84375 0.53125 38.6875 -0.4375 
Q 33.546875 -1.421875 28.21875 -1.421875 
Q 16.84375 -1.421875 10.71875 4.015625 
Q 4.59375 9.46875 4.59375 19.484375 
Q 4.59375 28.03125 7.640625 35.375 
Q 10.6875 42.71875 16.609375 48.484375 
Q 20.40625 52.09375 25.65625 54.046875 
Q 30.90625 56 36.8125 56 
Q 46.09375 56 51.578125 50.4375 
Q 57.078125 44.875 57.078125 35.5 
Q 57.078125 33.25 56.78125 30.6875 
Q 56.5 28.125 55.90625 25.203125 
z
" id="DejaVuSans-Oblique-101"/>
     </defs>
     <g style="fill:#808080;" transform="translate(394.624038 262.33218)scale(0.1 -0.1)">
      <use transform="translate(0 0.015625)" xlink:href="#DejaVuSans-109"/>
      <use transform="translate(97.412109 0.015625)" xlink:href="#DejaVuSans-101"/>
      <use transform="translate(158.935547 0.015625)" xlink:href="#DejaVuSans-100"/>
      <use transform="translate(222.412109 0.015625)" xlink:href="#DejaVuSans-105"/>
      <use transform="translate(250.195312 0.015625)" xlink:href="#DejaVuSans-97"/>
      <use transform="translate(311.474609 0.015625)" xlink:href="#DejaVuSans-110"/>
      <use transform="translate(374.853516 0.015625)" xlink:href="#DejaVuSans-32"/>
      <use transform="translate(406.640625 0.015625)" xlink:href="#DejaVuSans-Oblique-80"/>
      <use transform="translate(466.943359 0.015625)" xlink:href="#DejaVuSans-Oblique-67"/>
      <use transform="translate(536.767578 -16.390625)scale(0.7)" xlink:href="#DejaVuSans-Oblique-111"/>
      <use transform="translate(579.594727 -16.390625)scale(0.7)" xlink:href="#DejaVuSans-Oblique-117"/>
      <use transform="translate(623.959961 -16.390625)scale(0.7)" xlink:href="#DejaVuSans-Oblique-116"/>
      <use transform="translate(651.40625 -16.390625)scale(0.7)" xlink:href="#DejaVuSans-Oblique-115"/>
      <use transform="translate(687.875977 -16.390625)scale(0.7)" xlink:href="#DejaVuSans-Oblique-105"/>
      <use transform="translate(707.324219 -16.390625)scale(0.7)" xlink:href="#DejaVuSans-Oblique-100"/>
      <use transform="translate(751.757812 -16.390625)scale(0.7)" xlink:href="#DejaVuSans-Oblique-101"/>
      <use transform="translate(797.558594 0.015625)" xlink:href="#DejaVuSans-32"/>
      <use transform="translate(829.345703 0.015625)" xlink:href="#DejaVuSans-40"/>
      <use transform="translate(868.359375 0.015625)" xlink:href="#DejaVuSans-122"/>
      <use transform="translate(920.849609 0.015625)" xlink:href="#DejaVuSans-45"/>
      <use transform="translate(956.933594 0.015625)" xlink:href="#DejaVuSans-115"/>
      <use transform="translate(1009.033203 0.015625)" xlink:href="#DejaVuSans-99"/>
      <use transform="translate(1064.013672 0.015625)" xlink:href="#DejaVuSans-111"/>
      <use transform="translate(1125.195312 0.015625)" xlink:href="#DejaVuSans-114"/>
      <use transform="translate(1166.308594 0.015625)" xlink:href="#DejaVuSans-101"/>
      <use transform="translate(1227.832031 0.015625)" xlink:href="#DejaVuSans-100"/>
      <use transform="translate(1291.308594 0.015625)" xlink:href="#DejaVuSans-41"/>
     </g>
    </g>
   </g>
   <g id="matplotlib.axis_4">
    <g id="ytick_8">
     <g id="line2d_25">
      <g>
       <use style="stroke:#000000;stroke-width:0.8;" x="356.00642" xlink:href="#mc253d11c63" y="225.549413"/>
      </g>
     </g>
     <g id="text_25">
      <!-- -3.0 -->
      <g style="fill:#808080;" transform="translate(329.495482 229.348632)scale(0.1 -0.1)">
       <use xlink:href="#DejaVuSans-45"/>
       <use x="36.083984" xlink:href="#DejaVuSans-51"/>
       <use x="99.707031" xlink:href="#DejaVuSans-46"/>
       <use x="131.494141" xlink:href="#DejaVuSans-48"/>
      </g>
     </g>
    </g>
    <g id="ytick_9">
     <g id="line2d_26">
      <g>
       <use style="stroke:#000000;stroke-width:0.8;" x="356.00642" xlink:href="#mc253d11c63" y="193.328942"/>
      </g>
     </g>
     <g id="text_26">
      <!-- -2.0 -->
      <g style="fill:#808080;" transform="translate(329.495482 197.128161)scale(0.1 -0.1)">
       <use xlink:href="#DejaVuSans-45"/>
       <use x="36.083984" xlink:href="#DejaVuSans-50"/>
       <use x="99.707031" xlink:href="#DejaVuSans-46"/>
       <use x="131.494141" xlink:href="#DejaVuSans-48"/>
      </g>
     </g>
    </g>
    <g id="ytick_10">
     <g id="line2d_27">
      <g>
       <use style="stroke:#000000;stroke-width:0.8;" x="356.00642" xlink:href="#mc253d11c63" y="161.108471"/>
      </g>
     </g>
     <g id="text_27">
      <!-- -1.0 -->
      <g style="fill:#808080;" transform="translate(329.495482 164.90769)scale(0.1 -0.1)">
       <use xlink:href="#DejaVuSans-45"/>
       <use x="36.083984" xlink:href="#DejaVuSans-49"/>
       <use x="99.707031" xlink:href="#DejaVuSans-46"/>
       <use x="131.494141" xlink:href="#DejaVuSans-48"/>
      </g>
     </g>
    </g>
    <g id="ytick_11">
     <g id="line2d_28">
      <g>
       <use style="stroke:#000000;stroke-width:0.8;" x="356.00642" xlink:href="#mc253d11c63" y="128.888"/>
      </g>
     </g>
     <g id="text_28">
      <!-- 0.0 -->
      <g style="fill:#808080;" transform="translate(333.103295 132.687219)scale(0.1 -0.1)">
       <use xlink:href="#DejaVuSans-48"/>
       <use x="63.623047" xlink:href="#DejaVuSans-46"/>
       <use x="95.410156" xlink:href="#DejaVuSans-48"/>
      </g>
     </g>
    </g>
    <g id="ytick_12">
     <g id="line2d_29">
      <g>
       <use style="stroke:#000000;stroke-width:0.8;" x="356.00642" xlink:href="#mc253d11c63" y="96.667529"/>
      </g>
     </g>
     <g id="text_29">
      <!-- 1.0 -->
      <g style="fill:#808080;" transform="translate(333.103295 100.466748)scale(0.1 -0.1)">
       <use xlink:href="#DejaVuSans-49"/>
       <use x="63.623047" xlink:href="#DejaVuSans-46"/>
       <use x="95.410156" xlink:href="#DejaVuSans-48"/>
      </g>
     </g>
    </g>
    <g id="ytick_13">
     <g id="line2d_30">
      <g>
       <use style="stroke:#000000;stroke-width:0.8;" x="356.00642" xlink:href="#mc253d11c63" y="64.447058"/>
      </g>
     </g>
     <g id="text_30">
      <!-- 2.0 -->
      <g style="fill:#808080;" transform="translate(333.103295 68.246276)scale(0.1 -0.1)">
       <use xlink:href="#DejaVuSans-50"/>
       <use x="63.623047" xlink:href="#DejaVuSans-46"/>
       <use x="95.410156" xlink:href="#DejaVuSans-48"/>
      </g>
     </g>
    </g>
    <g id="ytick_14">
     <g id="line2d_31">
      <g>
       <use style="stroke:#000000;stroke-width:0.8;" x="356.00642" xlink:href="#mc253d11c63" y="32.226587"/>
      </g>
     </g>
     <g id="text_31">
      <!-- 3.0 -->
      <g style="fill:#808080;" transform="translate(333.103295 36.025805)scale(0.1 -0.1)">
       <use xlink:href="#DejaVuSans-51"/>
       <use x="63.623047" xlink:href="#DejaVuSans-46"/>
       <use x="95.410156" xlink:href="#DejaVuSans-48"/>
      </g>
     </g>
    </g>
    <g id="text_32">
     <!-- PC stimulation site (z-scored) -->
     <g style="fill:#808080;" transform="translate(323.415795 202.263)rotate(-90)scale(0.1 -0.1)">
      <use xlink:href="#DejaVuSans-80"/>
      <use x="60.302734" xlink:href="#DejaVuSans-67"/>
      <use x="130.126953" xlink:href="#DejaVuSans-32"/>
      <use x="161.914062" xlink:href="#DejaVuSans-115"/>
      <use x="214.013672" xlink:href="#DejaVuSans-116"/>
      <use x="253.222656" xlink:href="#DejaVuSans-105"/>
      <use x="281.005859" xlink:href="#DejaVuSans-109"/>
      <use x="378.417969" xlink:href="#DejaVuSans-117"/>
      <use x="441.796875" xlink:href="#DejaVuSans-108"/>
      <use x="469.580078" xlink:href="#DejaVuSans-97"/>
      <use x="530.859375" xlink:href="#DejaVuSans-116"/>
      <use x="570.068359" xlink:href="#DejaVuSans-105"/>
      <use x="597.851562" xlink:href="#DejaVuSans-111"/>
      <use x="659.033203" xlink:href="#DejaVuSans-110"/>
      <use x="722.412109" xlink:href="#DejaVuSans-32"/>
      <use x="754.199219" xlink:href="#DejaVuSans-115"/>
      <use x="806.298828" xlink:href="#DejaVuSans-105"/>
      <use x="834.082031" xlink:href="#DejaVuSans-116"/>
      <use x="873.291016" xlink:href="#DejaVuSans-101"/>
      <use x="934.814453" xlink:href="#DejaVuSans-32"/>
      <use x="966.601562" xlink:href="#DejaVuSans-40"/>
      <use x="1005.615234" xlink:href="#DejaVuSans-122"/>
      <use x="1058.105469" xlink:href="#DejaVuSans-45"/>
      <use x="1094.189453" xlink:href="#DejaVuSans-115"/>
      <use x="1146.289062" xlink:href="#DejaVuSans-99"/>
      <use x="1201.269531" xlink:href="#DejaVuSans-111"/>
      <use x="1262.451172" xlink:href="#DejaVuSans-114"/>
      <use x="1303.533203" xlink:href="#DejaVuSans-101"/>
      <use x="1365.056641" xlink:href="#DejaVuSans-100"/>
      <use x="1428.533203" xlink:href="#DejaVuSans-41"/>
     </g>
    </g>
   </g>
   <g id="line2d_32">
    <path clip-path="url(#p08c2fd51db)" d="M 364.512624 156.91981 
L 372.567742 154.583826 
L 380.62286 152.247842 
L 388.677978 149.911857 
L 396.733095 147.575873 
L 404.788213 145.239889 
L 412.843331 142.903905 
L 420.898449 140.567921 
L 428.953567 138.231937 
L 437.008684 135.895952 
L 445.063802 133.559968 
L 453.11892 131.223984 
L 461.174038 128.888 
L 469.229156 126.552016 
L 477.284273 124.216032 
L 485.339391 121.880048 
L 493.394509 119.544063 
L 501.449627 117.208079 
L 509.504744 114.872095 
L 517.559862 112.536111 
L 525.61498 110.200127 
L 533.670098 107.864143 
L 541.725216 105.528158 
L 549.780333 103.192174 
" style="fill:none;stroke:#000000;stroke-linecap:square;stroke-width:1.5;"/>
   </g>
   <g id="line2d_33">
    <path clip-path="url(#p08c2fd51db)" d="M 364.512624 129.854614 
L 372.567742 129.774063 
L 380.62286 129.693512 
L 388.677978 129.612961 
L 396.733095 129.532409 
L 404.788213 129.451858 
L 412.843331 129.371307 
L 420.898449 129.290756 
L 428.953567 129.210205 
L 437.008684 129.129654 
L 445.063802 129.049102 
L 453.11892 128.968551 
L 461.174038 128.888 
L 469.229156 128.807449 
L 477.284273 128.726898 
L 485.339391 128.646346 
L 493.394509 128.565795 
L 501.449627 128.485244 
L 509.504744 128.404693 
L 517.559862 128.324142 
L 525.61498 128.243591 
L 533.670098 128.163039 
L 541.725216 128.082488 
L 549.780333 128.001937 
" style="fill:none;stroke:#000000;stroke-dasharray:5.55,2.4;stroke-dashoffset:0;stroke-opacity:0.5;stroke-width:1.5;"/>
   </g>
   <g id="line2d_34">
    <path clip-path="url(#p08c2fd51db)" d="M 364.512624 183.985006 
L 372.567742 179.393589 
L 380.62286 174.802171 
L 388.677978 170.210754 
L 396.733095 165.619337 
L 404.788213 161.02792 
L 412.843331 156.436503 
L 420.898449 151.845086 
L 428.953567 147.253669 
L 437.008684 142.662251 
L 445.063802 138.070834 
L 453.11892 133.479417 
L 461.174038 128.888 
L 469.229156 124.296583 
L 477.284273 119.705166 
L 485.339391 115.113749 
L 493.394509 110.522331 
L 501.449627 105.930914 
L 509.504744 101.339497 
L 517.559862 96.74808 
L 525.61498 92.156663 
L 533.670098 87.565246 
L 541.725216 82.973829 
L 549.780333 78.382411 
" style="fill:none;stroke:#000000;stroke-dasharray:5.55,2.4;stroke-dashoffset:0;stroke-opacity:0.5;stroke-width:1.5;"/>
   </g>
   <g id="patch_8">
    <path d="M 356.00642 231.993508 
L 356.00642 25.782492 
" style="fill:none;stroke:#808080;stroke-linecap:square;stroke-linejoin:miter;stroke-width:0.8;"/>
   </g>
   <g id="patch_9">
    <path d="M 564.279545 231.993508 
L 564.279545 25.782492 
" style="fill:none;"/>
   </g>
   <g id="patch_10">
    <path d="M 358.06853 234.055618 
L 564.279545 234.055618 
" style="fill:none;stroke:#808080;stroke-linecap:square;stroke-linejoin:miter;stroke-width:0.8;"/>
   </g>
   <g id="patch_11">
    <path d="M 358.06853 25.782492 
L 564.279545 25.782492 
" style="fill:none;"/>
   </g>
  </g>
  <g id="axes_3">
   <g id="patch_12">
    <path d="M 52.591455 514.593508 
L 258.80247 514.593508 
L 258.80247 308.382492 
L 52.591455 308.382492 
z
" style="fill:#ffffff;"/>
   </g>
   <g id="PathCollection_3">
    <g clip-path="url(#p4fe0fca5d8)">
     <use style="fill:#808080;stroke:#808080;" x="156.220401" xlink:href="#m923cd8e45b" y="386.022707"/>
     <use style="fill:#808080;stroke:#808080;" x="160.629812" xlink:href="#m923cd8e45b" y="378.973571"/>
     <use style="fill:#808080;stroke:#808080;" x="155.215047" xlink:href="#m923cd8e45b" y="423.913613"/>
     <use style="fill:#808080;stroke:#808080;" x="160.472997" xlink:href="#m923cd8e45b" y="453.549912"/>
     <use style="fill:#808080;stroke:#808080;" x="225.324159" xlink:href="#m923cd8e45b" y="417.421156"/>
     <use style="fill:#808080;stroke:#808080;" x="150.16544" xlink:href="#m923cd8e45b" y="408.000181"/>
     <use style="fill:#808080;stroke:#808080;" x="111.365992" xlink:href="#m923cd8e45b" y="451.500471"/>
     <use style="fill:#808080;stroke:#808080;" x="208.24354" xlink:href="#m923cd8e45b" y="359.948995"/>
     <use style="fill:#808080;stroke:#808080;" x="195.762457" xlink:href="#m923cd8e45b" y="369.418704"/>
     <use style="fill:#808080;stroke:#808080;" x="200.552469" xlink:href="#m923cd8e45b" y="366.873543"/>
     <use style="fill:#808080;stroke:#808080;" x="162.77048" xlink:href="#m923cd8e45b" y="394.180635"/>
     <use style="fill:#808080;stroke:#808080;" x="169.046869" xlink:href="#m923cd8e45b" y="381.198704"/>
     <use style="fill:#808080;stroke:#808080;" x="159.16132" xlink:href="#m923cd8e45b" y="403.791275"/>
     <use style="fill:#808080;stroke:#808080;" x="174.251325" xlink:href="#m923cd8e45b" y="383.643211"/>
     <use style="fill:#808080;stroke:#808080;" x="219.159157" xlink:href="#m923cd8e45b" y="409.502794"/>
     <use style="fill:#808080;stroke:#808080;" x="191.791129" xlink:href="#m923cd8e45b" y="500.441266"/>
     <use style="fill:#808080;stroke:#808080;" x="119.381557" xlink:href="#m923cd8e45b" y="418.531576"/>
     <use style="fill:#808080;stroke:#808080;" x="145.337364" xlink:href="#m923cd8e45b" y="418.324457"/>
     <use style="fill:#808080;stroke:#808080;" x="83.973226" xlink:href="#m923cd8e45b" y="385.609472"/>
     <use style="fill:#808080;stroke:#808080;" x="173.266202" xlink:href="#m923cd8e45b" y="423.252769"/>
     <use style="fill:#808080;stroke:#808080;" x="139.269828" xlink:href="#m923cd8e45b" y="383.643211"/>
     <use style="fill:#808080;stroke:#808080;" x="133.953077" xlink:href="#m923cd8e45b" y="469.164828"/>
     <use style="fill:#808080;stroke:#808080;" x="151.062405" xlink:href="#m923cd8e45b" y="410.890156"/>
     <use style="fill:#808080;stroke:#808080;" x="146.155403" xlink:href="#m923cd8e45b" y="398.344901"/>
     <use style="fill:#808080;stroke:#808080;" x="164.830523" xlink:href="#m923cd8e45b" y="444.309979"/>
     <use style="fill:#808080;stroke:#808080;" x="133.653892" xlink:href="#m923cd8e45b" y="392.6995"/>
     <use style="fill:#808080;stroke:#808080;" x="156.938561" xlink:href="#m923cd8e45b" y="394.24176"/>
     <use style="fill:#808080;stroke:#808080;" x="148.934518" xlink:href="#m923cd8e45b" y="466.597416"/>
     <use style="fill:#808080;stroke:#808080;" x="102.39209" xlink:href="#m923cd8e45b" y="410.126156"/>
     <use style="fill:#808080;stroke:#808080;" x="158.850259" xlink:href="#m923cd8e45b" y="409.668266"/>
     <use style="fill:#808080;stroke:#808080;" x="175.916716" xlink:href="#m923cd8e45b" y="430.704931"/>
     <use style="fill:#808080;stroke:#808080;" x="84.230066" xlink:href="#m923cd8e45b" y="473.141051"/>
     <use style="fill:#808080;stroke:#808080;" x="140.477856" xlink:href="#m923cd8e45b" y="392.6995"/>
     <use style="fill:#808080;stroke:#808080;" x="175.912565" xlink:href="#m923cd8e45b" y="435.426788"/>
     <use style="fill:#808080;stroke:#808080;" x="161.692951" xlink:href="#m923cd8e45b" y="420.482803"/>
     <use style="fill:#808080;stroke:#808080;" x="200.143" xlink:href="#m923cd8e45b" y="379.619491"/>
     <use style="fill:#808080;stroke:#808080;" x="135.916533" xlink:href="#m923cd8e45b" y="413.958584"/>
     <use style="fill:#808080;stroke:#808080;" x="163.419152" xlink:href="#m923cd8e45b" y="376.179639"/>
     <use style="fill:#808080;stroke:#808080;" x="128.278934" xlink:href="#m923cd8e45b" y="388.018513"/>
     <use style="fill:#808080;stroke:#808080;" x="102.72584" xlink:href="#m923cd8e45b" y="460.018095"/>
     <use style="fill:#808080;stroke:#808080;" x="156.73034" xlink:href="#m923cd8e45b" y="386.973421"/>
    </g>
   </g>
   <g id="matplotlib.axis_5">
    <g id="xtick_15">
     <g id="line2d_35">
      <g>
       <use style="stroke:#000000;stroke-width:0.8;" x="59.035549" xlink:href="#m703a8dda53" y="516.655618"/>
      </g>
     </g>
     <g id="text_33">
      <!-- -3.0 -->
      <g style="fill:#808080;" transform="translate(49.28008 531.254055)scale(0.1 -0.1)">
       <use xlink:href="#DejaVuSans-45"/>
       <use x="36.083984" xlink:href="#DejaVuSans-51"/>
       <use x="99.707031" xlink:href="#DejaVuSans-46"/>
       <use x="131.494141" xlink:href="#DejaVuSans-48"/>
      </g>
     </g>
    </g>
    <g id="xtick_16">
     <g id="line2d_36">
      <g>
       <use style="stroke:#000000;stroke-width:0.8;" x="91.25602" xlink:href="#m703a8dda53" y="516.655618"/>
      </g>
     </g>
     <g id="text_34">
      <!-- -2.0 -->
      <g style="fill:#808080;" transform="translate(81.500551 531.254055)scale(0.1 -0.1)">
       <use xlink:href="#DejaVuSans-45"/>
       <use x="36.083984" xlink:href="#DejaVuSans-50"/>
       <use x="99.707031" xlink:href="#DejaVuSans-46"/>
       <use x="131.494141" xlink:href="#DejaVuSans-48"/>
      </g>
     </g>
    </g>
    <g id="xtick_17">
     <g id="line2d_37">
      <g>
       <use style="stroke:#000000;stroke-width:0.8;" x="123.476491" xlink:href="#m703a8dda53" y="516.655618"/>
      </g>
     </g>
     <g id="text_35">
      <!-- -1.0 -->
      <g style="fill:#808080;" transform="translate(113.721022 531.254055)scale(0.1 -0.1)">
       <use xlink:href="#DejaVuSans-45"/>
       <use x="36.083984" xlink:href="#DejaVuSans-49"/>
       <use x="99.707031" xlink:href="#DejaVuSans-46"/>
       <use x="131.494141" xlink:href="#DejaVuSans-48"/>
      </g>
     </g>
    </g>
    <g id="xtick_18">
     <g id="line2d_38">
      <g>
       <use style="stroke:#000000;stroke-width:0.8;" x="155.696962" xlink:href="#m703a8dda53" y="516.655618"/>
      </g>
     </g>
     <g id="text_36">
      <!-- 0.0 -->
      <g style="fill:#808080;" transform="translate(147.7454 531.254055)scale(0.1 -0.1)">
       <use xlink:href="#DejaVuSans-48"/>
       <use x="63.623047" xlink:href="#DejaVuSans-46"/>
       <use x="95.410156" xlink:href="#DejaVuSans-48"/>
      </g>
     </g>
    </g>
    <g id="xtick_19">
     <g id="line2d_39">
      <g>
       <use style="stroke:#000000;stroke-width:0.8;" x="187.917433" xlink:href="#m703a8dda53" y="516.655618"/>
      </g>
     </g>
     <g id="text_37">
      <!-- 1.0 -->
      <g style="fill:#808080;" transform="translate(179.965871 531.254055)scale(0.1 -0.1)">
       <use xlink:href="#DejaVuSans-49"/>
       <use x="63.623047" xlink:href="#DejaVuSans-46"/>
       <use x="95.410156" xlink:href="#DejaVuSans-48"/>
      </g>
     </g>
    </g>
    <g id="xtick_20">
     <g id="line2d_40">
      <g>
       <use style="stroke:#000000;stroke-width:0.8;" x="220.137905" xlink:href="#m703a8dda53" y="516.655618"/>
      </g>
     </g>
     <g id="text_38">
      <!-- 2.0 -->
      <g style="fill:#808080;" transform="translate(212.186342 531.254055)scale(0.1 -0.1)">
       <use xlink:href="#DejaVuSans-50"/>
       <use x="63.623047" xlink:href="#DejaVuSans-46"/>
       <use x="95.410156" xlink:href="#DejaVuSans-48"/>
      </g>
     </g>
    </g>
    <g id="xtick_21">
     <g id="line2d_41">
      <g>
       <use style="stroke:#000000;stroke-width:0.8;" x="252.358376" xlink:href="#m703a8dda53" y="516.655618"/>
      </g>
     </g>
     <g id="text_39">
      <!-- 3.0 -->
      <g style="fill:#808080;" transform="translate(244.406813 531.254055)scale(0.1 -0.1)">
       <use xlink:href="#DejaVuSans-51"/>
       <use x="63.623047" xlink:href="#DejaVuSans-46"/>
       <use x="95.410156" xlink:href="#DejaVuSans-48"/>
      </g>
     </g>
    </g>
    <g id="text_40">
     <!-- max $z_{outside}$ (z-scored) -->
     <defs>
      <path d="M 54.890625 54.6875 
L 35.109375 28.078125 
L 55.90625 0 
L 45.3125 0 
L 29.390625 21.484375 
L 13.484375 0 
L 2.875 0 
L 24.125 28.609375 
L 4.6875 54.6875 
L 15.28125 54.6875 
L 29.78125 35.203125 
L 44.28125 54.6875 
z
" id="DejaVuSans-120"/>
      <path d="M 11.625 54.6875 
L 54.296875 54.6875 
L 52.6875 46.484375 
L 11.53125 7.171875 
L 45.515625 7.171875 
L 44.09375 0 
L -0.296875 0 
L 1.3125 8.203125 
L 42.484375 47.515625 
L 10.203125 47.515625 
z
" id="DejaVuSans-Oblique-122"/>
     </defs>
     <g style="fill:#808080;" transform="translate(100.896962 544.93218)scale(0.1 -0.1)">
      <use transform="translate(0 0.015625)" xlink:href="#DejaVuSans-109"/>
      <use transform="translate(97.412109 0.015625)" xlink:href="#DejaVuSans-97"/>
      <use transform="translate(158.691406 0.015625)" xlink:href="#DejaVuSans-120"/>
      <use transform="translate(217.871094 0.015625)" xlink:href="#DejaVuSans-32"/>
      <use transform="translate(249.658203 0.015625)" xlink:href="#DejaVuSans-Oblique-122"/>
      <use transform="translate(302.148438 -16.390625)scale(0.7)" xlink:href="#DejaVuSans-Oblique-111"/>
      <use transform="translate(344.975586 -16.390625)scale(0.7)" xlink:href="#DejaVuSans-Oblique-117"/>
      <use transform="translate(389.34082 -16.390625)scale(0.7)" xlink:href="#DejaVuSans-Oblique-116"/>
      <use transform="translate(416.787109 -16.390625)scale(0.7)" xlink:href="#DejaVuSans-Oblique-115"/>
      <use transform="translate(453.256836 -16.390625)scale(0.7)" xlink:href="#DejaVuSans-Oblique-105"/>
      <use transform="translate(472.705078 -16.390625)scale(0.7)" xlink:href="#DejaVuSans-Oblique-100"/>
      <use transform="translate(517.138672 -16.390625)scale(0.7)" xlink:href="#DejaVuSans-Oblique-101"/>
      <use transform="translate(562.939453 0.015625)" xlink:href="#DejaVuSans-32"/>
      <use transform="translate(594.726562 0.015625)" xlink:href="#DejaVuSans-40"/>
      <use transform="translate(633.740234 0.015625)" xlink:href="#DejaVuSans-122"/>
      <use transform="translate(686.230469 0.015625)" xlink:href="#DejaVuSans-45"/>
      <use transform="translate(722.314453 0.015625)" xlink:href="#DejaVuSans-115"/>
      <use transform="translate(774.414062 0.015625)" xlink:href="#DejaVuSans-99"/>
      <use transform="translate(829.394531 0.015625)" xlink:href="#DejaVuSans-111"/>
      <use transform="translate(890.576172 0.015625)" xlink:href="#DejaVuSans-114"/>
      <use transform="translate(931.689453 0.015625)" xlink:href="#DejaVuSans-101"/>
      <use transform="translate(993.212891 0.015625)" xlink:href="#DejaVuSans-100"/>
      <use transform="translate(1056.689453 0.015625)" xlink:href="#DejaVuSans-41"/>
     </g>
    </g>
   </g>
   <g id="matplotlib.axis_6">
    <g id="ytick_15">
     <g id="line2d_42">
      <g>
       <use style="stroke:#000000;stroke-width:0.8;" x="50.529344" xlink:href="#mc253d11c63" y="508.149413"/>
      </g>
     </g>
     <g id="text_41">
      <!-- -3.0 -->
      <g style="fill:#808080;" transform="translate(24.018407 511.948632)scale(0.1 -0.1)">
       <use xlink:href="#DejaVuSans-45"/>
       <use x="36.083984" xlink:href="#DejaVuSans-51"/>
       <use x="99.707031" xlink:href="#DejaVuSans-46"/>
       <use x="131.494141" xlink:href="#DejaVuSans-48"/>
      </g>
     </g>
    </g>
    <g id="ytick_16">
     <g id="line2d_43">
      <g>
       <use style="stroke:#000000;stroke-width:0.8;" x="50.529344" xlink:href="#mc253d11c63" y="475.928942"/>
      </g>
     </g>
     <g id="text_42">
      <!-- -2.0 -->
      <g style="fill:#808080;" transform="translate(24.018407 479.728161)scale(0.1 -0.1)">
       <use xlink:href="#DejaVuSans-45"/>
       <use x="36.083984" xlink:href="#DejaVuSans-50"/>
       <use x="99.707031" xlink:href="#DejaVuSans-46"/>
       <use x="131.494141" xlink:href="#DejaVuSans-48"/>
      </g>
     </g>
    </g>
    <g id="ytick_17">
     <g id="line2d_44">
      <g>
       <use style="stroke:#000000;stroke-width:0.8;" x="50.529344" xlink:href="#mc253d11c63" y="443.708471"/>
      </g>
     </g>
     <g id="text_43">
      <!-- -1.0 -->
      <g style="fill:#808080;" transform="translate(24.018407 447.50769)scale(0.1 -0.1)">
       <use xlink:href="#DejaVuSans-45"/>
       <use x="36.083984" xlink:href="#DejaVuSans-49"/>
       <use x="99.707031" xlink:href="#DejaVuSans-46"/>
       <use x="131.494141" xlink:href="#DejaVuSans-48"/>
      </g>
     </g>
    </g>
    <g id="ytick_18">
     <g id="line2d_45">
      <g>
       <use style="stroke:#000000;stroke-width:0.8;" x="50.529344" xlink:href="#mc253d11c63" y="411.488"/>
      </g>
     </g>
     <g id="text_44">
      <!-- 0.0 -->
      <g style="fill:#808080;" transform="translate(27.626219 415.287219)scale(0.1 -0.1)">
       <use xlink:href="#DejaVuSans-48"/>
       <use x="63.623047" xlink:href="#DejaVuSans-46"/>
       <use x="95.410156" xlink:href="#DejaVuSans-48"/>
      </g>
     </g>
    </g>
    <g id="ytick_19">
     <g id="line2d_46">
      <g>
       <use style="stroke:#000000;stroke-width:0.8;" x="50.529344" xlink:href="#mc253d11c63" y="379.267529"/>
      </g>
     </g>
     <g id="text_45">
      <!-- 1.0 -->
      <g style="fill:#808080;" transform="translate(27.626219 383.066748)scale(0.1 -0.1)">
       <use xlink:href="#DejaVuSans-49"/>
       <use x="63.623047" xlink:href="#DejaVuSans-46"/>
       <use x="95.410156" xlink:href="#DejaVuSans-48"/>
      </g>
     </g>
    </g>
    <g id="ytick_20">
     <g id="line2d_47">
      <g>
       <use style="stroke:#000000;stroke-width:0.8;" x="50.529344" xlink:href="#mc253d11c63" y="347.047058"/>
      </g>
     </g>
     <g id="text_46">
      <!-- 2.0 -->
      <g style="fill:#808080;" transform="translate(27.626219 350.846276)scale(0.1 -0.1)">
       <use xlink:href="#DejaVuSans-50"/>
       <use x="63.623047" xlink:href="#DejaVuSans-46"/>
       <use x="95.410156" xlink:href="#DejaVuSans-48"/>
      </g>
     </g>
    </g>
    <g id="ytick_21">
     <g id="line2d_48">
      <g>
       <use style="stroke:#000000;stroke-width:0.8;" x="50.529344" xlink:href="#mc253d11c63" y="314.826587"/>
      </g>
     </g>
     <g id="text_47">
      <!-- 3.0 -->
      <g style="fill:#808080;" transform="translate(27.626219 318.625805)scale(0.1 -0.1)">
       <use xlink:href="#DejaVuSans-51"/>
       <use x="63.623047" xlink:href="#DejaVuSans-46"/>
       <use x="95.410156" xlink:href="#DejaVuSans-48"/>
      </g>
     </g>
    </g>
    <g id="text_48">
     <!-- PC stimulation site (z-scored) -->
     <g style="fill:#808080;" transform="translate(17.938719 484.863)rotate(-90)scale(0.1 -0.1)">
      <use xlink:href="#DejaVuSans-80"/>
      <use x="60.302734" xlink:href="#DejaVuSans-67"/>
      <use x="130.126953" xlink:href="#DejaVuSans-32"/>
      <use x="161.914062" xlink:href="#DejaVuSans-115"/>
      <use x="214.013672" xlink:href="#DejaVuSans-116"/>
      <use x="253.222656" xlink:href="#DejaVuSans-105"/>
      <use x="281.005859" xlink:href="#DejaVuSans-109"/>
      <use x="378.417969" xlink:href="#DejaVuSans-117"/>
      <use x="441.796875" xlink:href="#DejaVuSans-108"/>
      <use x="469.580078" xlink:href="#DejaVuSans-97"/>
      <use x="530.859375" xlink:href="#DejaVuSans-116"/>
      <use x="570.068359" xlink:href="#DejaVuSans-105"/>
      <use x="597.851562" xlink:href="#DejaVuSans-111"/>
      <use x="659.033203" xlink:href="#DejaVuSans-110"/>
      <use x="722.412109" xlink:href="#DejaVuSans-32"/>
      <use x="754.199219" xlink:href="#DejaVuSans-115"/>
      <use x="806.298828" xlink:href="#DejaVuSans-105"/>
      <use x="834.082031" xlink:href="#DejaVuSans-116"/>
      <use x="873.291016" xlink:href="#DejaVuSans-101"/>
      <use x="934.814453" xlink:href="#DejaVuSans-32"/>
      <use x="966.601562" xlink:href="#DejaVuSans-40"/>
      <use x="1005.615234" xlink:href="#DejaVuSans-122"/>
      <use x="1058.105469" xlink:href="#DejaVuSans-45"/>
      <use x="1094.189453" xlink:href="#DejaVuSans-115"/>
      <use x="1146.289062" xlink:href="#DejaVuSans-99"/>
      <use x="1201.269531" xlink:href="#DejaVuSans-111"/>
      <use x="1262.451172" xlink:href="#DejaVuSans-114"/>
      <use x="1303.533203" xlink:href="#DejaVuSans-101"/>
      <use x="1365.056641" xlink:href="#DejaVuSans-100"/>
      <use x="1428.533203" xlink:href="#DejaVuSans-41"/>
     </g>
    </g>
   </g>
   <g id="line2d_49">
    <path clip-path="url(#p4fe0fca5d8)" d="M 59.035549 439.51981 
L 67.090667 437.183826 
L 75.145784 434.847842 
L 83.200902 432.511857 
L 91.25602 430.175873 
L 99.311138 427.839889 
L 107.366256 425.503905 
L 115.421373 423.167921 
L 123.476491 420.831937 
L 131.531609 418.495952 
L 139.586727 416.159968 
L 147.641844 413.823984 
L 155.696962 411.488 
L 163.75208 409.152016 
L 171.807198 406.816032 
L 179.862316 404.480048 
L 187.917433 402.144063 
L 195.972551 399.808079 
L 204.027669 397.472095 
L 212.082787 395.136111 
L 220.137905 392.800127 
L 228.193022 390.464143 
L 236.24814 388.128158 
L 244.303258 385.792174 
" style="fill:none;stroke:#000000;stroke-linecap:square;stroke-width:1.5;"/>
   </g>
   <g id="line2d_50">
    <path clip-path="url(#p4fe0fca5d8)" d="M 59.035549 416.321071 
L 67.090667 415.918315 
L 75.145784 415.515559 
L 83.200902 415.112803 
L 91.25602 414.710047 
L 99.311138 414.307291 
L 107.366256 413.904535 
L 115.421373 413.501779 
L 123.476491 413.099024 
L 131.531609 412.696268 
L 139.586727 412.293512 
L 147.641844 411.890756 
L 155.696962 411.488 
L 163.75208 411.085244 
L 171.807198 410.682488 
L 179.862316 410.279732 
L 187.917433 409.876976 
L 195.972551 409.474221 
L 204.027669 409.071465 
L 212.082787 408.668709 
L 220.137905 408.265953 
L 228.193022 407.863197 
L 236.24814 407.460441 
L 244.303258 407.057685 
" style="fill:none;stroke:#000000;stroke-dasharray:5.55,2.4;stroke-dashoffset:0;stroke-opacity:0.5;stroke-width:1.5;"/>
   </g>
   <g id="line2d_51">
    <path clip-path="url(#p4fe0fca5d8)" d="M 59.035549 463.685163 
L 67.090667 459.3354 
L 75.145784 454.985636 
L 83.200902 450.635872 
L 91.25602 446.286109 
L 99.311138 441.936345 
L 107.366256 437.586582 
L 115.421373 433.236818 
L 123.476491 428.887054 
L 131.531609 424.537291 
L 139.586727 420.187527 
L 147.641844 415.837764 
L 155.696962 411.488 
L 163.75208 407.138236 
L 171.807198 402.788473 
L 179.862316 398.438709 
L 187.917433 394.088946 
L 195.972551 389.739182 
L 204.027669 385.389418 
L 212.082787 381.039655 
L 220.137905 376.689891 
L 228.193022 372.340128 
L 236.24814 367.990364 
L 244.303258 363.6406 
" style="fill:none;stroke:#000000;stroke-dasharray:5.55,2.4;stroke-dashoffset:0;stroke-opacity:0.5;stroke-width:1.5;"/>
   </g>
   <g id="patch_13">
    <path d="M 50.529344 514.593508 
L 50.529344 308.382492 
" style="fill:none;stroke:#808080;stroke-linecap:square;stroke-linejoin:miter;stroke-width:0.8;"/>
   </g>
   <g id="patch_14">
    <path d="M 258.80247 514.593508 
L 258.80247 308.382492 
" style="fill:none;"/>
   </g>
   <g id="patch_15">
    <path d="M 52.591455 516.655618 
L 258.80247 516.655618 
" style="fill:none;stroke:#808080;stroke-linecap:square;stroke-linejoin:miter;stroke-width:0.8;"/>
   </g>
   <g id="patch_16">
    <path d="M 52.591455 308.382492 
L 258.80247 308.382492 
" style="fill:none;"/>
   </g>
  </g>
  <g id="axes_4">
   <g id="patch_17">
    <path d="M 358.06853 529.576 
L 564.279545 529.576 
L 564.279545 293.4 
L 358.06853 293.4 
z
" style="fill:#ffffff;"/>
   </g>
   <g id="PathCollection_4">
    <defs>
     <path d="M 0 0.866025 
C 0.229673 0.866025 0.449969 0.774776 0.612372 0.612372 
C 0.774776 0.449969 0.866025 0.229673 0.866025 0 
C 0.866025 -0.229673 0.774776 -0.449969 0.612372 -0.612372 
C 0.449969 -0.774776 0.229673 -0.866025 0 -0.866025 
C -0.229673 -0.866025 -0.449969 -0.774776 -0.612372 -0.612372 
C -0.774776 -0.449969 -0.866025 -0.229673 -0.866025 0 
C -0.866025 0.229673 -0.774776 0.449969 -0.612372 0.612372 
C -0.449969 0.774776 -0.229673 0.866025 0 0.866025 
z
" id="m4914718c1f" style="stroke:#808080;"/>
    </defs>
    <g clip-path="url(#p72ae35f3d3)">
     <use style="fill:#808080;stroke:#808080;" x="428.348263" xlink:href="#m4914718c1f" y="446.659181"/>
     <use style="fill:#808080;stroke:#808080;" x="554.638302" xlink:href="#m4914718c1f" y="446.659181"/>
    </g>
   </g>
   <g id="PathCollection_5">
    <g clip-path="url(#p72ae35f3d3)">
     <use style="fill:#808080;stroke:#808080;" x="367.870467" xlink:href="#m4914718c1f" y="516.985257"/>
     <use style="fill:#808080;stroke:#808080;" x="484.093633" xlink:href="#m4914718c1f" y="516.985257"/>
    </g>
   </g>
   <g id="PathCollection_6">
    <g clip-path="url(#p72ae35f3d3)">
     <use style="fill:#808080;stroke:#808080;" x="413.22749" xlink:href="#m4914718c1f" y="306.00703"/>
     <use style="fill:#808080;stroke:#808080;" x="519.867892" xlink:href="#m4914718c1f" y="306.00703"/>
    </g>
   </g>
   <g id="PathCollection_7">
    <g clip-path="url(#p72ae35f3d3)">
     <use style="fill:#808080;stroke:#808080;" x="433.186267" xlink:href="#m4914718c1f" y="376.333105"/>
     <use style="fill:#808080;stroke:#808080;" x="551.475499" xlink:href="#m4914718c1f" y="376.333105"/>
    </g>
   </g>
   <g id="matplotlib.axis_7">
    <g id="xtick_22">
     <g id="line2d_52">
      <g>
       <use style="stroke:#000000;stroke-width:0.8;" x="382.78411" xlink:href="#m703a8dda53" y="529.576"/>
      </g>
     </g>
     <g id="text_49">
      <!-- -1 -->
      <g transform="translate(377.798954 544.174438)scale(0.1 -0.1)">
       <use xlink:href="#DejaVuSans-45"/>
       <use x="36.083984" xlink:href="#DejaVuSans-49"/>
      </g>
     </g>
    </g>
    <g id="xtick_23">
     <g id="line2d_53">
      <g>
       <use style="stroke:#000000;stroke-width:0.8;" x="426.392323" xlink:href="#m703a8dda53" y="529.576"/>
      </g>
     </g>
     <g id="text_50">
      <!-- -0.5 -->
      <defs>
       <path d="M 10.796875 72.90625 
L 49.515625 72.90625 
L 49.515625 64.59375 
L 19.828125 64.59375 
L 19.828125 46.734375 
Q 21.96875 47.46875 24.109375 47.828125 
Q 26.265625 48.1875 28.421875 48.1875 
Q 40.625 48.1875 47.75 41.5 
Q 54.890625 34.8125 54.890625 23.390625 
Q 54.890625 11.625 47.5625 5.09375 
Q 40.234375 -1.421875 26.90625 -1.421875 
Q 22.3125 -1.421875 17.546875 -0.640625 
Q 12.796875 0.140625 7.71875 1.703125 
L 7.71875 11.625 
Q 12.109375 9.234375 16.796875 8.0625 
Q 21.484375 6.890625 26.703125 6.890625 
Q 35.15625 6.890625 40.078125 11.328125 
Q 45.015625 15.765625 45.015625 23.390625 
Q 45.015625 31 40.078125 35.4375 
Q 35.15625 39.890625 26.703125 39.890625 
Q 22.75 39.890625 18.8125 39.015625 
Q 14.890625 38.140625 10.796875 36.28125 
z
" id="DejaVuSans-53"/>
      </defs>
      <g transform="translate(416.636854 544.174438)scale(0.1 -0.1)">
       <use xlink:href="#DejaVuSans-45"/>
       <use x="36.083984" xlink:href="#DejaVuSans-48"/>
       <use x="99.707031" xlink:href="#DejaVuSans-46"/>
       <use x="131.494141" xlink:href="#DejaVuSans-53"/>
      </g>
     </g>
    </g>
    <g id="xtick_24">
     <g id="line2d_54">
      <g>
       <use style="stroke:#000000;stroke-width:0.8;" x="470.000535" xlink:href="#m703a8dda53" y="529.576"/>
      </g>
     </g>
     <g id="text_51">
      <!-- 0 -->
      <g transform="translate(466.819285 544.174438)scale(0.1 -0.1)">
       <use xlink:href="#DejaVuSans-48"/>
      </g>
     </g>
    </g>
    <g id="xtick_25">
     <g id="line2d_55">
      <g>
       <use style="stroke:#000000;stroke-width:0.8;" x="513.608747" xlink:href="#m703a8dda53" y="529.576"/>
      </g>
     </g>
     <g id="text_52">
      <!-- 0.5 -->
      <g transform="translate(505.657185 544.174438)scale(0.1 -0.1)">
       <use xlink:href="#DejaVuSans-48"/>
       <use x="63.623047" xlink:href="#DejaVuSans-46"/>
       <use x="95.410156" xlink:href="#DejaVuSans-53"/>
      </g>
     </g>
    </g>
    <g id="xtick_26">
     <g id="line2d_56">
      <g>
       <use style="stroke:#000000;stroke-width:0.8;" x="557.21696" xlink:href="#m703a8dda53" y="529.576"/>
      </g>
     </g>
     <g id="text_53">
      <!-- 1 -->
      <g transform="translate(554.03571 544.174438)scale(0.1 -0.1)">
       <use xlink:href="#DejaVuSans-49"/>
      </g>
     </g>
    </g>
   </g>
   <g id="matplotlib.axis_8">
    <g id="ytick_22">
     <g id="line2d_57">
      <g>
       <use style="stroke:#000000;stroke-width:0.8;" x="358.06853" xlink:href="#mc253d11c63" y="516.985257"/>
      </g>
     </g>
     <g id="text_54">
      <!-- median $PC_{within}$ -->
      <g transform="translate(275.86853 520.784475)scale(0.1 -0.1)">
       <use transform="translate(0 0.015625)" xlink:href="#DejaVuSans-109"/>
       <use transform="translate(97.412109 0.015625)" xlink:href="#DejaVuSans-101"/>
       <use transform="translate(158.935547 0.015625)" xlink:href="#DejaVuSans-100"/>
       <use transform="translate(222.412109 0.015625)" xlink:href="#DejaVuSans-105"/>
       <use transform="translate(250.195312 0.015625)" xlink:href="#DejaVuSans-97"/>
       <use transform="translate(311.474609 0.015625)" xlink:href="#DejaVuSans-110"/>
       <use transform="translate(374.853516 0.015625)" xlink:href="#DejaVuSans-32"/>
       <use transform="translate(406.640625 0.015625)" xlink:href="#DejaVuSans-Oblique-80"/>
       <use transform="translate(466.943359 0.015625)" xlink:href="#DejaVuSans-Oblique-67"/>
       <use transform="translate(536.767578 -16.390625)scale(0.7)" xlink:href="#DejaVuSans-Oblique-119"/>
       <use transform="translate(594.018555 -16.390625)scale(0.7)" xlink:href="#DejaVuSans-Oblique-105"/>
       <use transform="translate(613.466797 -16.390625)scale(0.7)" xlink:href="#DejaVuSans-Oblique-116"/>
       <use transform="translate(640.913086 -16.390625)scale(0.7)" xlink:href="#DejaVuSans-Oblique-104"/>
       <use transform="translate(685.27832 -16.390625)scale(0.7)" xlink:href="#DejaVuSans-Oblique-105"/>
       <use transform="translate(704.726562 -16.390625)scale(0.7)" xlink:href="#DejaVuSans-Oblique-110"/>
      </g>
     </g>
    </g>
    <g id="ytick_23">
     <g id="line2d_58">
      <g>
       <use style="stroke:#000000;stroke-width:0.8;" x="358.06853" xlink:href="#mc253d11c63" y="446.659181"/>
      </g>
     </g>
     <g id="text_55">
      <!-- median $PC_{outside}$ -->
      <g transform="translate(271.26853 450.4584)scale(0.1 -0.1)">
       <use transform="translate(0 0.015625)" xlink:href="#DejaVuSans-109"/>
       <use transform="translate(97.412109 0.015625)" xlink:href="#DejaVuSans-101"/>
       <use transform="translate(158.935547 0.015625)" xlink:href="#DejaVuSans-100"/>
       <use transform="translate(222.412109 0.015625)" xlink:href="#DejaVuSans-105"/>
       <use transform="translate(250.195312 0.015625)" xlink:href="#DejaVuSans-97"/>
       <use transform="translate(311.474609 0.015625)" xlink:href="#DejaVuSans-110"/>
       <use transform="translate(374.853516 0.015625)" xlink:href="#DejaVuSans-32"/>
       <use transform="translate(406.640625 0.015625)" xlink:href="#DejaVuSans-Oblique-80"/>
       <use transform="translate(466.943359 0.015625)" xlink:href="#DejaVuSans-Oblique-67"/>
       <use transform="translate(536.767578 -16.390625)scale(0.7)" xlink:href="#DejaVuSans-Oblique-111"/>
       <use transform="translate(579.594727 -16.390625)scale(0.7)" xlink:href="#DejaVuSans-Oblique-117"/>
       <use transform="translate(623.959961 -16.390625)scale(0.7)" xlink:href="#DejaVuSans-Oblique-116"/>
       <use transform="translate(651.40625 -16.390625)scale(0.7)" xlink:href="#DejaVuSans-Oblique-115"/>
       <use transform="translate(687.875977 -16.390625)scale(0.7)" xlink:href="#DejaVuSans-Oblique-105"/>
       <use transform="translate(707.324219 -16.390625)scale(0.7)" xlink:href="#DejaVuSans-Oblique-100"/>
       <use transform="translate(751.757812 -16.390625)scale(0.7)" xlink:href="#DejaVuSans-Oblique-101"/>
      </g>
     </g>
    </g>
    <g id="ytick_24">
     <g id="line2d_59">
      <g>
       <use style="stroke:#000000;stroke-width:0.8;" x="358.06853" xlink:href="#mc253d11c63" y="376.333105"/>
      </g>
     </g>
     <g id="text_56">
      <!-- max $z_{outside}$ -->
      <g transform="translate(294.76853 380.132324)scale(0.1 -0.1)">
       <use xlink:href="#DejaVuSans-109"/>
       <use transform="translate(97.412109 0)" xlink:href="#DejaVuSans-97"/>
       <use transform="translate(158.691406 0)" xlink:href="#DejaVuSans-120"/>
       <use transform="translate(217.871094 0)" xlink:href="#DejaVuSans-32"/>
       <use transform="translate(249.658203 0)" xlink:href="#DejaVuSans-Oblique-122"/>
       <use transform="translate(302.148438 -16.40625)scale(0.7)" xlink:href="#DejaVuSans-Oblique-111"/>
       <use transform="translate(344.975586 -16.40625)scale(0.7)" xlink:href="#DejaVuSans-Oblique-117"/>
       <use transform="translate(389.34082 -16.40625)scale(0.7)" xlink:href="#DejaVuSans-Oblique-116"/>
       <use transform="translate(416.787109 -16.40625)scale(0.7)" xlink:href="#DejaVuSans-Oblique-115"/>
       <use transform="translate(453.256836 -16.40625)scale(0.7)" xlink:href="#DejaVuSans-Oblique-105"/>
       <use transform="translate(472.705078 -16.40625)scale(0.7)" xlink:href="#DejaVuSans-Oblique-100"/>
       <use transform="translate(517.138672 -16.40625)scale(0.7)" xlink:href="#DejaVuSans-Oblique-101"/>
      </g>
     </g>
    </g>
    <g id="ytick_25">
     <g id="line2d_60">
      <g>
       <use style="stroke:#000000;stroke-width:0.8;" x="358.06853" xlink:href="#mc253d11c63" y="306.00703"/>
      </g>
     </g>
     <g id="text_57">
      <!-- intercept -->
      <defs>
       <path d="M 18.109375 8.203125 
L 18.109375 -20.796875 
L 9.078125 -20.796875 
L 9.078125 54.6875 
L 18.109375 54.6875 
L 18.109375 46.390625 
Q 20.953125 51.265625 25.265625 53.625 
Q 29.59375 56 35.59375 56 
Q 45.5625 56 51.78125 48.09375 
Q 58.015625 40.1875 58.015625 27.296875 
Q 58.015625 14.40625 51.78125 6.484375 
Q 45.5625 -1.421875 35.59375 -1.421875 
Q 29.59375 -1.421875 25.265625 0.953125 
Q 20.953125 3.328125 18.109375 8.203125 
z
M 48.6875 27.296875 
Q 48.6875 37.203125 44.609375 42.84375 
Q 40.53125 48.484375 33.40625 48.484375 
Q 26.265625 48.484375 22.1875 42.84375 
Q 18.109375 37.203125 18.109375 27.296875 
Q 18.109375 17.390625 22.1875 11.75 
Q 26.265625 6.109375 33.40625 6.109375 
Q 40.53125 6.109375 44.609375 11.75 
Q 48.6875 17.390625 48.6875 27.296875 
z
" id="DejaVuSans-112"/>
      </defs>
      <g transform="translate(305.851343 309.806249)scale(0.1 -0.1)">
       <use xlink:href="#DejaVuSans-105"/>
       <use x="27.783203" xlink:href="#DejaVuSans-110"/>
       <use x="91.162109" xlink:href="#DejaVuSans-116"/>
       <use x="130.371094" xlink:href="#DejaVuSans-101"/>
       <use x="191.894531" xlink:href="#DejaVuSans-114"/>
       <use x="232.976562" xlink:href="#DejaVuSans-99"/>
       <use x="287.957031" xlink:href="#DejaVuSans-101"/>
       <use x="349.480469" xlink:href="#DejaVuSans-112"/>
       <use x="412.957031" xlink:href="#DejaVuSans-116"/>
      </g>
     </g>
    </g>
   </g>
   <g id="line2d_61">
    <path clip-path="url(#p72ae35f3d3)" d="M 470.872699 446.659181 
L 519.713897 446.659181 
" style="fill:none;stroke:#808080;stroke-linecap:square;"/>
   </g>
   <g id="line2d_62">
    <path clip-path="url(#p72ae35f3d3)" d="M 405.460381 516.985257 
L 454.301579 516.985257 
" style="fill:none;stroke:#808080;stroke-linecap:square;"/>
   </g>
   <g id="line2d_63">
    <path clip-path="url(#p72ae35f3d3)" d="M 449.068593 306.00703 
L 490.932477 306.00703 
" style="fill:none;stroke:#808080;stroke-linecap:square;"/>
   </g>
   <g id="line2d_64">
    <path clip-path="url(#p72ae35f3d3)" d="M 474.361356 376.333105 
L 517.097404 376.333105 
" style="fill:none;stroke:#808080;stroke-linecap:square;"/>
   </g>
   <g id="patch_18">
    <path d="M 358.06853 529.576 
L 358.06853 293.4 
" style="fill:none;stroke:#000000;stroke-linecap:square;stroke-linejoin:miter;stroke-width:0.8;"/>
   </g>
   <g id="patch_19">
    <path d="M 564.279545 529.576 
L 564.279545 293.4 
" style="fill:none;stroke:#000000;stroke-linecap:square;stroke-linejoin:miter;stroke-width:0.8;"/>
   </g>
   <g id="patch_20">
    <path d="M 358.06853 529.576 
L 564.279545 529.576 
" style="fill:none;stroke:#000000;stroke-linecap:square;stroke-linejoin:miter;stroke-width:0.8;"/>
   </g>
   <g id="patch_21">
    <path d="M 358.06853 293.4 
L 564.279545 293.4 
" style="fill:none;stroke:#000000;stroke-linecap:square;stroke-linejoin:miter;stroke-width:0.8;"/>
   </g>
   <g id="PathCollection_8">
    <defs>
     <path d="M -2.236068 2.236068 
L 2.236068 2.236068 
L 2.236068 -2.236068 
L -2.236068 -2.236068 
z
" id="m99b9e71e4f" style="stroke:#000000;"/>
    </defs>
    <g clip-path="url(#p72ae35f3d3)">
     <use style="stroke:#000000;" x="495.293298" xlink:href="#m99b9e71e4f" y="446.659181"/>
    </g>
   </g>
   <g id="PathCollection_9">
    <g clip-path="url(#p72ae35f3d3)">
     <use style="stroke:#000000;" x="429.88098" xlink:href="#m99b9e71e4f" y="516.985257"/>
    </g>
   </g>
   <g id="PathCollection_10">
    <g clip-path="url(#p72ae35f3d3)">
     <use style="stroke:#000000;" x="470.000535" xlink:href="#m99b9e71e4f" y="306.00703"/>
    </g>
   </g>
   <g id="PathCollection_11">
    <g clip-path="url(#p72ae35f3d3)">
     <use style="stroke:#000000;" x="495.293298" xlink:href="#m99b9e71e4f" y="376.333105"/>
    </g>
   </g>
  </g>
 </g>
 <defs>
  <clipPath id="pa1be005116">
   <rect height="206.211015" width="206.211015" x="52.591455" y="25.782492"/>
  </clipPath>
  <clipPath id="p08c2fd51db">
   <rect height="206.211015" width="206.211015" x="358.06853" y="25.782492"/>
  </clipPath>
  <clipPath id="p4fe0fca5d8">
   <rect height="206.211015" width="206.211015" x="52.591455" y="308.382492"/>
  </clipPath>
  <clipPath id="p72ae35f3d3">
   <rect height="236.176" width="206.211015" x="358.06853" y="293.4"/>
  </clipPath>
 </defs>
</svg>
